<?xml version="1.0" encoding="utf-8"?>
<!-- Generator: Adobe Illustrator 19.1.0, SVG Export Plug-In . SVG Version: 6.00 Build 0)  -->
<svg version="1.1" id="Layer_1" xmlns="http://www.w3.org/2000/svg" xmlns:xlink="http://www.w3.org/1999/xlink" x="0px" y="0px"
	 viewBox="0 0 168 46" style="enable-background:new 0 0 168 46;" xml:space="preserve">
<style type="text/css">
	.Drop_x0020_Shadow{fill:none;}
	.Outer_x0020_Glow_x0020_5_x0020_pt{fill:none;}
	.Blue_x0020_Neon{fill:none;stroke:#8AACDA;stroke-width:7;stroke-linecap:round;stroke-linejoin:round;}
	.Chrome_x0020_Highlight{fill:url(#SVGID_1_);stroke:#FFFFFF;stroke-width:0.3629;stroke-miterlimit:1;}
	.Jive_GS{fill:#FFDD00;}
	.Alyssa_GS{fill:#A6D0E4;}
	.st0{fill-rule:evenodd;clip-rule:evenodd;}
</style>
<linearGradient id="SVGID_1_" gradientUnits="userSpaceOnUse" x1="17.8125" y1="5" x2="17.8125" y2="4">
	<stop  offset="0" style="stop-color:#656565"/>
	<stop  offset="0.618" style="stop-color:#1B1B1B"/>
	<stop  offset="0.6292" style="stop-color:#545454"/>
	<stop  offset="0.9831" style="stop-color:#3E3E3E"/>
</linearGradient>
<g>
	<path class="st0" d="M39.2,31.2H33L24.7,23l8.3-8.2h6.2L30.9,23L39.2,31.2z M31.4,39.1v-6.2l-8.3-8.2l-8.3,8.2v6.2l8.3-8.2
		L31.4,39.1z M31.4,6.9v6.2l-8.3,8.2l-8.3-8.2V6.9l8.3,8.2L31.4,6.9z M7,14.8h6.2l8.3,8.2l-8.3,8.2H7l8.3-8.2L7,14.8z M23.1,0.5
		L23.1,0.5c12.4,0,22.6,10.1,22.6,22.5v0c0,12.4-10.2,22.5-22.6,22.5h0C10.7,45.5,0.5,35.4,0.5,23v0C0.5,10.6,10.7,0.5,23.1,0.5z"/>
	<g>
		<path d="M75.1,11.1c0,0,0,0.1,0,0.2c0,0.6,0.2,1.1,0.6,1.5c0.4,0.4,0.9,0.5,1.5,0.5c0.5,0,1.1-0.2,1.8-0.5
			c0.2-0.1,0.2-0.1,0.3-0.1c0,0,0,0,0.1,0c0,0,0,0,0,0.1c0,0.2-0.3,0.4-1,0.6c-0.7,0.3-1.3,0.4-2,0.4c-0.8,0-1.4-0.2-1.8-0.6
			c-0.4-0.4-0.6-1-0.6-1.7c0-1,0.5-1.9,1.4-2.7c1-0.8,2.1-1.1,3.5-1.1c0.5,0,0.9,0.1,1.2,0.3c0.3,0.2,0.4,0.5,0.4,0.9
			c0,0.7-0.4,1.2-1.2,1.8c-0.8,0.5-1.7,0.8-2.7,0.8c-0.3,0-0.6,0-0.8-0.1C75.5,11.3,75.3,11.2,75.1,11.1 M75.1,10.7
			c0.2,0.1,0.4,0.2,0.6,0.2c0.2,0,0.4,0.1,0.6,0.1c0.8,0,1.5-0.2,2.2-0.6c0.7-0.4,1-0.9,1-1.3c0-0.3-0.1-0.6-0.3-0.7
			C78.9,8.1,78.7,8,78.3,8c-0.7,0-1.4,0.2-2,0.7C75.7,9.2,75.3,9.9,75.1,10.7z M67.9,9.2c0.9-0.6,1.6-1,2.2-1.2
			c0.6-0.2,1.1-0.4,1.5-0.4c0.4,0,0.8,0.1,1.1,0.3c0.3,0.2,0.4,0.5,0.4,0.9c0,0.3-0.1,0.7-0.3,1.1c0,0,0,0.1,0,0.1l-1.2,2.5
			c0,0.1-0.1,0.2-0.1,0.2c0,0.1,0,0.2,0,0.3c0,0.2,0,0.3,0.1,0.4c0.1,0.1,0.2,0.1,0.4,0.1c0.2,0,0.4-0.1,0.6-0.2
			c0.2-0.1,0.3-0.2,0.3-0.2c0,0,0,0,0.1,0c0,0,0,0.1,0,0.1c0,0.1-0.1,0.2-0.4,0.4c-0.2,0.1-0.5,0.2-0.8,0.2c-0.1,0-0.3,0-0.5-0.1
			c-0.3-0.1-0.5-0.1-0.6-0.1c-0.1,0-0.3,0-0.6,0.1c-0.3,0-0.5,0.1-0.6,0.1c-0.2,0-0.4,0-0.6-0.1c-0.2-0.1-0.2-0.1-0.2-0.2
			c0-0.1,0-0.1,0-0.1c0,0,0.1,0,0.1,0c0,0,0.1,0,0.2,0.1c0.1,0,0.2,0.1,0.3,0.1c0.5,0,0.9-0.4,1.2-1.1c0,0,0-0.1,0.1-0.1l1.2-2.7
			c0.1-0.2,0.1-0.3,0.1-0.4c0-0.1,0-0.2,0-0.3c0-0.2-0.1-0.4-0.2-0.5c-0.2-0.1-0.4-0.2-0.6-0.2c-0.4,0-1,0.2-1.6,0.5
			c-0.6,0.3-1.2,0.7-1.6,1.1c-0.4,0.4-0.7,1-1.1,1.7c-0.3,0.8-0.5,1.3-0.5,1.6c0,0.1,0,0.3,0.1,0.3c0.1,0.1,0.2,0.1,0.3,0.1
			c0.1,0,0.3-0.1,0.5-0.2c0.2-0.1,0.3-0.2,0.3-0.2c0,0,0,0,0.1,0c0,0,0,0,0,0.1c0,0.1-0.1,0.2-0.4,0.4c-0.2,0.1-0.5,0.2-0.8,0.2
			c-0.1,0-0.3,0-0.5-0.1c-0.3-0.1-0.5-0.1-0.6-0.1c-0.1,0-0.3,0-0.5,0.1c-0.3,0-0.5,0.1-0.6,0.1c-0.2,0-0.4,0-0.5-0.1
			c-0.2-0.1-0.2-0.1-0.2-0.2c0-0.1,0-0.1,0-0.1c0,0,0,0,0.1,0c0,0,0.1,0,0.2,0c0.1,0,0.2,0,0.2,0c0.7,0,1.4-0.8,2.2-2.5
			c0.2-0.5,0.4-0.8,0.5-1l3.1-6.1c0.6-1.2,1.1-2.1,1.6-2.6c0.5-0.5,1-0.7,1.6-0.7c0.2,0,0.5,0.1,0.7,0.2c0.2,0.1,0.3,0.2,0.3,0.4
			c0,0,0,0.1,0,0.1c0,0-0.1,0-0.1,0c0,0-0.1-0.1-0.3-0.2c-0.2-0.1-0.4-0.2-0.5-0.2c-0.4,0-0.7,0.2-1,0.5c-0.3,0.3-0.7,1.1-1.3,2.2
			L67.9,9.2z M59.7,13.7c0.5-0.3,1.1-1.3,1.9-3.2c0.4-1,0.8-1.8,1.1-2.4h-1c-0.1,0-0.1,0-0.1,0c0,0,0,0,0-0.1c0-0.1,0.1-0.1,0.3-0.1
			c0.1,0,0.1,0,0.2,0c0.6-0.1,1.1-0.5,1.5-1.3l0,0c0.5-1.1,1-2,1.5-2.7c0.5-0.7,0.8-1,1-1c0,0,0,0,0.1,0c0,0,0,0,0,0.1
			c0,0-0.1,0.1-0.2,0.3c-0.8,1.3-1.4,2.9-1.9,4.6h1c0.1,0,0.1,0,0.2,0c0,0,0,0.1,0.1,0.1c0,0,0,0.1,0,0.1c0,0-0.1,0-0.2,0h-1.1
			c-0.7,1.7-1.6,3.2-2.7,4.4c-0.2,0.2-0.3,0.4-0.3,0.4c0,0.1,0,0.1,0,0.2c0,0,0.1,0,0.1,0c0.1,0,0.2,0,0.3-0.1
			c0.2,0,0.3-0.1,0.4-0.1c0.1,0,0.2,0,0.4,0c0.1,0,0.2,0,0.3,0c0.1,0,0.2,0,0.2,0c0.1,0,0.1,0,0.1,0c0,0,0,0,0,0c0,0,0,0,0,0
			c0,0.1-0.1,0.3-0.4,0.4c-0.3,0.2-0.6,0.2-0.9,0.2c-0.1,0-0.3,0-0.6-0.1c-0.3-0.1-0.5-0.1-0.6-0.1c-0.1,0-0.2,0-0.3,0
			C59.9,13.7,59.8,13.7,59.7,13.7z"/>
		<path d="M167.5,22.1h-4.1v2.4h1.4v3.7c-0.1,0-0.1,0-0.2,0.1c-0.1,0-0.2,0-0.4,0c-0.4,0-0.7-0.1-1-0.3c-0.3-0.2-0.6-0.5-0.9-0.9
			c-0.3-0.4-0.5-0.9-0.6-1.6c-0.2-0.6-0.2-1.4-0.2-2.3c0-1,0.1-1.8,0.3-2.5c0.2-0.7,0.4-1.2,0.8-1.7c0.3-0.4,0.7-0.7,1.2-0.9
			c0.4-0.2,0.9-0.3,1.4-0.3c0.4,0,0.7,0,1,0.1c0.3,0.1,0.5,0.1,0.8,0.3l0.5-2.6c-0.2-0.1-0.6-0.2-1-0.3c-0.4-0.1-0.9-0.1-1.5-0.1
			c-0.7,0-1.3,0.1-1.9,0.3c-0.6,0.2-1.2,0.5-1.8,0.9c-0.5,0.4-1,0.9-1.4,1.5c-0.4,0.6-0.7,1.4-1,2.2c-0.2,0.9-0.4,1.8-0.4,2.9
			c0,0.9,0.1,1.7,0.2,2.5c0.1,0.8,0.4,1.5,0.7,2.1c0.3,0.6,0.7,1.2,1.1,1.6c0.5,0.5,1.1,0.9,1.8,1.1c0.7,0.3,1.5,0.4,2.3,0.4
			c0.4,0,0.8,0,1.2-0.1c0.4-0.1,0.8-0.1,1.1-0.2c0.3-0.1,0.6-0.2,0.9-0.3V22.1z M150.8,30.6v-3.4c0-1.5,0-2.9-0.1-4.1
			c0-1.2-0.1-2.1-0.1-2.9h0c0.1,0.3,0.2,0.7,0.3,1.1c0.1,0.4,0.3,0.8,0.4,1.2c0.1,0.4,0.3,0.8,0.4,1.2c0.1,0.4,0.3,0.7,0.4,1.1
			l2.3,5.8h2.7V15.4h-2.6v3.4c0,0.9,0,1.9,0.1,2.7c0,0.9,0.1,1.7,0.1,2.4c0,0.7,0.1,1.4,0.1,1.9h0c-0.1-0.3-0.2-0.7-0.4-1.1
			c-0.1-0.4-0.3-0.8-0.4-1.2c-0.2-0.4-0.3-0.8-0.4-1.2c-0.1-0.4-0.3-0.7-0.4-1l-2.4-6h-2.7v15.3H150.8z M143.4,15.4v15.3h3V15.4
			H143.4z M136.1,17.8c0.1,0,0.2-0.1,0.3-0.1c0.1,0,0.2,0,0.3,0c0.6,0,1.1,0.2,1.5,0.6c0.4,0.4,0.7,1,0.9,1.7
			c0.2,0.7,0.3,1.6,0.3,2.7c0,1-0.1,1.9-0.2,2.7c-0.1,0.7-0.3,1.3-0.6,1.7c-0.2,0.4-0.5,0.7-0.9,0.9c-0.3,0.2-0.7,0.3-1,0.3
			c-0.1,0-0.2,0-0.3,0c-0.1,0-0.2,0-0.3,0V17.8z M133.2,30.6c0.2,0,0.4,0.1,0.7,0.1c0.3,0,0.5,0,0.8,0.1c0.3,0,0.6,0,0.9,0
			c1.1,0,2-0.1,2.7-0.4c0.8-0.2,1.4-0.6,1.9-1.1c0.7-0.6,1.2-1.4,1.6-2.5c0.4-1.1,0.6-2.4,0.6-3.9c0-1.5-0.2-2.7-0.5-3.8
			c-0.3-1-0.8-1.8-1.5-2.4c-0.5-0.5-1.1-0.8-1.8-1c-0.7-0.2-1.5-0.3-2.5-0.3c-0.6,0-1.2,0-1.7,0.1c-0.5,0.1-1,0.1-1.4,0.2V30.6z
			 M124.9,30.6v-3.4c0-1.5,0-2.9-0.1-4.1c0-1.2-0.1-2.1-0.1-2.9h0c0.1,0.3,0.2,0.7,0.3,1.1c0.1,0.4,0.3,0.8,0.4,1.2
			c0.1,0.4,0.3,0.8,0.4,1.2c0.1,0.4,0.3,0.7,0.4,1.1l2.3,5.8h2.7V15.4h-2.6v3.4c0,0.9,0,1.9,0.1,2.7c0,0.9,0.1,1.7,0.1,2.4
			c0,0.7,0.1,1.4,0.1,1.9h0c-0.1-0.3-0.2-0.7-0.4-1.1c-0.1-0.4-0.3-0.8-0.4-1.2c-0.2-0.4-0.3-0.8-0.4-1.2c-0.1-0.4-0.3-0.7-0.4-1
			l-2.4-6h-2.7v15.3H124.9z M111.8,15.4v9.4c0,1.3,0.1,2.4,0.4,3.3c0.3,0.9,0.8,1.6,1.4,2.1c0.7,0.5,1.5,0.7,2.6,0.7
			c1,0,1.8-0.2,2.5-0.7c0.7-0.5,1.2-1.1,1.5-2c0.3-0.9,0.5-2,0.5-3.3v-9.4h-3v9.9c0,0.6,0,1.1-0.1,1.4c-0.1,0.4-0.2,0.7-0.3,0.9
			c-0.1,0.2-0.3,0.4-0.5,0.5c-0.2,0.1-0.4,0.1-0.6,0.1c-0.3,0-0.5-0.1-0.7-0.3c-0.2-0.2-0.4-0.5-0.5-0.9c-0.1-0.4-0.2-1-0.2-1.8
			v-9.9H111.8z M103.8,30.6h3v-6.3h3.5v-2.5h-3.5V18h3.7v-2.6h-6.7V30.6z M96.6,17.8c0.1,0,0.2-0.1,0.3-0.1c0.1,0,0.2,0,0.3,0
			c0.6,0,1.1,0.2,1.5,0.6c0.4,0.4,0.7,1,0.9,1.7c0.2,0.7,0.3,1.6,0.3,2.7c0,1-0.1,1.9-0.2,2.7c-0.1,0.7-0.3,1.3-0.6,1.7
			c-0.2,0.4-0.5,0.7-0.9,0.9c-0.3,0.2-0.7,0.3-1,0.3c-0.1,0-0.2,0-0.3,0c-0.1,0-0.2,0-0.3,0V17.8z M93.6,30.6c0.2,0,0.4,0.1,0.7,0.1
			c0.3,0,0.5,0,0.8,0.1c0.3,0,0.6,0,0.9,0c1.1,0,2-0.1,2.7-0.4c0.8-0.2,1.4-0.6,1.9-1.1c0.7-0.6,1.2-1.4,1.6-2.5
			c0.4-1.1,0.6-2.4,0.6-3.9c0-1.5-0.2-2.7-0.5-3.8c-0.3-1-0.8-1.8-1.5-2.4c-0.5-0.5-1.1-0.8-1.8-1c-0.7-0.2-1.5-0.3-2.5-0.3
			c-0.6,0-1.2,0-1.7,0.1c-0.5,0.1-1,0.1-1.4,0.2V30.6z M83.6,30.6l1-5c0.2-0.7,0.3-1.5,0.4-2.4c0.1-0.8,0.3-1.7,0.4-2.6h0
			c0.1,0.9,0.2,1.8,0.3,2.7c0.1,0.8,0.2,1.6,0.4,2.3l0.9,5h3.1l2.7-15.3H90l-0.8,6c-0.1,0.6-0.1,1.2-0.2,1.7
			c-0.1,0.6-0.1,1.2-0.2,1.8c-0.1,0.6-0.1,1.2-0.2,1.9h0c-0.1-0.7-0.1-1.3-0.2-1.9c-0.1-0.6-0.2-1.2-0.3-1.8
			c-0.1-0.6-0.2-1.2-0.3-1.7l-1-6h-2.4l-1.1,6.1c-0.1,0.6-0.2,1.2-0.3,1.8c-0.1,0.6-0.2,1.2-0.3,1.8c-0.1,0.6-0.2,1.2-0.2,1.8h-0.1
			c-0.1-0.9-0.2-1.8-0.3-2.7c-0.1-0.9-0.2-1.8-0.3-2.6l-0.8-6.1H78l2.6,15.3H83.6z M73.2,17.8c0.3,0,0.6,0.1,0.9,0.4
			c0.2,0.3,0.4,0.6,0.5,1.1c0.1,0.5,0.2,1,0.3,1.6c0.1,0.6,0.1,1.2,0.1,1.9c0,0.8,0,1.5-0.1,2.1c-0.1,0.7-0.2,1.2-0.3,1.7
			c-0.1,0.5-0.3,0.9-0.5,1.1c-0.2,0.3-0.5,0.4-0.8,0.4c-0.6,0-1.1-0.4-1.4-1.3c-0.3-0.9-0.5-2.2-0.5-3.9c0-1.1,0.1-2,0.2-2.8
			c0.1-0.8,0.3-1.4,0.6-1.8C72.5,18,72.8,17.8,73.2,17.8z M73.3,15.2c-0.7,0-1.3,0.1-1.8,0.4c-0.5,0.3-1,0.6-1.4,1.1
			c-0.4,0.5-0.7,1-1,1.7c-0.3,0.6-0.5,1.4-0.6,2.1c-0.1,0.8-0.2,1.6-0.2,2.4c0,0.8,0.1,1.7,0.2,2.4c0.1,0.8,0.3,1.5,0.5,2.1
			c0.2,0.7,0.5,1.2,0.9,1.7c0.4,0.5,0.8,0.9,1.4,1.1c0.5,0.3,1.1,0.4,1.8,0.4c0.7,0,1.4-0.1,2-0.5c0.6-0.3,1.1-0.8,1.6-1.4
			c0.4-0.6,0.8-1.5,1-2.5c0.2-1,0.4-2.3,0.4-3.7c0-0.7,0-1.4-0.1-2.1c-0.1-0.7-0.3-1.4-0.5-2c-0.2-0.6-0.5-1.2-0.9-1.7
			c-0.4-0.5-0.8-0.9-1.4-1.2C74.7,15.3,74.1,15.2,73.3,15.2z M62.2,17.7c0.1,0,0.2-0.1,0.3-0.1c0.1,0,0.3,0,0.4,0
			c0.4,0,0.8,0.1,1.1,0.3c0.3,0.2,0.5,0.5,0.6,0.8c0.1,0.3,0.2,0.7,0.2,1.2c0,0.4-0.1,0.9-0.2,1.2c-0.2,0.4-0.4,0.6-0.7,0.8
			c-0.3,0.2-0.7,0.3-1.1,0.3h-0.5V17.7z M59.2,30.6h3v-6.1h0.5c0.3,0,0.6,0.1,0.8,0.2c0.2,0.1,0.4,0.4,0.6,0.7
			c0.1,0.4,0.3,0.8,0.4,1.5c0.1,0.6,0.2,1.1,0.3,1.6c0.1,0.5,0.2,0.9,0.3,1.3c0.1,0.4,0.2,0.6,0.2,0.8h3.1c-0.1-0.1-0.1-0.4-0.2-0.6
			c-0.1-0.3-0.2-0.6-0.3-1c-0.1-0.4-0.2-0.8-0.3-1.2c-0.1-0.4-0.2-0.9-0.2-1.3c-0.1-0.8-0.4-1.5-0.7-2c-0.3-0.5-0.7-0.8-1.2-1.1v0
			c0.5-0.2,1-0.6,1.3-0.9c0.4-0.4,0.6-0.8,0.8-1.3c0.2-0.5,0.3-1,0.3-1.6c0-0.4,0-0.8-0.1-1.2c-0.1-0.4-0.2-0.7-0.4-1
			c-0.2-0.3-0.4-0.6-0.7-0.9c-0.3-0.3-0.7-0.5-1.1-0.7c-0.4-0.2-0.9-0.3-1.4-0.3c-0.5-0.1-1-0.1-1.6-0.1c-0.6,0-1.1,0-1.7,0.1
			c-0.6,0.1-1.1,0.1-1.6,0.2V30.6z M58.2,27.9C58,28,57.8,28,57.5,28.1c-0.3,0-0.5,0.1-0.8,0.1c-0.6,0-1.2-0.2-1.6-0.5
			c-0.5-0.3-0.9-0.9-1.1-1.6c-0.3-0.7-0.4-1.7-0.4-2.9c0-0.9,0.1-1.7,0.3-2.4c0.2-0.7,0.4-1.2,0.7-1.6c0.3-0.4,0.6-0.7,1-0.9
			c0.4-0.2,0.8-0.3,1.2-0.3c0.3,0,0.6,0,0.8,0.1c0.2,0.1,0.4,0.1,0.6,0.2l0.5-2.5c-0.2-0.1-0.4-0.2-0.8-0.3
			c-0.4-0.1-0.8-0.1-1.3-0.1c-0.6,0-1.2,0.1-1.8,0.3c-0.6,0.2-1.1,0.5-1.7,0.9c-0.5,0.4-1,0.9-1.4,1.5c-0.4,0.6-0.7,1.4-1,2.3
			c-0.2,0.9-0.4,1.9-0.4,3c0,1.1,0.1,2.1,0.4,3c0.2,0.9,0.6,1.7,1.1,2.4c0.5,0.7,1.1,1.2,1.8,1.6c0.7,0.4,1.6,0.6,2.6,0.6
			c0.5,0,1,0,1.4-0.1c0.4-0.1,0.7-0.2,0.9-0.3L58.2,27.9z"/>
		<path d="M156.9,32.6c-0.7,1.3-1.3,2.4-1.7,3.3c-0.4,0.9-0.6,1.5-0.6,1.8c0,0.2,0.1,0.4,0.2,0.5c0.1,0.1,0.3,0.2,0.4,0.2
			c0.3,0,0.6-0.1,0.7-0.4c0.1-0.3,0.2-0.4,0.3-0.4c0,0,0.1,0,0.1,0c0,0,0,0.1,0,0.1c0,0.3-0.1,0.5-0.3,0.7c-0.2,0.2-0.5,0.3-0.8,0.3
			c-0.1,0-0.3,0-0.6-0.1c-0.3-0.1-0.6-0.1-0.8-0.1c-0.1,0-0.2,0-0.3,0c-0.1,0-0.1,0-0.2,0l-0.1-0.6c-0.4,0.3-0.7,0.4-1,0.6
			c-0.3,0.1-0.6,0.2-0.9,0.2c-0.6,0-1.1-0.2-1.4-0.5c-0.4-0.4-0.5-0.8-0.5-1.4c0-1.1,0.6-2.1,1.7-2.9c1.2-0.8,2.5-1.3,4.1-1.3
			c0.4,0,0.7,0,0.9,0C156.4,32.6,156.6,32.6,156.9,32.6 M155.8,32.8h-0.4c-1.4,0-2.6,0.4-3.6,1.1c-1,0.7-1.4,1.6-1.4,2.6
			c0,0.5,0.1,0.9,0.4,1.2c0.3,0.3,0.7,0.4,1.2,0.4c0.3,0,0.5,0,0.8-0.1c0.2-0.1,0.5-0.2,0.8-0.5c0.2-0.8,0.5-1.6,0.9-2.3
			C154.8,34.4,155.2,33.6,155.8,32.8z M146.3,35.9l3.2-6.6c0.7-1.6,1.4-2.6,1.8-3.1c0.5-0.5,0.9-0.8,1.4-0.8c0.1,0,0.3,0,0.4,0.1
			c0.1,0.1,0.2,0.2,0.2,0.2c0,0,0,0.1,0,0.1c0,0,0,0-0.1,0c0,0-0.1,0-0.1,0c-0.2-0.1-0.3-0.1-0.5-0.1c-0.4,0-0.9,0.7-1.6,2.2
			l-0.1,0.3l-4.1,8.8c-0.1,0.2-0.2,0.4-0.3,0.6c-0.1,0.2-0.1,0.3-0.1,0.4c0,0.1,0,0.2,0.1,0.2c0.1,0.1,0.1,0.1,0.2,0.1
			c0.1,0,0.2,0,0.2-0.1c0.1,0,0.1-0.1,0.1-0.1c0,0,0.1,0,0.1,0c0,0,0,0,0,0.1c0,0.1-0.1,0.1-0.2,0.2c-0.2,0.1-0.3,0.1-0.5,0.1
			c-0.1,0-0.3,0-0.5-0.1c-0.2-0.1-0.4-0.1-0.5-0.1c-0.1,0-0.2,0-0.4,0.1c-0.2,0.1-0.4,0.1-0.6,0.1c-0.2,0-0.4,0-0.5-0.1
			c-0.1,0-0.2-0.1-0.2-0.2c0,0,0-0.1,0.1-0.1c0,0,0.1,0,0.1,0c0,0,0.1,0,0.2,0c0.1,0,0.2,0,0.3,0c0.3,0,0.8-0.6,1.3-1.7
			C146.1,36.3,146.2,36.1,146.3,35.9z M144.8,32.7l-2.3,4.5c-0.1,0.1-0.1,0.3-0.2,0.4c0,0.1-0.1,0.3-0.1,0.4c0,0.1,0,0.2,0.1,0.3
			c0.1,0.1,0.2,0.1,0.3,0.1c0.1,0,0.2,0,0.3-0.1c0.1-0.1,0.2-0.1,0.2-0.1c0,0,0,0,0.1,0c0,0,0,0.1,0,0.1c0,0.1-0.1,0.2-0.2,0.3
			c-0.2,0.1-0.4,0.2-0.6,0.2c0,0-0.2,0-0.4-0.1c-0.2,0-0.4-0.1-0.6-0.1c-0.2,0-0.3,0-0.4,0c-0.1,0-0.3,0.1-0.4,0.1l0.4-0.5
			c0.1-0.1,0.1-0.1,0.1-0.2c0,0,0-0.1,0-0.1c0,0,0,0,0-0.1c0,0-0.1,0-0.1,0c0,0-0.2,0.1-0.3,0.2c-0.6,0.4-1.2,0.6-1.7,0.6
			c-0.5,0-0.9-0.1-1.2-0.4c-0.3-0.3-0.5-0.6-0.5-1c0-0.3,0.1-0.6,0.3-1.1c0,0,0-0.1,0-0.1l1.3-2.7l-1,0.2h-0.1c0,0-0.1,0-0.1,0
			c0,0,0,0,0-0.1c0,0,0-0.1,0-0.1c0,0,0.1,0,0.1,0l2.6-0.7l-1.8,3.6c-0.1,0.3-0.2,0.6-0.3,0.7c0,0.1-0.1,0.3-0.1,0.4
			c0,0.3,0.1,0.5,0.3,0.6c0.2,0.2,0.4,0.2,0.7,0.2c0.5,0,1-0.2,1.4-0.5c0.4-0.3,0.8-0.8,1.1-1.5l1.5-3l-0.6,0.1l-0.1,0
			c0,0-0.1,0-0.1,0c0,0,0,0,0-0.1c0,0,0-0.1,0.1-0.1c0,0,0.1,0,0.2-0.1L144.8,32.7z M127,33.5c-0.2,0-0.4,0.1-0.6,0.2
			c-0.2,0.1-0.4,0.1-0.5,0.1c0,0-0.1,0-0.1,0c0,0,0-0.1,0-0.1c0-0.1,0.3-0.2,1-0.4c0.6-0.2,1.2-0.4,1.7-0.6l-0.5,1.4
			c0.5-0.5,1-0.8,1.5-1.1c0.5-0.3,1.1-0.4,1.6-0.4c0.4,0,0.8,0.1,1,0.3c0.3,0.2,0.4,0.5,0.4,0.9c0,0.1,0,0.1,0,0.2c0,0,0,0.1,0,0.2
			c0.4-0.5,0.8-0.9,1.3-1.1c0.4-0.3,0.9-0.4,1.3-0.4c0.4,0,0.8,0.1,1,0.4c0.2,0.3,0.4,0.6,0.4,1c0,0.3-0.1,0.7-0.3,1.2
			c-0.2,0.5-0.7,1.2-1.5,2.3c-0.1,0.1-0.2,0.2-0.3,0.4c-0.1,0.2-0.2,0.3-0.2,0.3c0,0,0,0.1,0,0.1c0,0,0,0,0.1,0c0,0,0.1,0,0.2-0.1
			c0.2-0.1,0.3-0.1,0.5-0.1c0,0,0.1,0,0.3,0c0.1,0,0.2,0,0.3,0c0.1,0,0.2,0,0.3,0c0.1,0,0.2-0.1,0.3-0.1c0,0.2-0.2,0.4-0.5,0.6
			c-0.3,0.2-0.6,0.2-0.9,0.2c-0.1,0-0.2,0-0.5-0.1c-0.2-0.1-0.4-0.1-0.5-0.1c-0.1,0-0.2,0-0.5,0.1c-0.1,0-0.2,0-0.3,0.1
			c0.7-0.9,1.3-1.7,1.7-2.5c0.4-0.8,0.6-1.4,0.6-1.9c0-0.4-0.1-0.6-0.2-0.8c-0.2-0.2-0.4-0.3-0.8-0.3c-0.4,0-0.8,0.2-1.3,0.5
			c-0.4,0.4-0.8,0.8-1,1.3l-1.1,2.3c-0.1,0.2-0.1,0.3-0.1,0.4c0,0.1-0.1,0.2-0.1,0.2c0,0.1,0,0.2,0.1,0.3c0.1,0.1,0.2,0.1,0.4,0.1
			c0.2,0,0.4,0,0.6-0.1c0.2-0.1,0.3-0.1,0.3-0.1c0,0,0,0,0.1,0c0,0,0,0,0,0.1c0,0.1-0.1,0.2-0.4,0.4c-0.2,0.1-0.5,0.2-0.8,0.2
			c-0.1,0-0.3,0-0.5-0.1c-0.3-0.1-0.5-0.1-0.6-0.1c-0.1,0-0.3,0-0.6,0.1c-0.3,0-0.5,0.1-0.6,0.1c-0.2,0-0.4,0-0.6-0.1
			c-0.2-0.1-0.2-0.1-0.2-0.2c0-0.1,0-0.1,0-0.1c0,0,0.1,0,0.1,0c0,0,0.1,0,0.2,0c0.1,0,0.2,0,0.3,0c0.5,0,0.9-0.4,1.2-1.1l0-0.1
			l1.2-2.7c0.1-0.2,0.1-0.3,0.1-0.4c0-0.1,0-0.2,0-0.3c0-0.2-0.1-0.4-0.2-0.5c-0.2-0.1-0.4-0.2-0.6-0.2c-0.4,0-0.8,0.1-1.3,0.4
			c-0.4,0.2-0.8,0.6-1.2,1c-0.4,0.5-0.9,1.2-1.2,2c-0.4,0.8-0.6,1.3-0.6,1.6c0,0.1,0,0.2,0.1,0.3c0.1,0.1,0.2,0.1,0.3,0.1
			c0.1,0,0.3,0,0.4-0.1c0.1-0.1,0.2-0.1,0.2-0.1c0,0,0.1,0,0.1,0c0,0,0,0.1,0,0.1c0,0.1-0.1,0.2-0.4,0.3c-0.2,0.1-0.5,0.2-0.7,0.2
			c-0.2,0-0.4,0-0.6-0.1c-0.3,0-0.4-0.1-0.5-0.1c-0.2,0-0.4,0-0.6,0.1c-0.2,0.1-0.4,0.1-0.5,0.1c0,0-0.1,0-0.1,0c0,0,0-0.1-0.1-0.1
			c0,0,0.1-0.1,0.2-0.1c0.2-0.1,0.3-0.1,0.4-0.2c0.4-0.2,0.9-1,1.4-2.3C126.3,35,126.7,34.2,127,33.5z M120.5,33.4l-1,0.2
			c0,0-0.1,0-0.1,0c0,0-0.1,0-0.1,0c0,0,0,0-0.1,0c0,0,0-0.1,0-0.1c0-0.1,0-0.1,0.1-0.2c0,0,0.1-0.1,0.2-0.1l2.4-0.6l-0.7,1.3
			c0.5-0.5,1-0.9,1.4-1.1c0.4-0.2,0.9-0.4,1.3-0.4c0.4,0,0.7,0.1,0.9,0.3c0.2,0.2,0.3,0.5,0.3,0.8c0,0.3-0.1,0.5-0.2,0.7
			c-0.2,0.2-0.4,0.2-0.6,0.2c-0.1,0-0.3,0-0.4-0.1c-0.1-0.1-0.2-0.2-0.3-0.3c0.2-0.1,0.3-0.2,0.4-0.3c0.1-0.1,0.1-0.2,0.1-0.4
			c0-0.2,0-0.3-0.1-0.4c-0.1-0.1-0.2-0.1-0.4-0.1c-0.3,0-0.7,0.1-1.1,0.4c-0.4,0.2-0.8,0.6-1.2,1c-0.5,0.6-0.9,1.2-1.3,1.9
			c-0.4,0.7-0.5,1.2-0.5,1.4c0,0.1,0,0.3,0.1,0.3c0.1,0.1,0.2,0.1,0.3,0.1c0.1,0,0.3,0,0.5-0.2c0.2-0.1,0.3-0.1,0.3-0.1
			c0,0,0,0,0.1,0c0,0,0,0,0,0.1c0,0.1-0.1,0.2-0.4,0.4c-0.2,0.1-0.5,0.2-0.8,0.2c-0.1,0-0.3,0-0.5-0.1c-0.3-0.1-0.5-0.1-0.7-0.1
			c-0.1,0-0.3,0-0.5,0.1c-0.3,0-0.4,0.1-0.6,0.1c-0.2,0-0.3,0-0.5-0.1c-0.1-0.1-0.2-0.1-0.2-0.2c0,0,0-0.1,0-0.1c0,0,0,0,0.1,0
			c0,0,0.1,0,0.2,0c0.1,0,0.2,0,0.2,0c0.6,0,1-0.4,1.4-1.1c0,0,0-0.1,0-0.1L120.5,33.4z M110.7,36.3c0-1,0.4-1.9,1.1-2.7
			c0.8-0.8,1.7-1.1,2.7-1.1c0.8,0,1.3,0.2,1.8,0.6c0.4,0.4,0.6,1,0.6,1.7c0,1.1-0.4,2-1.1,2.7c-0.8,0.8-1.7,1.1-2.7,1.1
			c-0.7,0-1.3-0.2-1.7-0.7C110.9,37.6,110.7,37,110.7,36.3z M114.7,32.9c-0.7,0-1.4,0.4-2,1.3c-0.6,0.8-0.9,1.7-0.9,2.7
			c0,0.5,0.1,0.8,0.4,1.1c0.2,0.3,0.6,0.4,1,0.4c0.7,0,1.4-0.4,2-1.3c0.6-0.9,0.9-1.7,0.9-2.6c0-0.5-0.1-0.9-0.3-1.1
			C115.4,33,115.1,32.9,114.7,32.9z M109.2,32.7c0.2-0.1,0.4-0.1,0.5-0.2c0.1,0,0.3,0,0.4,0c0.2,0,0.4,0.1,0.6,0.2
			c0.1,0.1,0.2,0.2,0.2,0.4c0,0.1,0,0.3-0.1,0.4c-0.1,0.1-0.2,0.1-0.3,0.1c-0.2,0-0.3-0.1-0.4-0.3c-0.1-0.2-0.2-0.3-0.3-0.3
			c-0.2,0-0.3,0-0.5,0.1c-0.1,0.1-0.3,0.2-0.4,0.4c0,0-0.3,0.7-1,2.2c-0.7,1.5-1.4,2.8-2.2,4c-0.9,1.3-1.8,2.3-2.9,3.1
			c-1.1,0.8-2,1.2-2.6,1.2c0,0-0.1,0-0.1,0c0,0,0-0.1,0-0.1c0,0,0.1-0.1,0.3-0.2c1.3-0.4,2.5-1.3,3.6-2.7c1.2-1.6,2.6-4.4,4.3-8.4
			c0.7-1.6,1.2-2.8,1.6-3.6c0.6-1.2,1.1-2.2,1.7-2.8c0.6-0.6,1.1-0.9,1.7-0.9c0.3,0,0.5,0.1,0.7,0.2c0.2,0.1,0.3,0.3,0.3,0.6
			c0,0.2,0,0.3-0.1,0.4c-0.1,0.1-0.2,0.1-0.3,0.1c-0.1,0-0.2,0-0.3-0.1c-0.1-0.1-0.1-0.1-0.1-0.3c0,0,0-0.1,0-0.2c0-0.1,0-0.1,0-0.1
			c0-0.1,0-0.2-0.1-0.3c0-0.1-0.1-0.1-0.2-0.1c-0.5,0-1.3,1.3-2.4,4C109.9,30.9,109.5,31.9,109.2,32.7z"/>
	</g>
</g>
</svg>
