<?xml version="1.0" encoding="UTF-8"?> <svg xmlns="http://www.w3.org/2000/svg" xmlns:xlink="http://www.w3.org/1999/xlink" width="358px" height="45px" viewBox="0 0 358 45"> <!-- Generator: Sketch 49 (51002) - http://www.bohemiancoding.com/sketch --> <title>Artboard 3</title> <desc>Created with Sketch.</desc> <defs> <polygon id="path-1" points="10.6104 0.442 0.2749 0.442 0.2749 35.6224 10.6104 35.6224"></polygon> </defs> <g id="Artboard-3" stroke="none" stroke-width="1" fill="none" fill-rule="evenodd"> <g id="lite_color"> <path d="M156.81105,15.78565 L155.12505,15.78565 C156.28505,18.29365 157.67955,20.57865 159.29405,22.64515 L159.29205,22.81665 L33.36505,22.81665 L33.36505,24.79815 L159.26905,24.79815 L159.26255,25.36965 C157.82155,26.92065 156.42955,29.20615 155.08005,32.23215 L156.78855,32.23215 C160.08355,28.37265 163.14455,25.76665 165.96755,24.42915 L165.96755,23.40065 C163.36305,22.31715 160.31555,19.77665 156.81105,15.78565" id="Fill-1" fill="#318EFF" fill-rule="nonzero"></path> <path d="M181.49805,32.5991 C179.49955,30.4601 178.50505,27.5961 178.50505,24.0046 C178.50505,20.4156 179.49955,17.5526 181.49805,15.4136 C183.49805,13.2691 186.12455,12.1991 189.37855,12.1991 C190.93755,12.1991 192.37055,12.5311 193.69105,13.1941 C195.01355,13.8586 196.04355,14.7466 196.78555,15.8641 L196.78555,3.7421 L200.57555,3.7421 L200.57555,35.4146 L196.78555,35.4146 L196.78555,32.1476 C196.11505,33.2576 195.09955,34.1476 193.73705,34.8131 C192.37055,35.4751 190.91805,35.8096 189.37855,35.8096 C186.12455,35.8096 183.49805,34.7441 181.49805,32.5991 M184.45255,18.1081 C183.09705,19.6256 182.42155,21.5931 182.42155,24.0046 C182.42155,26.4166 183.09705,28.3856 184.45255,29.9001 C185.81205,31.4296 187.58855,32.1901 189.78505,32.1901 C192.06755,32.1901 193.85655,31.4566 195.13705,29.9831 C196.42105,28.5161 197.06305,26.5181 197.06305,24.0046 C197.06305,21.4951 196.42105,19.4966 195.13705,18.0316 C193.85655,16.5621 192.06755,15.8216 189.78505,15.8216 C187.58855,15.8216 185.81205,16.5846 184.45255,18.1081" id="Fill-3" fill="#FFFFFF" fill-rule="nonzero"></path> <path d="M205.5674,35.41455 L205.5674,12.79755 L209.2029,12.79755 L209.2029,16.17605 C209.8909,14.90405 210.7849,13.91955 211.8919,13.23655 C212.9984,12.54855 214.2824,12.19905 215.7389,12.19905 C216.3504,12.19905 217.1139,12.28055 218.0229,12.44155 L217.9849,16.48605 C217.2404,16.33555 216.4889,16.26505 215.7389,16.26505 C213.4239,16.26505 211.7604,17.02905 210.7464,18.56505 C209.8079,19.98205 209.3334,22.07905 209.3334,24.86555 L209.3334,35.41455 L205.5674,35.41455 Z" id="Fill-5" fill="#FFFFFF" fill-rule="nonzero"></path> <path d="M220.61135,8.9956 C220.03435,8.4076 219.74685,7.6811 219.74685,6.8121 C219.74685,5.9391 220.03435,5.2156 220.61135,4.6261 C221.18935,4.0366 221.89235,3.7421 222.71785,3.7421 C223.54835,3.7421 224.24885,4.0366 224.82935,4.6261 C225.40635,5.2156 225.69485,5.9391 225.69485,6.8121 C225.69485,7.6811 225.40635,8.4076 224.82935,8.9956 C224.24885,9.5856 223.54835,9.8801 222.71785,9.8801 C221.89235,9.8801 221.18935,9.5856 220.61135,8.9956 Z M220.83585,35.4146 L224.60385,35.4146 L224.60385,12.7976 L220.83585,12.7976 L220.83585,35.4146 Z" id="Fill-7" fill="#FFFFFF" fill-rule="nonzero"></path> <polygon id="Fill-9" fill="#FFFFFF" fill-rule="nonzero" points="227.1963 12.79735 231.3288 12.79735 238.3518 30.31185 245.3503 12.79735 249.4793 12.79735 239.8293 35.41435 236.8523 35.41435"></polygon> <path d="M264.0122,31.34275 C262.9317,31.97825 261.6392,32.29825 260.1392,32.29825 C258.1862,32.29825 256.5307,31.66075 255.1707,30.38025 C253.8187,29.09325 253.0952,27.38375 253.0067,25.22875 L270.5877,25.22875 L270.5877,24.06175 C270.5567,20.64375 269.5827,17.81275 267.6607,15.57125 C265.7452,13.32375 263.2367,12.19925 260.1392,12.19925 C258.4837,12.19925 256.9657,12.51875 255.5792,13.15875 C254.1972,13.80125 253.0417,14.66725 252.1212,15.75425 C251.2022,16.84775 250.4902,18.10225 249.9817,19.53475 C249.4742,20.96425 249.2207,22.47025 249.2207,24.06175 C249.2207,27.56475 250.2452,30.41925 252.2932,32.61775 C254.3417,34.82175 256.9587,35.92225 260.1392,35.92225 C262.2097,35.92225 263.9322,35.56775 265.3057,34.85275 C265.5022,34.75125 265.6927,34.63025 265.8842,34.51375 L264.0122,31.34275 Z M255.5902,17.54575 C256.8247,16.39575 258.3432,15.82175 260.1392,15.82175 C261.9082,15.82175 263.3522,16.39575 264.4622,17.53175 C265.5787,18.67625 266.2417,20.20475 266.4557,22.11575 L253.2697,22.11575 C253.5807,20.21575 254.3562,18.69275 255.5902,17.54575 Z" id="Fill-11" fill="#FFFFFF" fill-rule="nonzero"></path> <polygon id="Fill-13" fill="#FFFFFF" fill-rule="nonzero" points="0 12.79735 4.5615 12.79735 11.5395 27.81835 18.389 12.79735 22.372 12.79735 8.1585 44.55785 4.087 44.55785 9.528 32.34035"></polygon> <path d="M23.4121,30.01955 C22.3861,28.19605 21.8721,26.21255 21.8721,24.06205 C21.8721,21.91355 22.3861,19.93105 23.4121,18.10805 C24.4426,16.29205 25.8356,14.85205 27.6001,13.79105 C29.3596,12.73305 31.2866,12.19905 33.3651,12.19905 C35.4481,12.19905 37.3761,12.73305 39.1396,13.79105 C40.9001,14.85205 42.2906,16.29205 43.3226,18.10805 C44.3496,19.93105 44.8606,21.91355 44.8606,24.06205 C44.8606,26.21255 44.3496,28.19605 43.3226,30.01955 C42.2906,31.83405 40.9001,33.27105 39.1396,34.33155 C37.3761,35.39005 35.4481,35.92255 33.3651,35.92255 C31.2866,35.92255 29.3596,35.39005 27.6001,34.33155 C25.8356,33.27105 24.4426,31.83405 23.4121,30.01955 M27.9511,18.29455 C26.5096,19.86005 25.7866,21.77805 25.7866,24.06205 C25.7866,26.34255 26.5096,28.26705 27.9511,29.82655 C29.3946,31.38355 31.1976,32.16605 33.3651,32.16605 C35.5371,32.16605 37.3451,31.38355 38.7851,29.82655 C40.2276,28.26705 40.9451,26.34255 40.9451,24.06205 C40.9451,21.77805 40.2276,19.86005 38.7851,18.29455 C37.3451,16.73705 35.5371,15.95455 33.3651,15.95455 C31.1976,15.95455 29.3946,16.73705 27.9511,18.29455" id="Fill-15" fill="#FFFFFF" fill-rule="nonzero"></path> <path d="M48.20315,26.1411 L48.20315,12.7976 L52.07815,12.7976 L52.07815,26.1411 C52.07815,28.1586 52.44265,29.6831 53.16165,30.7346 C53.87965,31.7796 55.17265,32.2981 57.02515,32.2981 C59.25015,32.2981 60.91365,31.4251 62.01115,29.6746 C62.86865,28.2601 63.29615,26.1466 63.29615,23.3361 L63.29615,12.7976 L67.06665,12.7976 L67.06665,35.4146 L63.42565,35.4146 L63.42565,32.4321 C61.88315,34.7566 59.60915,35.9221 56.59865,35.9221 C53.60215,35.9221 51.45165,35.0721 50.15215,33.3746 C48.85665,31.6721 48.20315,29.2621 48.20315,26.1411" id="Fill-17" fill="#FFFFFF" fill-rule="nonzero"></path> <g id="Group-21" transform="translate(293.000000, 0.058100)"> <g id="Fill-19-Clipped"> <mask id="mask-2" fill="white"> <use xlink:href="#path-1"></use> </mask> <g id="path-1"></g> <path d="M0.2749,0.4419 L4.2499,0.4419 L4.2499,27.4734 C4.2499,30.5044 4.9954,31.8959 6.8839,31.8959 C7.9769,31.8959 8.9709,31.3989 9.7164,30.9019 L10.6104,33.9329 C9.4179,34.8774 7.6789,35.6224 5.3434,35.6224 C1.9644,35.6224 0.2749,33.5854 0.2749,29.2624 L0.2749,0.4419 Z" id="Fill-19" fill="#318EFF" fill-rule="nonzero" mask="url(#mask-2)"></path> </g> </g> <path d="M320.50195,6.7114 L324.47745,6.7114 L324.47745,12.9224 L332.67645,12.9224 L332.67645,16.6494 L324.47745,16.6494 L324.47745,26.3884 C324.47745,29.9164 325.61995,31.9539 328.45245,31.9539 C329.99295,31.9539 331.18545,31.3079 331.98045,30.7119 L333.22245,33.7924 C332.03045,34.7859 329.99295,35.6804 327.50845,35.6804 C322.48995,35.6804 320.50195,32.5004 320.50195,26.7859 L320.50195,6.7114 Z" id="Fill-22" fill="#318EFF" fill-rule="nonzero"></path> <path d="M308.7158,8.9956 C308.1388,8.4076 307.8513,7.6811 307.8513,6.8121 C307.8513,5.9391 308.1388,5.2156 308.7158,4.6261 C309.2938,4.0366 309.9968,3.7421 310.8223,3.7421 C311.6528,3.7421 312.3533,4.0366 312.9338,4.6261 C313.5108,5.2156 313.7993,5.9391 313.7993,6.8121 C313.7993,7.6811 313.5108,8.4076 312.9338,8.9956 C312.3533,9.5856 311.6528,9.8801 310.8223,9.8801 C309.9968,9.8801 309.2938,9.5856 308.7158,8.9956 Z M308.9403,35.4146 L312.7083,35.4146 L312.7083,12.7976 L308.9403,12.7976 L308.9403,35.4146 Z" id="Fill-24" fill="#318EFF" fill-rule="nonzero"></path> <path d="M351.21825,31.34275 C350.13775,31.97825 348.84525,32.29825 347.34525,32.29825 C345.39225,32.29825 343.73675,31.66075 342.37675,30.38025 C341.02475,29.09325 340.30125,27.38375 340.21275,25.22875 L357.79375,25.22875 L357.79375,24.06175 C357.76275,20.64375 356.78875,17.81275 354.86675,15.57125 C352.95125,13.32375 350.44275,12.19925 347.34525,12.19925 C345.68975,12.19925 344.17175,12.51875 342.78525,13.15875 C341.40325,13.80125 340.24775,14.66725 339.32725,15.75425 C338.40825,16.84775 337.69625,18.10225 337.18775,19.53475 C336.68025,20.96425 336.42675,22.47025 336.42675,24.06175 C336.42675,27.56475 337.45125,30.41925 339.49925,32.61775 C341.54775,34.82175 344.16475,35.92225 347.34525,35.92225 C349.41575,35.92225 351.13825,35.56775 352.51175,34.85275 C352.70825,34.75125 352.89875,34.63025 353.09025,34.51375 L351.21825,31.34275 Z M342.79625,17.54575 C344.03075,16.39575 345.54925,15.82175 347.34525,15.82175 C349.11425,15.82175 350.55825,16.39575 351.66825,17.53175 C352.78475,18.67625 353.44775,20.20475 353.66175,22.11575 L340.47575,22.11575 C340.78675,20.21575 341.56225,18.69275 342.79625,17.54575 Z" id="Fill-26" fill="#318EFF" fill-rule="nonzero"></path> </g> </g> </svg> 