<svg width="93" height="94" viewBox="0 0 93 94" fill="none" xmlns="http://www.w3.org/2000/svg">
<path d="M90.0088 46.9251C90.0088 71.4719 70.396 91.3773 46.21 91.3773C22.024 91.3773 2.41113 71.4719 2.41113 46.9251C2.41113 22.3783 22.024 2.4729 46.21 2.4729C70.396 2.4729 90.0088 22.3783 90.0088 46.9251Z" fill="white"/>
<path d="M46.2099 93.5134C20.895 93.5134 0.287109 72.5981 0.287109 46.9055C0.287109 21.213 20.895 0.317139 46.2099 0.317139C71.5248 0.317139 92.1327 21.213 92.1327 46.925C92.1327 72.6369 71.5248 93.5134 46.2099 93.5134ZM46.2099 4.62836C23.2294 4.62836 4.53497 23.6016 4.53497 46.925C4.53497 70.2483 23.2294 89.2216 46.2099 89.2216C69.1904 89.2216 87.8848 70.2483 87.8848 46.925C87.8848 23.6016 69.1904 4.62836 46.2099 4.62836Z" fill="#234083"/>
<path d="M82.0676 46.9249C82.0676 67.0246 66.0138 83.3179 46.2096 83.3179C26.4054 83.3179 10.3516 67.0246 10.3516 46.9249C10.3516 26.8253 26.4054 10.532 46.2096 10.532C66.0138 10.532 82.0676 26.8253 82.0676 46.9249Z" fill="white"/>
<path d="M46.2101 85.3959C25.2961 85.3959 8.30469 68.1315 8.30469 46.925C8.30469 25.699 25.2961 8.4541 46.2101 8.4541C67.1241 8.4541 84.1155 25.699 84.1155 46.925C84.1155 68.1315 67.105 85.3959 46.2101 85.3959ZM46.2101 12.61C27.5731 12.61 12.3995 27.9905 12.3995 46.925C12.3995 65.8594 27.5731 81.24 46.2101 81.24C64.8471 81.24 80.0208 65.84 80.0208 46.925C80.0208 28.01 64.8471 12.61 46.2101 12.61Z" fill="#1EA5DE"/>
<path opacity="0.55" d="M79.2749 46.8085C79.1792 43.0605 74.7209 38.4579 70.0712 37.351C62.9914 35.7197 55.8351 34.3021 48.6214 33.0786C41.4077 31.8552 34.1749 30.8453 26.942 30.0685C22.2158 29.6024 16.5137 32.4766 15.2317 36.011C13.7966 40.1669 13.0887 44.517 13.1078 48.9447C13.2035 52.6927 17.6618 57.2953 22.3115 58.4022C25.8896 59.2178 29.4869 59.9946 33.1033 60.7132C34.615 61.0239 36.1266 60.4219 36.758 59.2567C37.3895 58.1303 38.8246 57.5283 40.317 57.7808L48.5831 59.179C50.0756 59.4314 51.2428 60.4801 51.4725 61.7424C51.7021 63.0436 52.9458 64.1117 54.4766 64.3253C58.1313 64.8302 61.7859 65.2963 65.4215 65.6847C70.1669 66.1507 75.8498 63.2766 77.1509 59.7422C78.6052 55.5863 79.3131 51.2168 79.2749 46.8085Z" fill="#46ADDE"/>
<path d="M62.5708 68.0735C49.655 66.85 36.8731 64.6944 24.2635 61.6067C19.7286 60.4415 15.2703 55.1593 15.3277 50.1683C15.4616 45.1968 16.2462 40.3224 17.7195 35.5645C19.2503 30.8261 25.1437 27.2917 29.8125 27.6801C42.7283 28.9035 55.5101 31.0591 68.1198 34.1469C72.6546 35.3121 77.113 40.5943 77.0556 45.5852C76.9216 50.5567 76.1371 55.4311 74.6638 60.189C73.133 64.9275 67.2396 68.4619 62.5708 68.0735Z" fill="#234083"/>
<path d="M73.8603 45.8765C73.8985 42.1479 70.2821 37.7007 66.4361 36.7103C60.5809 35.2926 54.6301 34.0692 48.641 33.0593C42.6519 32.0495 36.6437 31.2533 30.6163 30.6707C26.6746 30.3405 21.8336 33.37 20.6664 36.9045C19.3652 41.0992 18.6573 45.4492 18.5616 49.8576C18.5425 53.5862 22.1397 58.0334 25.9858 59.0238C28.9516 59.7423 31.9366 60.4026 34.9216 61.024C36.1845 61.2765 37.4473 60.6356 38.0214 59.4704C38.5763 58.3247 39.8009 57.7032 41.0255 57.8974L47.8756 59.0626C49.1194 59.2762 50.057 60.2666 50.2292 61.5289C50.4014 62.8301 51.3964 63.8399 52.6593 64.0147C55.7016 64.4225 58.7249 64.7721 61.7673 65.0634C65.709 65.3935 70.55 62.364 71.7172 58.8296C73.0375 54.6543 73.7646 50.2848 73.8603 45.8765Z" fill="#83CCF0"/>
<path d="M56.8543 29.872L41.8682 27.3386L41.5726 29.1393L56.5588 31.6727L56.8543 29.872Z" fill="#46ADDE"/>
<path opacity="0.5" d="M47.0141 30.0495L44.6797 29.6417L47.0332 28.2046L49.3676 28.593L47.0141 30.0495Z" fill="white"/>
<path opacity="0.5" d="M48.7943 30.3407L47.9141 30.1854L50.2485 28.7483L51.1287 28.9037L48.7943 30.3407Z" fill="white"/>
<g opacity="0.66">
<path opacity="0.5" d="M66.4345 36.7298C65.2673 36.4385 64.0809 36.1667 62.9137 35.8948L32.0498 60.4027C33.0065 60.6163 33.9633 60.8105 34.92 61.0047C36.1829 61.2572 37.4457 60.6163 38.0198 59.4512C38.5747 58.3054 39.7993 57.6839 41.0239 57.8781L47.5487 58.9851L71.3903 40.0506C70.0509 38.4582 68.2714 37.1959 66.4345 36.7298Z" fill="white"/>
<path opacity="0.5" d="M25.9847 59.0046C27.0563 59.2571 28.1469 59.5095 29.2185 59.762L60.0633 35.2734C56.2746 34.4578 52.4669 33.7199 48.64 33.079C46.1908 32.6712 43.7415 32.2828 41.2732 31.9526L18.5605 49.9743C18.618 53.6835 22.177 58.053 25.9847 59.0046Z" fill="white"/>
</g>
<path d="M50.7449 38.3803L44.8324 37.3705C44.2392 37.2734 43.8374 36.7102 43.933 36.1082C44.0287 35.5062 44.5836 35.0983 45.1768 35.1954L51.0893 36.2053C51.6825 36.3024 52.0843 36.8656 51.9886 37.4676C51.893 38.0696 51.3381 38.4774 50.7449 38.3803Z" fill="white"/>
<path d="M49.1377 39.4874L45.9805 38.9437C45.8466 38.9243 45.7509 38.7883 45.77 38.6524C45.7892 38.5164 45.9231 38.4193 46.057 38.4388L49.2142 38.9825C49.3482 39.0019 49.4438 39.1379 49.4247 39.2738C49.4056 39.4292 49.2716 39.5069 49.1377 39.4874Z" fill="white"/>
<path opacity="0.5" d="M17.9683 42.8076C18.7336 42.9435 19.4607 42.4192 19.5947 41.6618C19.92 39.9723 20.3409 38.3022 20.8576 36.6515C22.0248 33.0976 26.8658 30.0681 30.8075 30.4177C34.1369 30.7478 37.4854 31.1362 40.8148 31.5829C41.5802 31.68 42.2882 31.1556 42.4221 30.3788C42.5561 29.5632 42.0012 28.8058 41.1975 28.7087C37.4854 28.2038 33.7542 27.7572 30.023 27.4076C25.3542 27.0192 19.4607 30.5536 17.93 35.2921C17.3368 37.1952 16.8585 39.0984 16.4949 41.0404C16.3418 41.8366 16.8776 42.6134 17.6621 42.7493L17.9683 42.8076Z" fill="#E0E3AD"/>
</svg>
