<svg width="25" height="25" viewBox="0 0 25 25" fill="none" xmlns="http://www.w3.org/2000/svg">
<g clip-path="url(#clip0_3467_3120)">
<path d="M6.74305 21.7138C7.49257 22.4633 8.70924 22.4633 9.45876 21.7138L18.7558 12.4167C19.0228 12.1498 19.2281 11.8315 19.3616 11.4927C20.2959 11.7545 21.2046 11.8931 22.0054 11.888C23.987 11.8777 24.6441 11.0101 24.8597 10.4916C25.0753 9.97825 25.2293 8.90018 23.8381 7.48329C23.8227 7.46789 23.8073 7.45249 23.7919 7.43709C22.9295 6.57463 21.6769 5.77892 20.2548 5.18854C19.993 5.08074 19.7312 4.9832 19.4745 4.89079V4.87539C19.4591 3.73572 18.5402 2.81679 17.4005 2.80139L11.8305 2.72439C11.0913 2.71412 10.3828 3.0016 9.86432 3.52524L0.562135 12.8223C-0.187378 13.5718 -0.187378 14.7885 0.562135 15.538L6.74305 21.7138ZM13.9096 6.051C14.5308 5.42983 15.537 5.42983 16.1582 6.051C16.5278 6.42062 16.6767 6.92886 16.6048 7.40629C17.2157 7.83751 17.9447 8.23794 18.725 8.56136C19.0022 8.6743 19.2692 8.77697 19.5259 8.86425L19.4951 6.62597C19.5413 6.6465 19.5823 6.66191 19.6285 6.68244C20.8452 7.19067 21.9387 7.87858 22.642 8.5819C22.6522 8.59216 22.6625 8.60243 22.6728 8.6127C23.3402 9.29547 23.412 9.73184 23.3556 9.86531C23.181 10.2811 21.3072 10.6508 18.4632 9.46489C17.6315 9.1158 16.8512 8.68457 16.2198 8.21741C16.1992 8.24307 16.1736 8.26874 16.153 8.29441C15.5319 8.91558 14.5257 8.91558 13.9045 8.29441C13.2885 7.67837 13.2885 6.67217 13.9096 6.051Z" fill="white"/>
</g>
<defs>
<clipPath id="clip0_3467_3120">
<rect width="25" height="25" fill="white"/>
</clipPath>
</defs>
</svg>
