<svg width="17" height="17" viewBox="0 0 17 17" fill="none" xmlns="http://www.w3.org/2000/svg">
<path fill-rule="evenodd" clip-rule="evenodd" d="M16.55 16.4248H13.4731V10.8215C13.4731 9.28441 12.8216 8.42699 11.6531 8.42699C10.3816 8.42699 9.62697 9.32044 9.62697 10.8215V16.4248H6.55005V6.01724H9.62697V7.18769C9.62697 7.18769 10.5924 5.4248 12.7677 5.4248C14.9439 5.4248 16.55 6.80661 16.55 9.66629C16.55 12.5252 16.55 16.4248 16.55 16.4248Z" fill="white"/>
<path fill-rule="evenodd" clip-rule="evenodd" d="M2.05036 3.4248C1.22156 3.4248 0.550049 2.75299 0.550049 1.9245C0.550049 1.09662 1.22156 0.424805 2.05036 0.424805C2.87854 0.424805 3.55005 1.09662 3.55005 1.9245C3.55066 2.75299 2.87854 3.4248 2.05036 3.4248Z" fill="white"/>
<path fill-rule="evenodd" clip-rule="evenodd" d="M0.550049 16.4248H3.55005V6.4248H0.550049V16.4248Z" fill="white"/>
</svg>
