<?xml version="1.0" encoding="utf-8"?>
<!-- Generator: Adobe Illustrator 22.1.0, SVG Export Plug-In . SVG Version: 6.00 Build 0)  -->
<svg version="1.1" id="Layer_1" xmlns="http://www.w3.org/2000/svg" xmlns:xlink="http://www.w3.org/1999/xlink" x="0px" y="0px"
	 viewBox="0 0 446 159" style="enable-background:new 0 0 446 159;" xml:space="preserve">
<style type="text/css">
	.st0{fill:#EF4625;}
</style>
<g>
	<g>
		<g>
			<g>
				<path class="st0" d="M141.9,82.5c0-1.5-0.5-2.7-1.6-3.6c-1.1-0.9-3-1.7-5.7-2.6c-2.7-0.9-4.9-1.8-6.6-2.6
					c-5.6-2.7-8.4-6.5-8.4-11.3c0-2.4,0.7-4.5,2.1-6.3c1.4-1.8,3.4-3.3,5.9-4.3c2.6-1,5.4-1.5,8.6-1.5c3.1,0,5.9,0.6,8.4,1.7
					c2.5,1.1,4.4,2.7,5.7,4.7s2,4.4,2,7h-10.4c0-1.8-0.5-3.1-1.6-4.1c-1.1-1-2.5-1.5-4.4-1.5c-1.9,0-3.3,0.4-4.4,1.2
					c-1.1,0.8-1.6,1.9-1.6,3.1c0,1.1,0.6,2.1,1.8,3c1.2,0.9,3.3,1.8,6.3,2.8c3,1,5.4,2,7.4,3.1c4.7,2.7,7,6.4,7,11.1
					c0,3.8-1.4,6.7-4.3,8.9c-2.8,2.2-6.8,3.2-11.7,3.2c-3.5,0-6.7-0.6-9.5-1.9c-2.8-1.3-5-3-6.4-5.2c-1.4-2.2-2.2-4.7-2.2-7.6h10.4
					c0,2.3,0.6,4,1.8,5.1c1.2,1.1,3.1,1.6,5.8,1.6c1.7,0,3.1-0.4,4.1-1.1c0.9-0.7,1.4-1.6,1.5-2.8C141.9,82.7,141.9,82.6,141.9,82.5
					z"/>
				<path class="st0" d="M167.9,61.8l0.3,3.8c2.3-2.9,5.3-4.4,9.2-4.4c4.1,0,6.8,1.6,8.2,4.8c2.2-3.2,5.3-4.8,9.4-4.8
					c6.5,0,9.9,3.9,10,11.8v20.9h-10V73.7c0-1.6-0.3-2.8-0.8-3.6c-0.6-0.8-1.6-1.1-3-1.1c-2,0-3.5,0.9-4.4,2.6l0,0.4v21.9h-10V73.7
					c0-1.7-0.3-2.9-0.8-3.7c-0.5-0.8-1.6-1.1-3.1-1.1c-1.9,0-3.4,0.9-4.4,2.6v22.3h-10V61.8H167.9z"/>
				<path class="st0" d="M230.1,93.9c-0.4-0.7-0.7-1.6-0.9-2.9c-1.8,2.3-4.4,3.5-7.7,3.5c-3,0-5.6-0.9-7.7-2.7
					c-2.1-1.8-3.2-4.1-3.2-6.9c0-3.5,1.3-6.1,3.9-7.9c2.6-1.8,6.3-2.7,11.2-2.7h3.1v-1.7c0-3-1.3-4.4-3.8-4.4
					c-2.4,0-3.6,1.2-3.6,3.5h-10c0-3.1,1.3-5.6,4-7.6c2.6-1.9,6-2.9,10.1-2.9c4.1,0,7.3,1,9.7,3c2.4,2,3.6,4.7,3.7,8.2v14.2
					c0,2.9,0.5,5.2,1.4,6.8v0.5H230.1z M223.8,87.4c1.2,0,2.3-0.3,3.1-0.8c0.8-0.5,1.4-1.1,1.8-1.8v-5.1h-2.9
					c-3.5,0-5.2,1.6-5.2,4.7c0,0.9,0.3,1.6,0.9,2.2C222.1,87.1,222.8,87.4,223.8,87.4z"/>
				<path class="st0" d="M264.9,70.9l-3.3-0.2c-3.1,0-5.2,1-6.1,3v20.3h-10V61.8h9.4l0.3,4.1c1.7-3.1,4-4.7,7-4.7
					c1.1,0,2,0.1,2.8,0.4L264.9,70.9z"/>
				<path class="st0" d="M282.8,53.8v8h5.3v6.9h-5.3v14.7c0,1.2,0.2,2,0.7,2.5c0.4,0.5,1.3,0.7,2.6,0.7c1,0,1.8-0.1,2.5-0.2v7.2
					c-1.8,0.6-3.7,0.9-5.6,0.9c-3.4,0-6-0.8-7.6-2.4c-1.6-1.6-2.5-4.1-2.5-7.4V68.8h-4.1v-6.9h4.1v-8H282.8z"/>
			</g>
			<g>
				<g>
					<path class="st0" d="M330.4,80.2c-0.5,4.6-2.2,8.1-5.1,10.6c-2.8,2.5-6.6,3.7-11.3,3.7c-5.1,0-9.2-1.8-12.3-5.5
						c-3.1-3.7-4.6-8.6-4.6-14.7v-4.2c0-4,0.7-7.5,2.2-10.6c1.4-3,3.5-5.4,6.1-7c2.6-1.6,5.7-2.4,9.1-2.4c4.6,0,8.3,1.3,11,3.8
						c2.8,2.6,4.4,6.1,4.8,10.6h-5.7c-0.5-3.5-1.6-6-3.2-7.5c-1.7-1.5-4-2.3-6.9-2.3c-3.6,0-6.5,1.3-8.6,4
						c-2.1,2.7-3.1,6.5-3.1,11.5v4.2c0,4.7,1,8.4,2.9,11.2c2,2.8,4.7,4.2,8.2,4.2c3.2,0,5.6-0.7,7.3-2.2c1.7-1.4,2.8-3.9,3.4-7.5
						H330.4z"/>
					<path class="st0" d="M343.2,93.9h-5.5V48.4h5.5V93.9z"/>
					<path class="st0" d="M352,53.3c0-0.9,0.3-1.6,0.8-2.3c0.5-0.6,1.4-0.9,2.4-0.9s1.9,0.3,2.4,0.9c0.6,0.6,0.8,1.4,0.8,2.3
						c0,0.9-0.3,1.6-0.8,2.2c-0.6,0.6-1.4,0.9-2.4,0.9s-1.9-0.3-2.4-0.9C352.3,54.9,352,54.2,352,53.3z M358,93.9h-5.5V61.8h5.5
						V93.9z"/>
					<path class="st0" d="M379.6,90c2,0,3.7-0.6,5.1-1.8c1.5-1.2,2.3-2.7,2.4-4.5h5.2c-0.1,1.8-0.7,3.6-1.9,5.3
						c-1.2,1.7-2.7,3-4.7,4c-1.9,1-4,1.5-6.2,1.5c-4.4,0-7.8-1.5-10.4-4.4c-2.6-2.9-3.9-6.9-3.9-12v-0.9c0-3.1,0.6-5.9,1.7-8.3
						s2.8-4.3,4.9-5.7c2.1-1.3,4.7-2,7.6-2c3.6,0,6.6,1.1,9,3.2c2.4,2.2,3.7,5,3.8,8.4h-5.2c-0.2-2.1-0.9-3.8-2.4-5.1
						c-1.4-1.3-3.2-2-5.2-2c-2.8,0-5,1-6.5,3c-1.5,2-2.3,4.9-2.3,8.7v1c0,3.7,0.8,6.5,2.3,8.5C374.6,89.1,376.8,90,379.6,90z"/>
					<path class="st0" d="M407.5,79.1l-3.4,3.6v11.3h-5.5V48.4h5.5v27.6l2.9-3.5l10-10.6h6.7l-12.5,13.4l13.9,18.7h-6.4L407.5,79.1z
						"/>
				</g>
			</g>
		</g>
	</g>
	<g>
		<g>
			<path class="st0" d="M64.7,134H42c-1,0-1.8-0.8-1.8-1.8c0-1,0.8-1.8,1.8-1.8h22.7c1,0,1.8,0.8,1.8,1.8
				C66.5,133.2,65.7,134,64.7,134z"/>
		</g>
		<g>
			<path class="st0" d="M61,140.1H45.7c-1,0-1.8-0.8-1.8-1.8c0-1,0.8-1.8,1.8-1.8H61c1,0,1.8,0.8,1.8,1.8
				C62.8,139.3,62,140.1,61,140.1z"/>
		</g>
		<g>
			<path class="st0" d="M93.3,70.4c0-3.1-2.5-5.6-5.6-5.6S82,67.3,82,70.4c0,0.8,0.2,1.6,0.5,2.2l-7.9,4.9c-0.7-0.7-1.7-1.2-2.8-1.2
				c-2.2,0-4,1.8-4,4s1.8,4,4,4c0.3,0,0.7-0.1,1-0.1l1.6,6.2c-1.5,1-2.5,2.7-2.5,4.7c0,3.1,2.5,5.6,5.6,5.6s5.6-2.5,5.6-5.6
				s-2.5-5.6-5.6-5.6c-0.7,0-1.3,0.1-1.9,0.3L74,83.5c1-0.7,1.7-1.9,1.7-3.3c0-0.6-0.1-1.1-0.4-1.6l7.8-4.8c0.9,1.2,2.2,2,3.8,2.2
				l-1.5,6.3c-1.1,0.1-2,1-2,2.2c0,1.2,1,2.2,2.2,2.2c1.2,0,2.2-1,2.2-2.2c0-0.8-0.4-1.5-1.1-1.9l1.6-6.6
				C91.1,75.7,93.3,73.3,93.3,70.4z"/>
			<path class="st0" d="M71.9,105.8c-0.3,0-0.6,0-0.9,0.1l-2-3.8c0.5-0.4,0.8-1,0.8-1.7c0-1.2-1-2.2-2.2-2.2s-2.2,1-2.2,2.2
				c0,0.1,0,0.1,0,0.2l-4.3,1.5c-0.7-0.8-1.7-1.2-2.9-1.2c-1.2,0-2.2,0.5-3,1.3l-3.5-0.5c-0.2-1.1-1.1-1.9-2.2-1.9
				c-1.2,0-2.2,1-2.2,2.2c0,0.1,0,0.1,0,0.2l-6.2,2.1c-1-1-2.4-1.6-4-1.6c-3.1,0-5.6,2.5-5.6,5.6s2.5,5.6,5.6,5.6
				c0.3,0,0.5,0,0.8-0.1l2.6,8.5c-0.6,0.4-1,1.1-1,1.9c0,1.2,1,2.2,2.2,2.2s2.2-1,2.2-2.2c0-1.2-0.9-2.2-2.1-2.2l-2.6-8.5
				c2.1-0.8,3.5-2.9,3.5-5.2c0-1.1-0.3-2-0.8-2.9l5.8-2c0.4,0.5,1,0.8,1.7,0.8c0.9,0,1.6-0.5,2-1.2l3,0.4c-0.2,0.4-0.3,0.9-0.3,1.4
				c0,1.6,0.9,2.9,2.2,3.5l-2.5,10c-1.1,0.1-2,1-2,2.2c0,1.2,1,2.2,2.2,2.2s2.2-1,2.2-2.2c0-0.8-0.4-1.5-1.1-1.9l2.4-9.9
				c0.1,0,0.3,0,0.4,0c2.2,0,4-1.8,4-4c0-0.6-0.1-1.1-0.3-1.6l4-1.4c0.4,0.5,1,0.8,1.7,0.8c0.1,0,0.1,0,0.1,0l2,3.8
				c-1.1,0.7-1.8,1.9-1.8,3.3c0,1.1,0.4,2,1.1,2.7l-3.3,2.4c-0.3-0.2-0.8-0.4-1.2-0.4c-1.2,0-2.2,1-2.2,2.2c0,1.1,0.8,2,1.9,2.2
				l0.4,3.3c-0.8,0.3-1.4,1.1-1.4,2.1c0,1.2,1,2.2,2.2,2.2c1.2,0,2.2-1,2.2-2.2c0-1-0.7-1.9-1.7-2.1l-0.4-3.4c0.7-0.4,1.2-1.1,1.2-2
				c0-0.3-0.1-0.5-0.2-0.8l3.6-2.6c0.5,0.3,1.1,0.4,1.7,0.4c2.2,0,4-1.8,4-4S74.1,105.8,71.9,105.8z"/>
			<path class="st0" d="M71,58.3l1.8,7.1c-0.5,0.3-0.9,0.8-1,1.4H59.6c-0.4-1.7-2-3.1-3.8-3.1c-2.2,0-4,1.8-4,4c0,2.2,1.8,4,4,4
				c0.9,0,1.7-0.3,2.4-0.8l3.6,2.4c-0.1,0.2-0.1,0.5-0.1,0.8c0,1.2,1,2.2,2.2,2.2s2.2-1,2.2-2.2s-1-2.2-2.2-2.2
				c-0.5,0-0.9,0.1-1.2,0.4l-3.5-2.4c0.3-0.5,0.5-1.1,0.6-1.7h12.2c0.3,0.8,1.1,1.3,2,1.3c1.2,0,2.2-1,2.2-2.2c0-1.2-0.9-2.1-2-2.2
				l-1.7-6.8c0.9-0.3,1.5-1.1,1.5-2.1c0-0.8-0.5-1.5-1.1-1.9l1.5-5.1c1.3,1.2,3,1.9,4.8,1.9c1.6,0,3.1-0.6,4.3-1.5l3.7,6.3
				c-0.4,0.4-0.6,1-0.6,1.6c0,1.2,1,2.2,2.2,2.2s2.2-1,2.2-2.2c0-1.2-1-2.2-2.2-2.2c-0.1,0-0.2,0-0.4,0l-3.9-6.7
				c1-1.2,1.7-2.8,1.7-4.6c0-3.9-3.1-7-7-7c-3.9,0-7,3.1-7,7c0,1.4,0.4,2.7,1.1,3.8l-1.8,6c-1.1,0.1-2,1.1-2,2.2
				C69.4,57.2,70.1,58,71,58.3z"/>
			<path class="st0" d="M33.7,98.6c0-1.2-0.9-2.2-2.1-2.2l-1.9-5.6c0,0,0,0,0,0c1.5,0,2.8-0.4,3.9-1.2l4.2,4.8
				c-0.2,0.3-0.3,0.7-0.3,1.1c0,1.2,1,2.2,2.2,2.2c1.2,0,2.2-1,2.2-2.2s-1-2.2-2.2-2.2c-0.3,0-0.6,0.1-0.9,0.2l-4.2-4.8
				c0.7-0.7,1.2-1.5,1.6-2.5h9c0.4,0.3,0.8,0.5,1.3,0.5c0.6,0,1.1-0.2,1.6-0.6l3.9,1.7c-0.1,0.3-0.2,0.7-0.2,1.1c0,2.2,1.8,4,4,4
				s4-1.8,4-4s-1.8-4-4-4c-1.3,0-2.5,0.7-3.2,1.7l-3.8-1.7c0-0.1,0-0.2,0-0.4c0-1.2-1-2.2-2.2-2.2c-0.2,0-0.5,0-0.7,0.1l-7.1-12.2
				c0.8-0.7,1.3-1.8,1.3-3c0-1.2-0.5-2.2-1.3-2.9l6-7.3c0.3,0.1,0.6,0.2,1,0.2c1.2,0,2.2-1,2.2-2.2c0-0.1,0-0.1,0-0.2l7.9-1.3
				c0.2,1,1.1,1.8,2.2,1.8c1.2,0,2.2-1,2.2-2.2c0-0.7-0.3-1.2-0.7-1.6l4.8-16.8c0.1,0,0.2,0,0.2,0c1.2,0,2.2-1,2.2-2.2
				c0-1.2-1-2.2-2.2-2.2c-1.2,0-2.2,1-2.2,2.2c0,0.7,0.3,1.2,0.7,1.6l-4.8,16.8c-0.1,0-0.2,0-0.2,0c-0.9,0-1.6,0.5-2,1.3l-8.6,1.4
				c-0.4-0.5-1-0.8-1.7-0.8c-0.2,0-0.4,0-0.6,0.1l-8.5-12.4c0.3-0.4,0.4-0.8,0.4-1.3c0-0.2,0-0.3,0-0.5l7.2-4.1
				c0.8,2.1,2.9,3.5,5.2,3.5c3.1,0,5.6-2.5,5.6-5.6c0-3.1-2.5-5.6-5.6-5.6c-3.1,0-5.6,2.5-5.6,5.6c0,0.3,0,0.5,0.1,0.8l-7.5,4.2
				c-0.4-0.4-0.9-0.6-1.5-0.6c-1.2,0-2.2,1-2.2,2.2c0,0.4,0.1,0.8,0.3,1.1l-5.7,6.3c-0.4-0.1-0.7-0.1-1.1-0.1c-3.9,0-7,3.1-7,7
				c0,2.4,1.2,4.5,3.1,5.8l-1.4,10.1c-1,0.2-1.7,1.1-1.7,2.2c0,1.2,1,2.2,2.2,2.2s2.2-1,2.2-2.2c0-0.9-0.6-1.7-1.4-2.1l1.3-9.5
				c0.8,0.3,1.7,0.5,2.7,0.5c3.9,0,7-3.1,7-7c0-3-1.8-5.5-4.4-6.5l5.2-5.8c0.3,0.1,0.6,0.2,0.9,0.2c0.2,0,0.5,0,0.7-0.1L44,53.6
				c-0.3,0.4-0.5,0.9-0.5,1.4c0,0.4,0.1,0.7,0.3,1l-6.2,7.5c-0.5-0.2-1-0.3-1.5-0.3c-2.2,0-4,1.8-4,4c0,2.2,1.8,4,4,4
				c0.5,0,1-0.1,1.5-0.3l7.2,12.3c-0.3,0.4-0.4,0.8-0.4,1.3c0,0.1,0,0.3,0,0.4h-7.8c0.1-0.4,0.1-0.7,0.1-1.1c0-3.9-3.1-7-7-7
				s-7,3.1-7,7c0,3.3,2.3,6.1,5.5,6.8l2.1,6.2c-0.6,0.4-1,1.1-1,1.9c0,1.2,1,2.2,2.2,2.2C32.7,100.8,33.7,99.8,33.7,98.6z"/>
		</g>
	</g>
	<g>
		<path class="st0" d="M135.1,113.7l0.2,1.4l0,0l0.3-1.5l2.1-7.6h1.4l2.1,7.6l0.3,1.5h0l0.2-1.5l1.7-7.6h1.6l-2.8,11.6H141l-2.3-8
			l-0.2-1h0l-0.2,1l-2.3,8h-1.4l-2.8-11.6h1.6L135.1,113.7z"/>
		<path class="st0" d="M148.4,110.2c0.3-0.4,0.7-0.7,1.1-1s0.9-0.3,1.4-0.3c0.9,0,1.6,0.3,2.1,0.8c0.5,0.6,0.8,1.4,0.8,2.5v5.4h-1.6
			v-5.4c0-0.7-0.2-1.2-0.5-1.6c-0.3-0.3-0.8-0.5-1.4-0.5c-0.4,0-0.8,0.1-1.2,0.3c-0.4,0.2-0.6,0.5-0.9,0.8v6.4h-1.6v-12.4h1.6V110.2
			z"/>
		<path class="st0" d="M159.7,117.9c-1.2,0-2.2-0.4-2.9-1.2s-1.1-1.8-1.1-3.1v-0.4c0-1.2,0.4-2.2,1.1-3.1c0.7-0.8,1.6-1.2,2.6-1.2
			c1.2,0,2,0.4,2.6,1.1c0.6,0.7,0.9,1.6,0.9,2.8v1h-5.6l0,0c0,0.8,0.2,1.5,0.6,2s1,0.8,1.7,0.8c0.5,0,1-0.1,1.4-0.2
			c0.4-0.2,0.7-0.4,1-0.6l0.6,1c-0.3,0.3-0.7,0.6-1.2,0.8C161,117.8,160.4,117.9,159.7,117.9z M159.5,110.1c-0.5,0-1,0.2-1.3,0.7
			c-0.4,0.4-0.6,1-0.7,1.7l0,0h4v-0.2c0-0.6-0.2-1.1-0.5-1.5S160.1,110.1,159.5,110.1z"/>
		<path class="st0" d="M168.8,110.5l-0.8,0c-0.4,0-0.8,0.1-1,0.3c-0.3,0.2-0.5,0.5-0.7,0.8v6.2h-1.6v-8.6h1.4l0.2,1.3
			c0.2-0.4,0.5-0.8,0.9-1c0.4-0.2,0.8-0.4,1.2-0.4c0.1,0,0.2,0,0.3,0s0.2,0,0.3,0.1L168.8,110.5z"/>
		<path class="st0" d="M173.8,117.9c-1.2,0-2.2-0.4-2.9-1.2s-1.1-1.8-1.1-3.1v-0.4c0-1.2,0.4-2.2,1.1-3.1c0.7-0.8,1.6-1.2,2.6-1.2
			c1.2,0,2,0.4,2.6,1.1c0.6,0.7,0.9,1.6,0.9,2.8v1h-5.6l0,0c0,0.8,0.2,1.5,0.6,2s1,0.8,1.7,0.8c0.5,0,1-0.1,1.4-0.2
			c0.4-0.2,0.7-0.4,1-0.6l0.6,1c-0.3,0.3-0.7,0.6-1.2,0.8C175.1,117.8,174.5,117.9,173.8,117.9z M173.5,110.1c-0.5,0-1,0.2-1.3,0.7
			c-0.4,0.4-0.6,1-0.7,1.7l0,0h4v-0.2c0-0.6-0.2-1.1-0.5-1.5S174.2,110.1,173.5,110.1z"/>
		<path class="st0" d="M191,107.3h-3.7v10.4h-1.6v-10.4H182v-1.2h9V107.3z"/>
		<path class="st0" d="M195.3,117.9c-1.2,0-2.2-0.4-2.9-1.2s-1.1-1.8-1.1-3.1v-0.4c0-1.2,0.4-2.2,1.1-3.1c0.7-0.8,1.6-1.2,2.6-1.2
			c1.2,0,2,0.4,2.6,1.1c0.6,0.7,0.9,1.6,0.9,2.8v1H193l0,0c0,0.8,0.2,1.5,0.6,2s1,0.8,1.7,0.8c0.5,0,1-0.1,1.4-0.2
			c0.4-0.2,0.7-0.4,1-0.6l0.6,1c-0.3,0.3-0.7,0.6-1.2,0.8C196.6,117.8,196,117.9,195.3,117.9z M195.1,110.1c-0.5,0-1,0.2-1.3,0.7
			c-0.4,0.4-0.6,1-0.7,1.7l0,0h4v-0.2c0-0.6-0.2-1.1-0.5-1.5S195.7,110.1,195.1,110.1z"/>
		<path class="st0" d="M203.8,116.6c0.5,0,1-0.2,1.4-0.5c0.4-0.3,0.6-0.7,0.6-1.2h1.4l0,0c0,0.7-0.3,1.4-1,2
			c-0.7,0.6-1.5,0.9-2.4,0.9c-1.3,0-2.2-0.4-2.9-1.2c-0.7-0.8-1-1.8-1-3.1v-0.3c0-1.2,0.3-2.2,1-3.1s1.6-1.2,2.9-1.2
			c1,0,1.8,0.3,2.5,0.9c0.6,0.6,0.9,1.3,0.9,2.2l0,0h-1.4c0-0.5-0.2-1-0.6-1.3c-0.4-0.4-0.8-0.6-1.4-0.6c-0.8,0-1.4,0.3-1.8,0.9
			c-0.4,0.6-0.5,1.3-0.5,2.2v0.3c0,0.9,0.2,1.6,0.5,2.2C202.4,116.3,203,116.6,203.8,116.6z"/>
		<path class="st0" d="M210.6,110.2c0.3-0.4,0.7-0.7,1.1-1s0.9-0.3,1.4-0.3c0.9,0,1.6,0.3,2.1,0.8c0.5,0.6,0.8,1.4,0.8,2.5v5.4h-1.6
			v-5.4c0-0.7-0.2-1.2-0.5-1.6c-0.3-0.3-0.8-0.5-1.4-0.5c-0.4,0-0.8,0.1-1.2,0.3c-0.4,0.2-0.6,0.5-0.9,0.8v6.4H209v-12.4h1.6V110.2z
			"/>
		<path class="st0" d="M219.7,109.1l0.1,1.3c0.3-0.5,0.6-0.8,1.1-1.1c0.4-0.3,0.9-0.4,1.5-0.4c0.9,0,1.6,0.3,2.2,0.8
			c0.5,0.5,0.8,1.4,0.8,2.5v5.4h-1.6v-5.4c0-0.8-0.1-1.3-0.4-1.6c-0.3-0.3-0.8-0.5-1.4-0.5c-0.5,0-0.9,0.1-1.2,0.3s-0.6,0.5-0.8,0.9
			v6.3h-1.6v-8.6H219.7z"/>
		<path class="st0" d="M227.2,113.3c0-1.3,0.3-2.3,1-3.1c0.7-0.8,1.6-1.2,2.8-1.2c1.2,0,2.1,0.4,2.8,1.2c0.7,0.8,1,1.9,1,3.2v0.2
			c0,1.3-0.3,2.3-1,3.2c-0.7,0.8-1.6,1.2-2.8,1.2c-1.2,0-2.1-0.4-2.8-1.2c-0.7-0.8-1-1.9-1-3.1V113.3z M228.7,113.5
			c0,0.9,0.2,1.7,0.6,2.3s1,0.9,1.7,0.9c0.7,0,1.3-0.3,1.7-0.9c0.4-0.6,0.6-1.3,0.6-2.3v-0.2c0-0.9-0.2-1.7-0.6-2.2
			c-0.4-0.6-1-0.9-1.7-0.9c-0.7,0-1.3,0.3-1.7,0.9c-0.4,0.6-0.6,1.3-0.6,2.2V113.5z"/>
		<path class="st0" d="M238.5,117.7h-1.6v-12.4h1.6V117.7z"/>
		<path class="st0" d="M240.5,113.3c0-1.3,0.3-2.3,1-3.1c0.7-0.8,1.6-1.2,2.8-1.2c1.2,0,2.1,0.4,2.8,1.2c0.7,0.8,1,1.9,1,3.2v0.2
			c0,1.3-0.3,2.3-1,3.2c-0.7,0.8-1.6,1.2-2.8,1.2c-1.2,0-2.1-0.4-2.8-1.2c-0.7-0.8-1-1.9-1-3.1V113.3z M242.1,113.5
			c0,0.9,0.2,1.7,0.6,2.3s1,0.9,1.7,0.9c0.7,0,1.3-0.3,1.7-0.9c0.4-0.6,0.6-1.3,0.6-2.3v-0.2c0-0.9-0.2-1.7-0.6-2.2
			c-0.4-0.6-1-0.9-1.7-0.9c-0.7,0-1.3,0.3-1.7,0.9c-0.4,0.6-0.6,1.3-0.6,2.2V113.5z"/>
		<path class="st0" d="M249.8,113.5c0-1.4,0.3-2.5,0.9-3.4c0.6-0.8,1.4-1.3,2.5-1.3c0.5,0,1,0.1,1.4,0.3c0.4,0.2,0.8,0.5,1,1
			l0.2-1.1h1.2v8.7c0,1.1-0.3,2-1,2.5s-1.6,0.9-2.8,0.9c-0.4,0-0.9-0.1-1.3-0.2c-0.5-0.1-0.9-0.3-1.3-0.5l0.4-1.2
			c0.3,0.2,0.6,0.3,1,0.4s0.8,0.1,1.2,0.1c0.8,0,1.3-0.2,1.7-0.5s0.5-0.9,0.5-1.6v-1c-0.3,0.4-0.6,0.6-1,0.8
			c-0.4,0.2-0.8,0.3-1.4,0.3c-1.1,0-1.9-0.4-2.5-1.1s-0.9-1.8-0.9-3V113.5z M251.4,113.7c0,0.9,0.2,1.6,0.5,2.1
			c0.4,0.5,0.9,0.8,1.7,0.8c0.5,0,0.9-0.1,1.2-0.3s0.6-0.5,0.8-0.9v-4c-0.2-0.4-0.5-0.7-0.8-0.9c-0.3-0.2-0.7-0.3-1.2-0.3
			c-0.7,0-1.3,0.3-1.7,0.9c-0.4,0.6-0.6,1.4-0.6,2.4V113.7z"/>
		<path class="st0" d="M262.1,114.5l0.3,1.1h0l2.1-6.5h1.7l-3.6,9.9c-0.2,0.6-0.5,1.1-0.9,1.5c-0.4,0.4-1,0.6-1.6,0.6
			c-0.1,0-0.3,0-0.5,0s-0.3-0.1-0.5-0.1l0.2-1.2c0,0,0.1,0,0.3,0s0.4,0,0.4,0c0.3,0,0.6-0.1,0.8-0.4c0.2-0.3,0.4-0.6,0.5-1l0.4-0.9
			l-3.2-8.4h1.8L262.1,114.5z"/>
		<path class="st0" d="M273.5,113v4.6H272v-11.6h4.4c1.2,0,2.2,0.3,2.9,1c0.7,0.6,1,1.5,1,2.5c0,1.1-0.3,1.9-1,2.5s-1.6,0.9-2.9,0.9
			H273.5z M273.5,111.8h2.9c0.8,0,1.4-0.2,1.8-0.6c0.4-0.4,0.6-1,0.6-1.6c0-0.6-0.2-1.2-0.6-1.6s-1-0.6-1.8-0.6h-2.9V111.8z"/>
		<path class="st0" d="M286.2,110.5l-0.8,0c-0.4,0-0.8,0.1-1,0.3c-0.3,0.2-0.5,0.5-0.7,0.8v6.2h-1.6v-8.6h1.4l0.2,1.3
			c0.2-0.4,0.5-0.8,0.9-1c0.4-0.2,0.8-0.4,1.2-0.4c0.1,0,0.2,0,0.3,0s0.2,0,0.3,0.1L286.2,110.5z"/>
		<path class="st0" d="M291.1,117.9c-1.2,0-2.2-0.4-2.9-1.2s-1.1-1.8-1.1-3.1v-0.4c0-1.2,0.4-2.2,1.1-3.1c0.7-0.8,1.6-1.2,2.6-1.2
			c1.2,0,2,0.4,2.6,1.1c0.6,0.7,0.9,1.6,0.9,2.8v1h-5.6l0,0c0,0.8,0.2,1.5,0.6,2s1,0.8,1.7,0.8c0.5,0,1-0.1,1.4-0.2
			c0.4-0.2,0.7-0.4,1-0.6l0.6,1c-0.3,0.3-0.7,0.6-1.2,0.8C292.5,117.8,291.8,117.9,291.1,117.9z M290.9,110.1c-0.5,0-1,0.2-1.3,0.7
			c-0.4,0.4-0.6,1-0.7,1.7l0,0h4v-0.2c0-0.6-0.2-1.1-0.5-1.5S291.5,110.1,290.9,110.1z"/>
		<path class="st0" d="M295.8,113.5c0-1.4,0.3-2.5,0.9-3.4c0.6-0.8,1.4-1.3,2.5-1.3c0.5,0,1,0.1,1.3,0.3c0.4,0.2,0.7,0.5,1,0.8v-4.7
			h1.6v12.4h-1.3l-0.2-1.1c-0.3,0.4-0.6,0.7-1,0.9c-0.4,0.2-0.9,0.3-1.4,0.3c-1.1,0-1.9-0.4-2.5-1.1c-0.6-0.8-0.9-1.8-0.9-3V113.5z
			 M297.4,113.7c0,0.9,0.2,1.6,0.5,2.1c0.4,0.5,0.9,0.8,1.7,0.8c0.5,0,0.9-0.1,1.2-0.3s0.6-0.5,0.8-0.9v-4c-0.2-0.4-0.5-0.6-0.8-0.8
			c-0.3-0.2-0.7-0.3-1.2-0.3c-0.8,0-1.3,0.3-1.7,0.9c-0.4,0.6-0.5,1.4-0.5,2.4V113.7z"/>
		<path class="st0" d="M307.1,106.9h-1.6v-1.6h1.6V106.9z M307.1,117.7h-1.6v-8.6h1.6V117.7z"/>
		<path class="st0" d="M313.1,116.6c0.5,0,1-0.2,1.4-0.5c0.4-0.3,0.6-0.7,0.6-1.2h1.4l0,0c0,0.7-0.3,1.4-1,2
			c-0.7,0.6-1.5,0.9-2.4,0.9c-1.3,0-2.2-0.4-2.9-1.2c-0.7-0.8-1-1.8-1-3.1v-0.3c0-1.2,0.3-2.2,1-3.1c0.7-0.8,1.6-1.2,2.9-1.2
			c1,0,1.8,0.3,2.5,0.9s0.9,1.3,0.9,2.2l0,0H315c0-0.5-0.2-1-0.6-1.3c-0.4-0.4-0.8-0.6-1.4-0.6c-0.8,0-1.4,0.3-1.8,0.9
			c-0.4,0.6-0.5,1.3-0.5,2.2v0.3c0,0.9,0.2,1.6,0.5,2.2C311.6,116.3,312.2,116.6,313.1,116.6z"/>
		<path class="st0" d="M320.3,107v2.1h1.6v1.2h-1.6v5.2c0,0.4,0.1,0.7,0.3,0.9c0.2,0.2,0.4,0.2,0.7,0.2c0.1,0,0.2,0,0.3,0
			c0.1,0,0.2,0,0.3-0.1l0.2,1.1c-0.1,0.1-0.3,0.2-0.5,0.2s-0.5,0.1-0.7,0.1c-0.6,0-1.1-0.2-1.5-0.6c-0.4-0.4-0.6-1-0.6-1.8v-5.2
			h-1.4v-1.2h1.4V107H320.3z"/>
		<path class="st0" d="M328.8,115.4c0-0.3-0.1-0.6-0.4-0.9c-0.3-0.2-0.8-0.4-1.5-0.6c-1-0.2-1.8-0.5-2.4-0.9
			c-0.5-0.4-0.8-0.9-0.8-1.6c0-0.7,0.3-1.3,0.9-1.8c0.6-0.5,1.4-0.7,2.3-0.7c1,0,1.8,0.3,2.4,0.8c0.6,0.5,0.9,1.1,0.8,1.9l0,0h-1.5
			c0-0.4-0.2-0.7-0.5-1c-0.3-0.3-0.7-0.4-1.3-0.4c-0.6,0-1,0.1-1.2,0.4c-0.3,0.2-0.4,0.5-0.4,0.9c0,0.3,0.1,0.6,0.4,0.8
			c0.2,0.2,0.7,0.4,1.5,0.5c1.1,0.2,1.9,0.6,2.4,1c0.5,0.4,0.8,0.9,0.8,1.6c0,0.8-0.3,1.4-0.9,1.9c-0.6,0.5-1.4,0.7-2.4,0.7
			c-1.1,0-2-0.3-2.6-0.8c-0.6-0.6-0.9-1.2-0.9-2l0,0h1.5c0,0.6,0.2,1,0.6,1.2c0.4,0.3,0.8,0.4,1.4,0.4c0.6,0,1-0.1,1.3-0.3
			C328.7,116.1,328.8,115.8,328.8,115.4z"/>
		<path class="st0" d="M344.6,107.3h-3.7v10.4h-1.6v-10.4h-3.7v-1.2h9V107.3z"/>
		<path class="st0" d="M347.5,110.2c0.3-0.4,0.7-0.7,1.1-1s0.9-0.3,1.4-0.3c0.9,0,1.6,0.3,2.1,0.8c0.5,0.6,0.8,1.4,0.8,2.5v5.4h-1.6
			v-5.4c0-0.7-0.2-1.2-0.5-1.6c-0.3-0.3-0.8-0.5-1.4-0.5c-0.4,0-0.8,0.1-1.2,0.3c-0.4,0.2-0.6,0.5-0.9,0.8v6.4H346v-12.4h1.6V110.2z
			"/>
		<path class="st0" d="M358.8,117.9c-1.2,0-2.2-0.4-2.9-1.2c-0.7-0.8-1.1-1.8-1.1-3.1v-0.4c0-1.2,0.4-2.2,1.1-3.1
			c0.7-0.8,1.6-1.2,2.6-1.2c1.2,0,2,0.4,2.6,1.1c0.6,0.7,0.9,1.6,0.9,2.8v1h-5.6l0,0c0,0.8,0.2,1.5,0.6,2s1,0.8,1.7,0.8
			c0.5,0,1-0.1,1.4-0.2s0.7-0.4,1-0.6l0.6,1c-0.3,0.3-0.7,0.6-1.2,0.8C360.1,117.8,359.5,117.9,358.8,117.9z M358.6,110.1
			c-0.5,0-1,0.2-1.3,0.7c-0.4,0.4-0.6,1-0.7,1.7l0,0h4v-0.2c0-0.6-0.2-1.1-0.5-1.5S359.2,110.1,358.6,110.1z"/>
		<path class="st0" d="M375.1,112.6h-5.3v5.1h-1.6v-11.6h7.7v1.2h-6.1v4h5.3V112.6z"/>
		<path class="st0" d="M382.7,116.4c-0.3,0.5-0.6,0.8-1,1.1c-0.4,0.2-0.9,0.4-1.5,0.4c-0.9,0-1.7-0.3-2.2-0.9s-0.8-1.5-0.8-2.8v-5.1
			h1.6v5.1c0,0.9,0.1,1.5,0.4,1.9c0.3,0.3,0.7,0.5,1.3,0.5c0.6,0,1-0.1,1.4-0.3c0.4-0.2,0.6-0.5,0.8-1v-6.2h1.6v8.6h-1.4
			L382.7,116.4z"/>
		<path class="st0" d="M388.6,107v2.1h1.6v1.2h-1.6v5.2c0,0.4,0.1,0.7,0.3,0.9c0.2,0.2,0.4,0.2,0.7,0.2c0.1,0,0.2,0,0.3,0
			c0.1,0,0.2,0,0.3-0.1l0.2,1.1c-0.1,0.1-0.3,0.2-0.5,0.2s-0.5,0.1-0.7,0.1c-0.6,0-1.1-0.2-1.5-0.6c-0.4-0.4-0.6-1-0.6-1.8v-5.2
			h-1.4v-1.2h1.4V107H388.6z"/>
		<path class="st0" d="M397.6,116.4c-0.3,0.5-0.6,0.8-1,1.1c-0.4,0.2-0.9,0.4-1.5,0.4c-0.9,0-1.7-0.3-2.2-0.9s-0.8-1.5-0.8-2.8v-5.1
			h1.6v5.1c0,0.9,0.1,1.5,0.4,1.9c0.3,0.3,0.7,0.5,1.3,0.5c0.6,0,1-0.1,1.4-0.3c0.4-0.2,0.6-0.5,0.8-1v-6.2h1.6v8.6h-1.4
			L397.6,116.4z"/>
		<path class="st0" d="M405.5,110.5l-0.8,0c-0.4,0-0.8,0.1-1,0.3c-0.3,0.2-0.5,0.5-0.7,0.8v6.2h-1.6v-8.6h1.4l0.2,1.3
			c0.2-0.4,0.5-0.8,0.9-1c0.4-0.2,0.8-0.4,1.2-0.4c0.1,0,0.2,0,0.3,0s0.2,0,0.3,0.1L405.5,110.5z"/>
		<path class="st0" d="M410.4,117.9c-1.2,0-2.2-0.4-2.9-1.2c-0.7-0.8-1.1-1.8-1.1-3.1v-0.4c0-1.2,0.4-2.2,1.1-3.1
			c0.7-0.8,1.6-1.2,2.6-1.2c1.2,0,2,0.4,2.6,1.1c0.6,0.7,0.9,1.6,0.9,2.8v1h-5.6l0,0c0,0.8,0.2,1.5,0.6,2s1,0.8,1.7,0.8
			c0.5,0,1-0.1,1.4-0.2s0.7-0.4,1-0.6l0.6,1c-0.3,0.3-0.7,0.6-1.2,0.8C411.7,117.8,411.1,117.9,410.4,117.9z M410.2,110.1
			c-0.5,0-1,0.2-1.3,0.7c-0.4,0.4-0.6,1-0.7,1.7l0,0h4v-0.2c0-0.6-0.2-1.1-0.5-1.5S410.8,110.1,410.2,110.1z"/>
	</g>
</g>
</svg>
