<svg width="93" height="92" viewBox="0 0 93 92" fill="none" xmlns="http://www.w3.org/2000/svg">
<path d="M82.6809 45.9324C82.6809 65.7407 66.6271 81.7979 46.8229 81.7979C27.0187 81.7979 10.9648 65.7407 10.9648 45.9324C10.9648 26.1241 27.0187 10.0669 46.8229 10.0669C66.6271 10.0669 82.6809 26.1241 82.6809 45.9324Z" fill="#C52E49"/>
<path d="M46.8232 91.8456C21.5082 91.8456 0.900391 71.2334 0.900391 45.9132C0.900391 20.593 21.5082 0 46.8232 0C72.1381 0 92.7459 20.593 92.7459 45.9323C92.7459 71.2717 72.1381 91.8456 46.8232 91.8456ZM46.8232 4.24874C23.8426 4.24874 5.14825 22.947 5.14825 45.9323C5.14825 68.9177 23.8426 87.616 46.8232 87.616C69.8037 87.616 88.4981 68.9177 88.4981 45.9323C88.4981 22.947 69.8037 4.24874 46.8232 4.24874Z" fill="#9C9C9C"/>
<path d="M46.8234 83.8457C25.9094 83.8457 8.91797 66.8316 8.91797 45.9324C8.91797 25.014 25.9094 8.01904 46.8234 8.01904C67.7374 8.01904 84.7288 25.014 84.7288 45.9324C84.7288 66.8316 67.7183 83.8457 46.8234 83.8457ZM46.8234 12.1147C28.1864 12.1147 13.0127 27.2724 13.0127 45.9324C13.0127 64.5924 28.1864 79.7501 46.8234 79.7501C65.4604 79.7501 80.634 64.5732 80.634 45.9324C80.634 27.2915 65.4604 12.1147 46.8234 12.1147Z" fill="#F68D38"/>
<g clip-path="url(#clip0_3433_1484)">
<path d="M58.3543 26.1423C58.2555 26.1423 58.1564 26.1434 58.057 26.1456C55.6101 22.4086 51.4785 20.1465 46.9272 20.1465C42.3755 20.1465 38.2439 22.4086 35.7976 26.1456C28.3233 25.978 22.1807 32.0182 22.1807 39.4616C22.1807 45.437 26.168 50.6036 31.7445 52.2391V69.7828C31.7445 71.0881 32.8028 72.1465 34.1081 72.1465H59.7459C61.0511 72.1465 62.1095 71.0881 62.1095 69.7828V52.2403C67.6854 50.6045 71.6733 45.4364 71.6733 39.4618C71.6735 32.1174 65.6984 26.1423 58.3543 26.1423ZM57.3822 67.4192H36.4717V62.6919H57.3822V67.4192ZM59.4485 47.9815C58.2676 48.1312 57.3824 49.1359 57.3824 50.3264V57.9647H36.4717V50.5224C36.473 50.5065 36.4743 50.4904 36.4752 50.4743C36.5535 49.2289 35.6501 48.1373 34.412 47.9811C30.1339 47.4414 26.9078 43.7787 26.9078 39.4616C26.9078 34.724 30.7621 30.8694 35.4996 30.8694C35.9137 30.8694 36.3369 30.9006 36.7573 30.9621C37.7715 31.1099 38.7653 30.5884 39.2189 29.6696C40.6794 26.7113 43.633 24.8738 46.9272 24.8738C50.2214 24.8738 53.175 26.7115 54.6356 29.6699C55.0892 30.5889 56.0839 31.1105 57.0974 30.9622C57.5169 30.9006 57.94 30.8696 58.354 30.8696C63.0915 30.8696 66.9459 34.7241 66.9459 39.4618C66.9462 43.7764 63.7228 47.4391 59.4485 47.9815Z" fill="white"/>
</g>
<defs>
<clipPath id="clip0_3433_1484">
<rect width="52" height="52" fill="white" transform="translate(20.9268 20.1465)"/>
</clipPath>
</defs>
</svg>
