<svg width="94" height="92" viewBox="0 0 94 92" fill="none" xmlns="http://www.w3.org/2000/svg">
<path d="M91.3283 46.005C91.3283 70.196 71.427 89.813 46.8853 89.813C22.3437 89.813 2.44238 70.196 2.44238 46.005C2.44238 21.814 22.3437 2.19702 46.8853 2.19702C71.427 2.19702 91.3283 21.814 91.3283 46.005Z" fill="white"/>
<path d="M46.8852 91.9183C21.198 91.9183 0.287109 71.3062 0.287109 45.986C0.287109 20.6658 21.198 0.0727539 46.8852 0.0727539C72.5724 0.0727539 93.4833 20.6658 93.4833 46.0051C93.4833 71.3444 72.5724 91.9183 46.8852 91.9183ZM46.8852 4.3215C23.5667 4.3215 4.59743 23.0198 4.59743 46.0051C4.59743 68.9904 23.5667 87.6887 46.8852 87.6887C70.2037 87.6887 89.173 68.9904 89.173 46.0051C89.173 23.0198 70.2037 4.3215 46.8852 4.3215Z" fill="#0494B5"/>
<path d="M83.2707 46.0049C83.2707 65.8132 66.9808 81.8704 46.8854 81.8704C26.7899 81.8704 10.5 65.8132 10.5 46.0049C10.5 26.1966 26.7899 10.1394 46.8854 10.1394C66.9808 10.1394 83.2707 26.1966 83.2707 46.0049Z" fill="white"/>
<path d="M46.8857 83.9182C25.6642 83.9182 8.42285 66.9041 8.42285 46.0049C8.42285 25.0865 25.6642 8.09155 46.8857 8.09155C68.1073 8.09155 85.3486 25.0865 85.3486 46.0049C85.3486 66.9041 68.0879 83.9182 46.8857 83.9182ZM46.8857 12.1872C27.9746 12.1872 12.5778 27.3449 12.5778 46.0049C12.5778 64.6649 27.9746 79.8226 46.8857 79.8226C65.7968 79.8226 81.1936 64.6458 81.1936 46.0049C81.1936 27.364 65.7968 12.1872 46.8857 12.1872Z" fill="#02B68D"/>
<path d="M44.0309 46.6937C44.0309 54.1386 37.9149 60.1672 30.3621 60.1672C22.8094 60.1672 16.6934 54.1386 16.6934 46.6937C16.6934 39.2488 22.8094 33.2202 30.3621 33.2202C37.9149 33.2202 44.0309 39.2488 44.0309 46.6937Z" fill="#3BB54A"/>
<path d="M31.2559 56.7222H29.4502V69.6406H31.2559V56.7222Z" fill="#3BB54A"/>
<path d="M30.4609 64.0905V62.3107C32.286 62.3107 33.7616 60.8561 33.7616 59.0571H35.5673C35.5673 61.8322 33.2762 64.0905 30.4609 64.0905Z" fill="#3BB54A"/>
<path d="M30.3632 66.3489C27.5479 66.3489 25.2568 64.0906 25.2568 61.3155V57.239H27.0625V61.3155C27.0625 63.1145 28.5381 64.5691 30.3632 64.5691V66.3489Z" fill="#3BB54A"/>
<path d="M49.877 46.6937C49.877 54.1386 55.993 60.1672 63.5457 60.1672C71.0985 60.1672 77.2145 54.1386 77.2145 46.6937C77.2145 39.2488 71.0985 33.2202 63.5457 33.2202C55.993 33.2202 49.877 39.2488 49.877 46.6937Z" fill="#3BB54A"/>
<path d="M64.4375 56.7222H62.6318V69.6406H64.4375V56.7222Z" fill="#3BB54A"/>
<path d="M63.4286 64.0905C60.6133 64.0905 58.3223 61.8322 58.3223 59.0571H60.1279C60.1279 60.8561 61.6036 62.3107 63.4286 62.3107V64.0905Z" fill="#3BB54A"/>
<path d="M63.5264 66.3487V64.5688C65.3515 64.5688 66.8271 63.1143 66.8271 61.3153V57.2388H68.6327V61.3153C68.6522 64.0903 66.3611 66.3487 63.5264 66.3487Z" fill="#3BB54A"/>
<path d="M47.0215 14.7517C34.7894 14.7517 24.8291 24.5697 24.8291 36.627C24.8291 45.2584 30.0908 53.1435 38.0319 56.6267V58.4257C38.0319 62.33 40.6336 65.7175 44.3032 66.8658V72.6456H49.7397V63.5357C52.9433 62.5788 55.3897 59.8994 56.011 56.6458C63.9521 53.1626 69.2138 45.2776 69.2138 36.6461C69.1944 24.5698 59.2535 14.7517 47.0215 14.7517ZM43.4683 58.2152C43.7402 58.2535 44.0314 58.2918 44.3032 58.33V60.6841C43.779 60.0716 43.4683 59.287 43.4683 58.4257V58.2152Z" fill="white"/>
<path d="M67.3898 36.6271C67.3898 47.7274 58.2643 56.7033 47.0225 56.7033C35.7613 56.7033 26.6553 47.7083 26.6553 36.6271C26.6553 25.5268 35.7807 16.5508 47.0225 16.5508C58.2643 16.5317 67.3898 25.5268 67.3898 36.6271Z" fill="#0F9447"/>
<path d="M47.916 51.5742H46.1104V70.8467H47.916V51.5742Z" fill="#0F9447"/>
<path d="M47.1572 62.1002V60.3203C50.1084 60.3203 52.516 57.9471 52.516 55.0381H54.3217C54.3411 58.9232 51.1181 62.1002 47.1572 62.1002Z" fill="#0F9447"/>
<path d="M47.0219 65.4877C43.061 65.4877 39.8574 62.3107 39.8574 58.4065V52.3396H41.6631V58.4065C41.6631 61.3155 44.0707 63.6887 47.0219 63.6887V65.4877Z" fill="#0F9447"/>
</svg>
