<svg width="93" height="92" viewBox="0 0 93 92" fill="none" xmlns="http://www.w3.org/2000/svg">
<path d="M90.3506 46.0045C90.3506 70.1955 70.7378 89.8125 46.5518 89.8125C22.3658 89.8125 2.75293 70.1955 2.75293 46.0045C2.75293 21.8135 22.3658 2.19653 46.5518 2.19653C70.7378 2.19653 90.3506 21.8135 90.3506 46.0045Z" fill="white"/>
<path d="M46.5517 91.9176C21.2368 91.9176 0.628906 71.3054 0.628906 45.9852C0.628906 20.665 21.2368 0.0720215 46.5517 0.0720215C71.8666 0.0720215 92.4745 20.665 92.4745 46.0044C92.4745 71.3437 71.8666 91.9176 46.5517 91.9176ZM46.5517 4.32076C23.5712 4.32076 4.87676 23.0191 4.87676 46.0044C4.87676 68.9897 23.5712 87.688 46.5517 87.688C69.5322 87.688 88.2266 68.9897 88.2266 46.0044C88.2266 23.0191 69.5322 4.32076 46.5517 4.32076Z" fill="#22418E"/>
<path d="M82.4094 46.0044C82.4094 65.8128 66.3556 81.8699 46.5514 81.8699C26.7472 81.8699 10.6934 65.8128 10.6934 46.0044C10.6934 26.1961 26.7472 10.1389 46.5514 10.1389C66.3556 10.1389 82.4094 26.1961 82.4094 46.0044Z" fill="#22418E"/>
<path d="M46.5519 83.9177C25.6379 83.9177 8.64648 66.9036 8.64648 46.0044C8.64648 25.086 25.6379 8.09106 46.5519 8.09106C67.4659 8.09106 84.4573 25.086 84.4573 46.0044C84.4573 66.9036 67.4468 83.9177 46.5519 83.9177ZM46.5519 12.1867C27.9149 12.1867 12.7413 27.3444 12.7413 46.0044C12.7413 64.6644 27.9149 79.8221 46.5519 79.8221C65.1889 79.8221 80.3626 64.6453 80.3626 46.0044C80.3626 27.3635 65.1889 12.1867 46.5519 12.1867Z" fill="#B72D50"/>
<path d="M14.6549 57.0093C13.4494 53.5453 12.7988 49.8133 12.7988 45.9282C12.7988 27.3064 28.0299 12.1105 46.6477 12.1679C65.2465 12.2253 80.2862 27.3064 80.2862 45.9282C80.2862 49.4305 79.7504 52.7989 78.7554 55.9759C78.5641 56.5883 77.99 56.9902 77.3586 56.9902H14.6549V57.0093Z" fill="#22418E"/>
<path d="M70.4128 64.2627H20.2805C18.9411 64.2627 17.6973 63.5354 17.0467 62.368C15.8795 60.2819 14.9228 58.0427 14.2148 55.7078H18.0609V38.5406C18.0609 37.7751 18.6923 37.1818 19.4577 37.22C20.1657 37.2583 20.6823 37.8708 20.6823 38.5789V55.6695H23.3229V46.4448C23.3229 45.7175 23.916 45.1242 24.6431 45.1242H25.9634V42.4831C25.9634 41.7559 26.5566 41.1626 27.2837 41.1626H28.604V35.6698C27.0732 35.1339 25.9634 33.6603 25.9634 31.9378C25.9634 30.2154 27.0732 28.7417 28.604 28.2058V16.1294C28.604 15.3639 29.2354 14.7706 30.0008 14.8089C30.7279 14.8663 31.2445 15.4787 31.2445 16.1869V28.2441C32.7753 28.78 33.8851 30.2536 33.8851 31.9761C33.8851 33.6986 32.7753 35.1722 31.2445 35.7081V41.2008H33.8851V38.5023C33.8851 37.7751 34.4783 37.1818 35.2054 37.1818H40.4865C41.2136 37.1818 41.8068 37.7751 41.8068 38.5023V55.7078H56.3107V29.3158C56.3107 28.5503 56.9422 27.957 57.7075 27.9953C58.4155 28.0336 58.9322 28.646 58.9322 29.3541V46.4448H69.4753C70.2024 46.4448 70.7955 47.0381 70.7955 47.7653V54.349H73.4361V29.3158C73.4361 28.5503 74.0675 27.957 74.8329 27.9953C75.5409 28.0336 76.0575 28.646 76.0575 29.3541V55.6887H78.8512C78.4302 57.1049 77.8944 58.4829 77.3013 59.8226C76.0767 62.5211 73.3787 64.2627 70.4128 64.2627Z" fill="#223369"/>
<path d="M52.3496 69.0284V37.2202C52.3496 36.493 52.9428 35.8997 53.6699 35.8997H61.5724C62.2995 35.8997 62.8927 36.493 62.8927 37.2202V39.8613H66.8536C67.5807 39.8613 68.1738 40.4546 68.1738 41.1819V69.0284H52.3496Z" fill="#34A5DD"/>
<path d="M52.3496 69.0284V37.2202C52.3496 36.493 52.9428 35.8997 53.6699 35.8997H56.3105C55.5833 35.8997 54.9902 36.493 54.9902 37.2202V69.0284H52.3496Z" fill="#0F90CD"/>
<path d="M60.2519 43.1339V62.2915C60.2519 62.9423 59.7544 63.5164 59.1038 63.593H59.0847C58.3002 63.6887 57.6113 63.0762 57.6113 62.2915V43.1339C57.6113 42.4067 58.2045 41.8325 58.9125 41.8325H58.9316C59.6587 41.8325 60.2519 42.4258 60.2519 43.1339ZM64.2127 41.8325H64.1936C63.4665 41.8325 62.8924 42.4258 62.8924 43.1339V62.2915C62.8924 63.0762 63.5813 63.6887 64.3658 63.593H64.3849C65.0355 63.5164 65.533 62.9614 65.533 62.2915V43.1339C65.533 42.4258 64.9398 41.8325 64.2127 41.8325Z" fill="#70CFEF"/>
<path d="M36.5256 41.1819V69.9087C36.5256 70.77 35.7219 71.4015 34.88 71.191C32.5073 70.5786 30.2303 69.813 28.1064 68.9135C27.628 68.703 27.3027 68.2246 27.3027 67.7078V41.1819C27.3027 40.4546 27.8959 39.8613 28.623 39.8613H35.2053C35.9324 39.8613 36.5256 40.4546 36.5256 41.1819Z" fill="#436BB3"/>
<path d="M77.3774 59.6505C72.3641 70.9231 61.3427 78.9421 48.3886 79.6502V59.6505H77.3774ZM35.2049 39.8613H31.2441C30.517 39.8613 29.9238 40.4546 29.9238 41.1819V67.6887C29.9238 68.2246 30.2491 68.703 30.7275 68.8944C32.4496 69.6217 34.2674 70.2532 36.1425 70.8082C36.3721 70.5786 36.5061 70.2532 36.5061 69.9087V41.1819C36.5252 40.4546 35.9321 39.8613 35.2049 39.8613Z" fill="#6888C5"/>
<path d="M49.709 67.5547H72.4599C71.6945 68.4733 70.8717 69.3537 70.0107 70.1958H49.709V67.5547ZM49.709 62.2725V64.9136H74.4499C75.0239 64.0523 75.5788 63.172 76.0763 62.2725H49.709ZM49.709 75.4589H62.8926C64.3086 74.6742 65.648 73.7938 66.93 72.8178H49.709V75.4589Z" fill="#436BB3"/>
<path d="M59.2001 53.0476V77.2195C55.2967 78.808 51.0297 79.6693 46.5522 79.6693C42.0747 79.6693 37.8077 78.7889 33.9043 77.2195V53.0476C33.9043 52.3204 34.4975 51.7271 35.2246 51.7271H39.1854V45.1434C39.1854 44.4162 39.7786 43.8229 40.5057 43.8229H45.251V34.5981C45.251 33.8709 45.8442 33.2776 46.5713 33.2776C47.2984 33.2776 47.8916 33.8709 47.8916 34.5981V43.8229H52.637C53.3641 43.8229 53.9572 44.4162 53.9572 45.1434V51.7271H57.9181C58.6069 51.7271 59.2001 52.3204 59.2001 53.0476Z" fill="#E5B753"/>
<path d="M40.4862 51.7272H39.1659V45.1436C39.1659 44.4163 39.7591 43.823 40.4862 43.823H43.1267C42.3996 43.823 41.8064 44.4163 41.8064 45.1436V50.4258C41.7873 51.1339 41.2133 51.7272 40.4862 51.7272ZM56.5017 62.2725C57.248 62.2725 57.8411 61.6792 57.8411 60.9519C57.8411 60.2247 57.2288 59.6314 56.5017 59.6314H37.8456C37.1185 59.6314 36.5253 59.0381 36.5253 58.3108C36.5253 57.5836 37.1185 56.9903 37.8456 56.9903H56.5017C57.248 56.9903 57.8411 56.397 57.8411 55.6697C57.8411 54.9425 57.2288 54.3492 56.5017 54.3492H37.8456C37.1185 54.3492 36.5253 53.7559 36.5253 53.0286C36.5253 52.3013 37.1185 51.708 37.8456 51.708H35.205C34.4779 51.708 33.8848 52.3013 33.8848 53.0286V77.2005C37.7882 78.789 42.0552 79.6502 46.5327 79.6502C46.9728 79.6502 47.4129 79.6311 47.8529 79.6311C46.2648 79.5737 44.6958 79.4014 43.165 79.1143C42.5336 78.9995 42.6101 78.0617 43.2607 78.0617H56.4826C57.2288 78.0617 57.822 77.4684 57.822 76.7412C57.822 76.0139 57.2097 75.4206 56.4826 75.4206H37.8265C37.0994 75.4206 36.5062 74.8273 36.5062 74.1001C36.5062 73.3728 37.0994 72.7795 37.8265 72.7795H56.4826C57.2288 72.7795 57.822 72.1862 57.822 71.459C57.822 70.7317 57.2097 70.1384 56.4826 70.1384H37.8265C37.0994 70.1384 36.5062 69.5451 36.5062 68.8178C36.5062 68.0906 37.0994 67.4973 37.8265 67.4973H56.4826C57.2288 67.4973 57.822 66.904 57.822 66.1767C57.822 65.4495 57.2097 64.8562 56.4826 64.8562H37.8265C37.0994 64.8562 36.5062 64.2629 36.5062 63.5356C36.5062 62.8084 37.0994 62.2151 37.8265 62.2151H56.5017V62.2725Z" fill="#D79928"/>
<path d="M56.2913 55.6887C56.2913 56.416 55.6981 57.0093 54.971 57.0093H53.3829C52.6557 57.0093 52.0626 56.416 52.0626 55.6887C52.0626 54.9615 52.6557 54.3682 53.3829 54.3682H54.971C55.6981 54.3682 56.2913 54.9615 56.2913 55.6887ZM48.3887 59.6504H46.8006C46.0735 59.6504 45.4803 60.2437 45.4803 60.9709C45.4803 61.6982 46.0735 62.2915 46.8006 62.2915H48.3887C49.1159 62.2915 49.709 61.6982 49.709 60.9709C49.709 60.2437 49.1159 59.6504 48.3887 59.6504ZM48.3887 64.9135H46.8006C46.0735 64.9135 45.4803 65.5068 45.4803 66.234C45.4803 66.9613 46.0735 67.5546 46.8006 67.5546H48.3887C49.1159 67.5546 49.709 66.9613 49.709 66.234C49.709 65.5068 49.1159 64.9135 48.3887 64.9135ZM41.7873 75.4588H40.1992C39.4721 75.4588 38.8789 76.0521 38.8789 76.7793C38.8789 77.5066 39.4721 78.0999 40.1992 78.0999H41.7873C42.5145 78.0999 43.1076 77.5066 43.1076 76.7793C43.1076 76.0521 42.5145 75.4588 41.7873 75.4588Z" fill="#C8EAFA"/>
<path d="M49.709 55.6887C49.709 56.416 49.1159 57.0093 48.3887 57.0093H46.8006C46.0735 57.0093 45.4803 56.416 45.4803 55.6887C45.4803 54.9615 46.0735 54.3682 46.8006 54.3682H48.3887C49.1159 54.3682 49.709 54.9615 49.709 55.6887ZM41.7874 54.3682H40.1992C39.4721 54.3682 38.8789 54.9615 38.8789 55.6887C38.8789 56.416 39.4721 57.0093 40.1992 57.0093H41.7874C42.5145 57.0093 43.1076 56.416 43.1076 55.6887C43.1076 54.9615 42.5145 54.3682 41.7874 54.3682ZM41.7874 59.6504H40.1992C39.4721 59.6504 38.8789 60.2437 38.8789 60.9709C38.8789 61.6982 39.4721 62.2915 40.1992 62.2915H41.7874C42.5145 62.2915 43.1076 61.6982 43.1076 60.9709C43.1076 60.2437 42.5145 59.6504 41.7874 59.6504ZM53.402 62.2724H54.9902C55.7173 62.2724 56.3104 61.6791 56.3104 60.9518C56.3104 60.2245 55.7173 59.6312 54.9902 59.6312H53.402C52.6749 59.6312 52.0817 60.2245 52.0817 60.9518C52.0817 61.6982 52.6749 62.2724 53.402 62.2724ZM41.7874 64.9135H40.1992C39.4721 64.9135 38.8789 65.5068 38.8789 66.234C38.8789 66.9613 39.4721 67.5546 40.1992 67.5546H41.7874C42.5145 67.5546 43.1076 66.9613 43.1076 66.234C43.1076 65.5068 42.5145 64.9135 41.7874 64.9135ZM54.971 64.9135H53.3829C52.6557 64.9135 52.0626 65.5068 52.0626 66.234C52.0626 66.9613 52.6557 67.5546 53.3829 67.5546H54.971C55.6981 67.5546 56.2913 66.9613 56.2913 66.234C56.2913 65.5068 55.6981 64.9135 54.971 64.9135ZM48.3887 70.1957H46.8006C46.0735 70.1957 45.4803 70.789 45.4803 71.5162C45.4803 72.2435 46.0735 72.8368 46.8006 72.8368H48.3887C49.1159 72.8368 49.709 72.2435 49.709 71.5162C49.709 70.789 49.1159 70.1957 48.3887 70.1957ZM41.7874 70.1957H40.1992C39.4721 70.1957 38.8789 70.789 38.8789 71.5162C38.8789 72.2435 39.4721 72.8368 40.1992 72.8368H41.7874C42.5145 72.8368 43.1076 72.2435 43.1076 71.5162C43.1076 70.789 42.5145 70.1957 41.7874 70.1957ZM54.971 70.1957H53.3829C52.6557 70.1957 52.0626 70.789 52.0626 71.5162C52.0626 72.2435 52.6557 72.8368 53.3829 72.8368H54.971C55.6981 72.8368 56.2913 72.2435 56.2913 71.5162C56.2913 70.789 55.6981 70.1957 54.971 70.1957ZM48.3887 75.4588H46.8006C46.0735 75.4588 45.4803 76.0521 45.4803 76.7793C45.4803 77.5066 46.0735 78.0999 46.8006 78.0999H48.3887C49.1159 78.0999 49.709 77.5066 49.709 76.7793C49.709 76.0521 49.1159 75.4588 48.3887 75.4588ZM54.971 75.4588H53.3829C52.6557 75.4588 52.0626 76.0521 52.0626 76.7793C52.0626 77.5066 52.6557 78.0999 53.3829 78.0999H54.971C55.6981 78.0999 56.2913 77.5066 56.2913 76.7793C56.2913 76.0521 55.6981 75.4588 54.971 75.4588Z" fill="#D5BD97"/>
<path d="M19.3809 57.0093C19.3809 56.282 19.974 55.6887 20.7011 55.6887H36.5254C37.2525 55.6887 37.8456 56.282 37.8456 57.0093V78.5592C30.3449 76.5688 23.8775 72.0521 19.3809 65.9852V57.0093Z" fill="#2C5AA9"/>
<path d="M24.662 59.6313V71.2101C24.662 71.3441 24.6429 71.4589 24.6046 71.5738C23.7053 70.7891 22.8443 69.9853 22.0215 69.1049V59.6122C22.0215 58.8849 22.6147 58.3108 23.3226 58.3108H23.3418C24.0689 58.3299 24.662 58.9232 24.662 59.6313ZM28.6229 58.3299H28.6037C27.8766 58.3299 27.3026 58.9232 27.3026 59.6313V73.6599C28.1637 74.2531 29.0247 74.8082 29.9432 75.3249V59.6313C29.924 58.9232 29.35 58.3299 28.6229 58.3299ZM33.904 58.3299H33.8849C33.1578 58.3299 32.5837 58.9232 32.5837 59.6313V76.6646C33.4448 77.0474 34.325 77.411 35.2243 77.7363V59.6313C35.2051 58.9232 34.612 58.3299 33.904 58.3299Z" fill="#6888C5"/>
<path d="M17.0088 62.2725H29.9246C30.6517 62.2725 31.2449 62.8658 31.2449 63.593V76.0139C25.2366 72.9709 20.2808 68.1671 17.0088 62.2725Z" fill="#34A5DD"/>
<path d="M28.6038 71.5161C28.6038 72.2434 28.0107 72.8367 27.2836 72.8367H26.1355C25.064 72.0137 24.0307 71.1333 23.0548 70.1955H27.2644C28.0298 70.1955 28.6038 70.7888 28.6038 71.5161ZM28.6038 66.2339C28.6038 65.5066 28.0107 64.9133 27.2836 64.9133H18.6348C19.2471 65.832 19.9168 66.7123 20.6248 67.5544H27.2836C28.0298 67.5544 28.6038 66.9611 28.6038 66.2339Z" fill="#70CFEF"/>
<path d="M51.2015 28.7607C51.7182 29.2775 51.7182 30.1196 51.2015 30.6172C50.6849 31.1339 49.843 31.1339 49.3455 30.6172C47.7956 29.067 45.289 29.067 43.7582 30.6172C43.2416 31.1339 42.3997 31.1339 41.9022 30.6172C41.3855 30.1004 41.3855 29.2583 41.9022 28.7607C44.4471 26.1962 48.6375 26.1962 51.2015 28.7607ZM39.0894 24.1101C38.5728 24.6268 38.5728 25.4689 39.0894 25.9665C39.606 26.4833 40.448 26.4833 40.9454 25.9665C44.0261 22.8852 49.0393 22.8852 52.1391 25.9665C52.6558 26.4833 53.4977 26.4833 53.9952 25.9665C54.5118 25.4498 54.5118 24.6077 53.9952 24.1101C49.8813 19.9953 43.2033 19.9953 39.0894 24.1101ZM57.7264 19.4403C51.5651 13.2777 41.5195 13.2777 35.3582 19.4403C34.8415 19.957 34.8415 20.7991 35.3582 21.2967C35.8748 21.8135 36.7167 21.8135 37.2142 21.2967C42.3614 16.1485 50.7232 16.1485 55.8512 21.2967C56.3679 21.8135 57.2098 21.8135 57.7073 21.2967C58.243 20.7991 58.243 19.957 57.7264 19.4403Z" fill="#C8EAFA"/>
</svg>
