<svg width="94" height="92" viewBox="0 0 94 92" fill="none" xmlns="http://www.w3.org/2000/svg">
<path d="M91.2082 45.9226C91.2082 70.1086 71.3069 89.7215 46.7652 89.7215C22.2235 89.7215 2.32227 70.1086 2.32227 45.9226C2.32227 21.7366 22.2235 2.12378 46.7652 2.12378C71.3069 2.12378 91.2082 21.7366 91.2082 45.9226Z" fill="white"/>
<path d="M46.7651 91.8456C21.0779 91.8456 0.166992 71.2377 0.166992 45.9228C0.166992 20.6078 21.0779 0 46.7651 0C72.4523 0 93.3632 20.6078 93.3632 45.9228C93.3632 71.2377 72.4523 91.8456 46.7651 91.8456ZM46.7651 4.24786C23.4466 4.24786 4.47732 22.9423 4.47732 45.9228C4.47732 68.9033 23.4466 87.5977 46.7651 87.5977C70.0836 87.5977 89.0529 68.9033 89.0529 45.9228C89.0529 22.9423 70.0836 4.24786 46.7651 4.24786Z" fill="#233E95"/>
<path d="M83.1487 45.9227C83.1487 65.7269 66.8587 81.7808 46.7633 81.7808C26.6679 81.7808 10.3779 65.7269 10.3779 45.9227C10.3779 26.1185 26.6679 10.0647 46.7633 10.0647C66.8587 10.0647 83.1487 26.1185 83.1487 45.9227Z" fill="#F7F8F8"/>
<path d="M46.7636 83.8282C25.5421 83.8282 8.30078 66.8176 8.30078 45.9228C8.30078 25.0088 25.5421 8.01733 46.7636 8.01733C67.9852 8.01733 85.2265 25.0088 85.2265 45.9228C85.2265 66.8176 67.9658 83.8282 46.7636 83.8282ZM46.7636 12.1121C27.8526 12.1121 12.4558 27.2858 12.4558 45.9228C12.4558 64.5598 27.8526 79.7334 46.7636 79.7334C65.6747 79.7334 81.0715 64.5598 81.0715 45.9228C81.0715 27.2858 65.6747 12.1121 46.7636 12.1121Z" fill="#FDB615"/>
<path d="M83.8108 55.6046C87.6163 48.3526 85.0146 39.3594 77.7919 35.1881C72.9962 32.4136 67.3073 32.4519 62.7058 34.7863L48.1633 26.4054C47.9691 21.2965 45.2121 16.398 40.3969 13.6427C33.1548 9.49048 23.9322 11.691 19.3889 18.522L19.3695 18.5028L5.39008 42.0957L5.40949 42.1148C3.37083 46.2478 4.88527 51.2994 8.98202 53.6529C12.2245 55.5089 16.1465 55.1645 18.9618 53.0597L28.8639 46.4392L54.4734 61.1919L53.4832 72.9596C53.0172 76.4038 54.6288 79.9628 57.8712 81.8189C61.968 84.1724 67.1714 82.9861 69.812 79.2166L69.8508 79.2357L83.8302 55.6429L83.8108 55.6046Z" fill="#F04F4E"/>
<path opacity="0.08" d="M83.7915 55.6238C83.7915 55.6238 66.6861 82.7374 53.4639 75.1218C53.7745 77.8007 55.3278 80.3264 57.8713 81.7998C61.968 84.1533 67.1715 82.967 69.812 79.1975L69.8509 79.2166L83.8303 55.6238H83.7915Z" fill="#010101"/>
<path d="M39.601 32.3752L35.9897 30.2895C35.582 30.0408 35.4266 29.5241 35.679 29.1223L37.7954 25.5633C38.0478 25.1615 37.8924 24.6257 37.4847 24.3961L33.8734 22.3104C33.4656 22.0617 32.922 22.2148 32.689 22.6166L30.5727 26.1756C30.3203 26.5774 29.796 26.7305 29.3883 26.4817L25.8546 24.4344C25.4469 24.1856 24.9032 24.3387 24.6702 24.7405L22.5539 28.2995C22.3015 28.7013 22.4568 29.2371 22.8646 29.4667L26.3982 31.5141C26.806 31.7629 26.9613 32.2795 26.7089 32.6813L24.6314 36.1638C24.379 36.5656 24.5343 37.1014 24.9421 37.331L28.5534 39.4167C28.9611 39.6654 29.5048 39.5123 29.7378 39.1105L31.8153 35.628C32.0677 35.2262 32.5919 35.0731 32.9996 35.3219L36.611 37.4075C37.0187 37.6563 37.5624 37.5032 37.7954 37.1014L39.9117 33.5424C40.1447 33.1406 40.0088 32.6239 39.601 32.3752Z" fill="#113B55"/>
<path d="M73.7003 49.7795C74.9597 48.7935 75.1696 46.9881 74.1692 45.7469C73.1687 44.5057 71.3367 44.2989 70.0773 45.2848C68.8178 46.2708 68.6079 48.0762 69.6084 49.3174C70.6088 50.5586 72.4408 50.7655 73.7003 49.7795Z" fill="#113B55"/>
<path d="M63.8704 52.5624C65.4789 52.5624 66.7828 51.2773 66.7828 49.6922C66.7828 48.107 65.4789 46.822 63.8704 46.822C62.2619 46.822 60.958 48.107 60.958 49.6922C60.958 51.2773 62.2619 52.5624 63.8704 52.5624Z" fill="#113B55"/>
<path d="M76.1993 56.7911C75.3838 58.1497 73.617 58.6089 72.219 57.8244C70.8405 57.0207 70.3745 55.2795 71.1706 53.9018C71.986 52.5433 73.7529 52.084 75.1508 52.8686C76.5488 53.6722 77.0148 55.4326 76.1993 56.7911Z" fill="#113B55"/>
<path d="M68.4913 58.9339C67.6758 60.2925 65.909 60.7517 64.511 59.9672C63.1325 59.1636 62.6665 57.4223 63.4626 56.0446C64.278 54.6861 66.0449 54.2269 67.4428 55.0114C68.8408 55.815 69.3067 57.5754 68.4913 58.9339Z" fill="#113B55"/>
<path d="M39.2905 31.2082L35.6791 29.1225C35.2714 28.8738 35.1161 28.3571 35.3685 27.9553L37.4848 24.3963C37.7372 23.9945 37.5819 23.4587 37.1742 23.2291L33.5628 21.1434C33.1551 20.8947 32.6114 21.0478 32.3784 21.4496L30.2621 25.0086C30.0097 25.4104 29.4855 25.5635 29.0777 25.3148L25.5441 23.2674C25.1363 23.0186 24.5927 23.1717 24.3597 23.5735L22.2434 27.1325C21.9909 27.5344 22.1463 28.0701 22.554 28.2997L26.0877 30.3471C26.4954 30.5959 26.6508 31.1125 26.3984 31.5143L24.3209 34.9968C24.0684 35.3986 24.2238 35.9344 24.6315 36.164L28.2429 38.2497C28.6506 38.4984 29.1942 38.3453 29.4272 37.9435L31.5047 34.461C31.7571 34.0592 32.2814 33.9061 32.6891 34.1549L36.3005 36.2406C36.7082 36.4893 37.2518 36.3362 37.4848 35.9344L39.6011 32.3754C39.8341 31.9736 39.6982 31.4569 39.2905 31.2082Z" fill="#F7F8F8"/>
<path d="M71.5794 49.233C73.1878 49.233 74.4918 47.948 74.4918 46.3628C74.4918 44.7777 73.1878 43.4927 71.5794 43.4927C69.9709 43.4927 68.667 44.7777 68.667 46.3628C68.667 47.948 69.9709 49.233 71.5794 49.233Z" fill="#F7F8F8"/>
<path d="M66.0645 49.9601C65.249 51.3186 63.4822 51.7779 62.0843 50.9933C60.7057 50.1897 60.2398 48.4484 61.0358 47.0708C61.8513 45.7122 63.6181 45.253 65.0161 46.0375C66.414 46.8412 66.88 48.6015 66.0645 49.9601Z" fill="#F7F8F8"/>
<path d="M73.3841 57.0399C74.9925 57.0399 76.2964 55.7549 76.2964 54.1697C76.2964 52.5846 74.9925 51.2996 73.3841 51.2996C71.7756 51.2996 70.4717 52.5846 70.4717 54.1697C70.4717 55.7549 71.7756 57.0399 73.3841 57.0399Z" fill="#F7F8F8"/>
<path d="M68.1807 57.767C67.3653 59.1255 65.5984 59.5847 64.2005 58.8002C62.8219 57.9966 62.356 56.2553 63.152 54.8777C63.9675 53.5191 65.7343 53.0599 67.1323 53.8444C68.5108 54.648 68.9962 56.4084 68.1807 57.767Z" fill="#F7F8F8"/>
<path opacity="0.08" d="M40.1057 18.2158C42.222 19.4404 43.9112 21.086 45.1538 22.9995C44.2801 19.8997 42.222 17.106 39.1737 15.3648C32.9606 11.7866 24.9807 13.8532 21.3499 19.9762C20.7869 20.9138 20.3791 21.8897 20.0879 22.9038C24.4176 16.3407 33.213 14.2359 40.1057 18.2158Z" fill="#010101"/>
<path opacity="0.08" d="M4.55566 46.975C4.86632 49.6539 6.41959 52.1796 8.96307 53.653C12.2055 55.509 16.1275 55.1646 18.9428 53.0598L28.5537 46.6306C28.5731 46.6306 16.9236 54.0931 4.55566 46.975Z" fill="#010101"/>
<path opacity="0.08" d="M54.862 56.791L43.7561 50.3618L32.6308 43.9326L28.8447 46.4392L41.698 53.8252L54.4931 61.2876L54.862 56.791Z" fill="#010101"/>
</svg>
