<svg width="95" height="94" viewBox="0 0 95 94" fill="none" xmlns="http://www.w3.org/2000/svg">
<path d="M92.0148 46.9254C92.0148 71.4722 72.1135 91.3776 47.5719 91.3776C23.0302 91.3776 3.12891 71.4722 3.12891 46.9254C3.12891 22.3786 23.0302 2.47314 47.5719 2.47314C72.1135 2.47314 92.0148 22.3786 92.0148 46.9254Z" fill="white"/>
<path d="M47.5717 93.5136C21.8845 93.5136 0.973633 72.5984 0.973633 46.9058C0.973633 21.2132 21.8845 0.317383 47.5717 0.317383C73.259 0.317383 94.1699 21.2132 94.1699 46.9252C94.1699 72.6372 73.259 93.5136 47.5717 93.5136ZM47.5717 4.62861C24.2533 4.62861 5.28396 23.6019 5.28396 46.9252C5.28396 70.2485 24.2533 89.2218 47.5717 89.2218C70.8902 89.2218 89.8595 70.2485 89.8595 46.9252C89.8595 23.6019 70.8902 4.62861 47.5717 4.62861Z" fill="#0064A1"/>
<path d="M83.9553 46.9252C83.9553 67.0248 67.6654 83.3181 47.5699 83.3181C27.4745 83.3181 11.1846 67.0248 11.1846 46.9252C11.1846 26.8255 27.4745 10.5322 47.5699 10.5322C67.6654 10.5322 83.9553 26.8255 83.9553 46.9252Z" fill="white"/>
<path d="M47.5703 85.3961C26.3487 85.3961 9.10742 68.1318 9.10742 46.9252C9.10742 25.6992 26.3487 8.45435 47.5703 8.45435C68.7918 8.45435 86.0331 25.6992 86.0331 46.9252C86.0331 68.1318 68.7724 85.3961 47.5703 85.3961ZM47.5703 12.6102C28.6592 12.6102 13.2624 27.9908 13.2624 46.9252C13.2624 65.8596 28.6592 81.2402 47.5703 81.2402C66.4813 81.2402 81.8781 65.8402 81.8781 46.9252C81.8781 28.0102 66.4813 12.6102 47.5703 12.6102Z" fill="#4BC5ED"/>
<path d="M70.6743 53.6639C70.0336 54.3241 69.8977 56.5574 70.5578 57.8003C71.2179 59.0432 71.6645 59.9171 70.8102 61.2376C69.6064 63.102 60.6945 62.6359 57.2968 64.6944C56.0153 65.4712 54.229 69.6076 52.7146 73.5887H29.9398C33.1046 67.7433 36.347 60.0336 33.1822 57.4119C24.9499 50.5955 19.6688 40.3418 25.7459 28.3985C31.5319 16.999 46.7539 16.7854 53.4718 20.5917C57.8792 23.0775 62.4031 27.9519 63.3157 32.6127C64.2282 37.2734 67.1018 39.4679 70.3831 41.138C73.6643 42.8081 71.2568 44.5365 70.2277 45.3133C69.1793 46.0901 69.4317 47.0223 69.6841 47.8573C69.9559 48.7118 70.519 49.0613 70.7714 49.3526C71.3927 50.0712 70.4996 50.7897 70.4996 50.7897C71.2374 51.6054 72.0723 52.2268 70.6743 53.6639Z" fill="#1EA5DE"/>
<path d="M50.2495 40.8659L42.056 47.6046L43.1433 51.6634L39.9397 54.3045L34.0566 32.8649L37.2797 30.2043L57.2004 40.0697L53.9773 42.7302L50.2495 40.8659ZM38.4058 34.8263L40.9881 43.8954L46.7935 39.0987L38.4058 34.8263Z" fill="#21438A"/>
<path d="M58.1128 39.3511L45.2207 23.6986L48.1525 21.2905L61.0446 36.943L58.1128 39.3511Z" fill="#21438A"/>
</svg>
