<svg width="93" height="94" viewBox="0 0 93 94" fill="none" xmlns="http://www.w3.org/2000/svg">
<path d="M90.0088 47.0247C90.0088 71.5664 70.396 91.4677 46.21 91.4677C22.024 91.4677 2.41113 71.5664 2.41113 47.0247C2.41113 22.4831 22.024 2.58179 46.21 2.58179C70.396 2.58179 90.0088 22.4831 90.0088 47.0247Z" fill="white"/>
<path d="M46.2099 93.623C20.895 93.623 0.287109 72.7121 0.287109 47.0249C0.287109 21.3377 20.895 0.426758 46.2099 0.426758C71.5248 0.426758 92.1327 21.3377 92.1327 47.0249C92.1327 72.7121 71.5248 93.623 46.2099 93.623ZM46.2099 4.73708C23.2294 4.73708 4.53497 23.7064 4.53497 47.0249C4.53497 70.3433 23.2294 89.3127 46.2099 89.3127C69.1904 89.3127 87.8848 70.3433 87.8848 47.0249C87.8848 23.7064 69.1904 4.73708 46.2099 4.73708Z" fill="#39B44A"/>
<path d="M82.0676 47.0253C82.0676 67.1207 66.0138 83.4106 46.2096 83.4106C26.4054 83.4106 10.3516 67.1207 10.3516 47.0253C10.3516 26.9298 26.4054 10.6399 46.2096 10.6399C66.0138 10.6399 82.0676 26.9298 82.0676 47.0253Z" fill="#F7F8F8"/>
<path d="M46.2101 85.488C25.2961 85.488 8.30469 68.2273 8.30469 47.0251C8.30469 25.8036 25.2961 8.56226 46.2101 8.56226C67.1241 8.56226 84.1155 25.8036 84.1155 47.0251C84.1155 68.2273 67.105 85.488 46.2101 85.488ZM46.2101 12.7173C27.5731 12.7173 12.3995 28.114 12.3995 47.0251C12.3995 65.9362 27.5731 81.333 46.2101 81.333C64.8471 81.333 80.0208 65.9362 80.0208 47.0251C80.0208 28.114 64.8471 12.7173 46.2101 12.7173Z" fill="#8CC541"/>
<path d="M28.6063 51.0633C23.8227 51.0633 19.9575 55.0047 19.9766 59.8587C19.9766 64.7127 23.8609 68.6347 28.6446 68.6153C33.4282 68.6153 37.2933 64.6738 37.2742 59.8199C37.2742 54.9853 33.3899 51.0439 28.6063 51.0633ZM28.6446 65.0427C25.8127 65.0427 23.5165 62.7128 23.4974 59.8393C23.4974 56.9657 25.7935 54.6358 28.6254 54.6164C31.4573 54.6164 33.7535 56.9463 33.7726 59.8199C33.7726 62.7128 31.4765 65.0427 28.6446 65.0427Z" fill="#8CC541"/>
<path d="M60.3696 44.1124C53.7108 44.1318 48.334 49.607 48.334 56.3638C48.3531 63.1205 53.749 68.5764 60.4078 68.5764C67.0666 68.5569 72.4434 63.0817 72.4434 56.3249C72.4243 49.5488 67.0284 44.0929 60.3696 44.1124ZM60.4078 63.8195C56.3322 63.8195 53.0219 60.4799 53.0219 56.3444C53.0219 52.2088 56.3131 48.8498 60.3887 48.8498C64.4644 48.8498 67.7746 52.1894 67.7746 56.3249C67.7746 60.4605 64.4835 63.8001 60.4078 63.8195Z" fill="#8CC541"/>
<path d="M38.231 32.4434H32.7012V35.3363H33.7153V40.268H37.236V35.3363H38.2502L38.231 32.4434Z" fill="#8CC541"/>
<path d="M57.3076 22.6966L57.3268 27.6282H60.8475L60.8284 20.7356L57.3076 22.6966Z" fill="#8CC541"/>
<path d="M63.0485 31.2782C63.0485 30.2104 62.3979 29.2978 61.4795 28.9095C61.269 28.793 61.0203 28.7153 60.7524 28.7153H60.5228L47.2243 28.7347H43.34C42.4981 28.7347 41.8284 29.4143 41.8284 30.2686C41.8284 31.1229 42.5172 31.8025 43.34 31.8025H44.7177L42.9764 41.258L28.6638 41.2774C27.267 41.2774 26.1572 42.4229 26.1572 43.8403L27.4775 48.5001C27.8411 48.4613 28.2238 48.4419 28.5873 48.4419C34.7869 48.4225 39.8193 53.5094 39.8384 59.8002L46.4781 59.7807C46.2102 58.674 46.0571 57.5285 46.0571 56.3247C46.038 48.306 52.4289 41.7822 60.3506 41.7628C61.269 41.7628 62.1875 41.8599 63.0677 42.0152L63.0485 31.2782ZM54.017 41.6851L45.1195 41.7046L47.0521 31.6665L57.6335 31.6471L57.6526 40.5784C56.3897 40.792 55.1651 41.1609 54.017 41.6851Z" fill="#8CC541"/>
</svg>
