<svg width="93" height="92" viewBox="0 0 93 92" fill="none" xmlns="http://www.w3.org/2000/svg">
<path d="M89.8877 45.9325C89.8877 70.1235 70.2749 89.7405 46.0889 89.7405C21.9029 89.7405 2.29004 70.1235 2.29004 45.9325C2.29004 21.7414 21.9029 2.12451 46.0889 2.12451C70.2749 2.12451 89.8877 21.7414 89.8877 45.9325Z" fill="white"/>
<path d="M81.9465 45.9324C81.9465 65.7407 65.8927 81.7979 46.0885 81.7979C26.2843 81.7979 10.2305 65.7407 10.2305 45.9324C10.2305 26.1241 26.2843 10.0669 46.0885 10.0669C65.8927 10.0669 81.9465 26.1241 81.9465 45.9324Z" fill="#0F5494"/>
<path d="M46.0888 91.8456C20.7739 91.8456 0.166016 71.2334 0.166016 45.9132C0.166016 20.593 20.7739 0 46.0888 0C71.4037 0 92.0116 20.593 92.0116 45.9323C92.0116 71.2717 71.4037 91.8456 46.0888 91.8456ZM46.0888 4.24874C23.1083 4.24874 4.41387 22.947 4.41387 45.9323C4.41387 68.9177 23.1083 87.616 46.0888 87.616C69.0693 87.616 87.7637 68.9177 87.7637 45.9323C87.7637 22.947 69.0693 4.24874 46.0888 4.24874Z" fill="#3B73B5"/>
<path d="M46.089 83.8457C25.175 83.8457 8.18359 66.8316 8.18359 45.9324C8.18359 25.014 25.175 8.01904 46.089 8.01904C67.003 8.01904 83.9945 25.014 83.9945 45.9324C83.9945 66.8316 66.9839 83.8457 46.089 83.8457ZM46.089 12.1147C27.452 12.1147 12.2784 27.2724 12.2784 45.9324C12.2784 64.5924 27.452 79.7501 46.089 79.7501C64.726 79.7501 79.8997 64.5732 79.8997 45.9324C79.8997 27.2915 64.726 12.1147 46.089 12.1147Z" fill="#38A6F6"/>
<g clip-path="url(#clip0_3433_1490)">
<path d="M63.642 41.1181C62.3671 40.3819 61.0041 39.8791 59.6031 39.5904C59.4733 39.3494 59.3252 39.1206 59.1829 38.8877C59.6348 37.5407 59.89 36.1044 59.89 34.607C59.89 29.2444 56.7114 24.3887 51.7919 22.2369C50.2729 21.5741 48.5057 22.2662 47.8414 23.7837C47.1778 25.3012 47.87 27.0699 49.3881 27.7342C51.8311 28.8026 53.492 31.0717 53.8208 33.6665C51.6273 32.4089 49.0944 31.6789 46.3896 31.6789C43.6849 31.6789 41.152 32.4089 38.9585 33.6665C39.2874 31.0717 40.9483 28.8026 43.3912 27.7342C44.9095 27.0699 45.6016 25.3012 44.938 23.7837C44.2745 22.2662 42.505 21.5741 40.9875 22.2369C36.0679 24.3887 32.8894 29.2444 32.8894 34.607C32.8894 36.1043 33.1445 37.5407 33.5965 38.8877C33.4542 39.1204 33.3062 39.3492 33.1763 39.5901C31.775 39.8789 30.4122 40.3818 29.1374 41.1181C24.4917 43.7994 21.8763 48.9797 22.474 54.3159C22.6586 55.9623 24.1343 57.1488 25.7896 56.9635C27.436 56.7789 28.621 55.2944 28.4372 53.6479C28.1384 50.9822 29.2895 48.3965 31.3972 46.8169C31.4477 52.3026 34.459 57.084 38.9058 59.6582C36.4672 60.7313 33.6175 60.4494 31.4348 58.8413C30.099 57.8577 28.2218 58.1433 27.2397 59.477C26.2576 60.8115 26.5417 62.6893 27.8754 63.6722C30.2498 65.4212 33.0674 66.3073 35.8944 66.3073C38.2154 66.3073 40.5437 65.7096 42.6376 64.5004C43.9535 63.7407 45.0997 62.7747 46.069 61.6616C46.1766 61.6638 46.2814 61.6778 46.3896 61.6778C46.4978 61.6778 46.6025 61.6639 46.7103 61.6616C47.6796 62.7747 48.8259 63.7407 50.1417 64.5004C52.2356 65.7096 54.5631 66.3073 56.8849 66.3073C59.7119 66.3073 62.5295 65.4211 64.9039 63.6722C66.2376 62.6893 66.5217 60.8115 65.5396 59.477C64.5582 58.1448 62.6796 57.8613 61.3445 58.8413C59.1612 60.4493 56.3107 60.7312 53.8734 59.6582C58.3204 57.0841 61.3317 52.3027 61.3821 46.8169C63.4898 48.3965 64.6411 50.9821 64.3422 53.6479C64.1584 55.2944 65.3434 56.7789 66.9898 56.9635C68.6472 57.1502 70.12 55.9623 70.3054 54.3159C70.9029 48.9797 68.2876 43.7994 63.642 41.1181ZM46.3896 37.6787C48.4838 37.6787 50.4083 38.4035 51.939 39.6075C50.5652 41.1306 48.5975 42.1075 46.3896 42.1075C44.1817 42.1075 42.2141 41.1306 40.8403 39.6075C42.371 38.4035 44.2955 37.6787 46.3896 37.6787ZM43.1319 54.7502C43.1066 54.8447 43.079 54.9276 43.0301 55.0213C39.7281 53.6867 37.3899 50.4531 37.3899 46.6785C37.3899 46.2802 37.4249 45.8908 37.4752 45.506C37.5936 45.5086 37.7117 45.5333 37.8286 45.5645C39.7636 46.0831 41.3807 47.3237 42.3826 49.0588C43.3847 50.7938 43.6505 52.8152 43.1319 54.7502ZM46.3896 49.6784C44.7327 49.6784 43.3897 48.3354 43.3897 46.6785C43.3897 45.0214 44.7327 43.6786 46.3896 43.6786C48.0466 43.6786 49.3895 45.0214 49.3895 46.6785C49.3895 48.3354 48.0466 49.6784 46.3896 49.6784ZM49.7492 55.0213C49.6996 54.9266 49.6728 54.8447 49.6474 54.7502C49.1288 52.8152 49.3947 50.7937 50.3966 49.0587C51.3985 47.3237 53.0156 46.083 54.9506 45.5644C55.0676 45.5332 55.1875 45.5146 55.304 45.506C55.3543 45.8907 55.3893 46.2802 55.3893 46.6784C55.3894 50.4531 53.0511 53.6867 49.7492 55.0213Z" fill="white"/>
</g>
<defs>
<clipPath id="clip0_3433_1490">
<rect width="48" height="48" fill="white" transform="translate(22.3896 20.1465)"/>
</clipPath>
</defs>
</svg>
