<svg width="93" height="92" viewBox="0 0 93 92" fill="none" xmlns="http://www.w3.org/2000/svg">
<path d="M46.6991 91.87C21.3842 91.87 0.776367 71.2578 0.776367 45.9376C0.776367 20.6174 21.3842 0.0244141 46.6991 0.0244141C72.0141 0.0244141 92.6219 20.6174 92.6219 45.9568C92.6219 71.2961 72.0141 91.87 46.6991 91.87ZM46.6991 4.27316C23.7186 4.27316 5.02422 22.9714 5.02422 45.9568C5.02422 68.9421 23.7186 87.6404 46.6991 87.6404C69.6797 87.6404 88.3741 68.9421 88.3741 45.9568C88.3741 22.9714 69.6797 4.27316 46.6991 4.27316Z" fill="#1E252B"/>
<g clip-path="url(#clip0_3433_1463)">
<path d="M47.0001 82.8006C67.3246 82.8006 83.8009 66.3243 83.8009 45.9998C83.8009 25.6753 67.3246 9.19897 47.0001 9.19897C26.6755 9.19897 10.1992 25.6753 10.1992 45.9998C10.1992 66.3243 26.6755 82.8006 47.0001 82.8006Z" fill="#FF9E16"/>
<path opacity="0.2" d="M48.1991 9.2205C47.8009 9.20773 47.4016 9.19897 47.0002 9.19897C46.5988 9.19897 46.1995 9.20773 45.8013 9.2205V20.5702H48.1991V9.2205ZM21.571 44.8006L10.2206 44.8007C10.2078 45.1991 10.1992 45.5984 10.1992 46C10.1992 46.4012 10.208 46.8005 10.2206 47.1986L21.571 47.1984V44.8006ZM20.1456 71.159C20.6923 71.7422 21.2577 72.3077 21.841 72.8544L29.8668 64.8287L28.1713 63.1331L20.1456 71.159ZM73.8547 20.8406C73.308 20.2573 72.7426 19.6917 72.1592 19.1452L64.1338 27.1711L65.8294 28.8665L73.8547 20.8406ZM20.1459 20.8408L28.1713 28.8662L29.8668 27.1705L21.8415 19.1452C21.2581 19.6919 20.6926 20.2573 20.1459 20.8408ZM64.1336 64.8288L72.1596 72.8543C72.743 72.3076 73.3086 71.7422 73.8553 71.1587L65.8292 63.1329L64.1336 64.8288ZM83.78 44.8004L72.4294 44.8007V47.1986L83.78 47.1983C83.7927 46.8002 83.8013 46.4012 83.8013 46C83.8015 45.5986 83.7927 45.1991 83.78 44.8004ZM45.8011 71.4291L45.8014 82.7797C46.1997 82.7925 46.5988 82.8012 47.0002 82.8012C47.4016 82.8012 47.8009 82.7925 48.1993 82.7797L48.199 71.4291H45.8011Z" fill="black"/>
<path d="M46.9999 72.5377C61.6565 72.5377 73.5379 60.6562 73.5379 45.9997C73.5379 31.3431 61.6565 19.4617 46.9999 19.4617C32.3434 19.4617 20.4619 31.3431 20.4619 45.9997C20.4619 60.6562 32.3434 72.5377 46.9999 72.5377Z" fill="#333E48"/>
<path d="M61.1714 38.9382C61.1714 34.0844 57.7818 30.0099 53.246 28.9505V27.6432C53.246 25.8774 51.8146 24.446 50.0488 24.446C48.283 24.446 46.8516 25.8774 46.8516 27.6432V28.6796H44.5974V27.6432C44.5974 25.8774 43.166 24.446 41.4002 24.446C39.6344 24.446 38.203 25.8774 38.203 27.6432V28.6796H36.0263C34.2605 28.6796 32.8291 30.111 32.8291 31.8768C32.8291 33.6134 34.2145 35.0234 35.9399 35.0697V56.9289C34.2146 56.975 32.8291 58.385 32.8291 60.1217C32.8291 61.8876 34.2605 63.319 36.0263 63.319H38.203V64.3555C38.203 66.1213 39.6344 67.5527 41.4002 67.5527C43.166 67.5527 44.5974 66.1213 44.5974 64.3555V63.319H46.8516V64.3555C46.8516 66.1213 48.283 67.5527 50.0488 67.5527C51.8146 67.5527 53.246 66.1213 53.246 64.3555V63.0481C57.7818 61.9887 61.1714 57.9145 61.1714 53.0606C61.1714 50.3271 60.0965 47.8399 58.3476 45.9994C60.0964 44.1587 61.1714 41.6714 61.1714 38.9382ZM50.9127 56.9244H42.3342V49.1964H50.9127C53.0434 49.1964 54.7768 50.9299 54.7768 53.0606C54.777 55.1911 53.0435 56.9244 50.9127 56.9244ZM50.9127 42.802H42.3342V35.0739H50.9127C53.0434 35.0739 54.7768 36.8074 54.7768 38.938C54.777 41.0687 53.0435 42.802 50.9127 42.802Z" fill="white"/>
<path d="M73.8701 19.1297C66.6929 11.9526 57.1501 8 46.9999 8C36.8498 8 27.3073 11.9526 20.13 19.1297C12.9526 26.3071 9 35.8498 9 45.9999C9 56.1501 12.9526 65.6927 20.13 72.87C27.3074 80.0473 36.85 84 47.0001 84C57.1503 84 66.6929 80.0473 73.8701 72.87C81.0474 65.6927 85.0002 56.15 85.0002 45.9999C85.0002 35.8498 81.0476 26.3071 73.8701 19.1297ZM72.1745 71.1744C65.4502 77.8988 56.5096 81.6021 46.9999 81.6021C37.4903 81.6021 28.5497 77.8989 21.8253 71.1744C15.1011 64.45 11.3979 55.5096 11.3979 45.9999C11.3979 36.4903 15.1011 27.5496 21.8256 20.8253C28.5499 14.1011 37.4904 10.3977 47.0001 10.3977C56.5099 10.3977 65.4504 14.1009 72.1747 20.8253C78.8989 27.5497 82.6023 36.4901 82.6023 45.9999C82.6023 55.5096 78.8991 64.45 72.1745 71.1744ZM46.9999 18.2631C31.7059 18.2631 19.2633 30.7058 19.2633 45.9999C19.2633 61.2936 31.7058 73.7361 46.9999 73.7361C62.2941 73.7361 74.7366 61.2938 74.7366 45.9999C74.7366 30.7059 62.2941 18.2631 46.9999 18.2631ZM46.9999 71.3381C33.0282 71.3381 21.6611 59.9713 21.6611 45.9998C21.6611 32.0279 33.0281 20.6609 46.9999 20.6609C60.9718 20.6609 72.3387 32.0278 72.3387 45.9998C72.3387 59.9715 60.9719 71.3381 46.9999 71.3381Z" fill="#1E252B"/>
</g>
<defs>
<clipPath id="clip0_3433_1463">
<rect width="76" height="76" fill="white" transform="translate(9 8)"/>
</clipPath>
</defs>
</svg>
