<svg width="92" height="93" viewBox="0 0 92 93" fill="none" xmlns="http://www.w3.org/2000/svg">
<path d="M89.8643 46.1512C89.8643 70.3423 70.2514 89.9592 46.0655 89.9592C21.8795 89.9592 2.2666 70.3423 2.2666 46.1512C2.2666 21.9602 21.8795 2.34326 46.0655 2.34326C70.2514 2.34326 89.8643 21.9602 89.8643 46.1512Z" fill="white"/>
<path d="M46.0654 92.0643C20.7504 92.0643 0.142578 71.4522 0.142578 46.132C0.142578 20.8118 20.7504 0.21875 46.0654 0.21875C71.3803 0.21875 91.9881 20.8118 91.9881 46.1511C91.9881 71.4904 71.3803 92.0643 46.0654 92.0643ZM46.0654 4.46749C23.0848 4.46749 4.39044 23.1658 4.39044 46.1511C4.39044 69.1364 23.0848 87.8347 46.0654 87.8347C69.0459 87.8347 87.7403 69.1364 87.7403 46.1511C87.7403 23.1658 69.0459 4.46749 46.0654 4.46749Z" fill="#2D337F"/>
<path d="M81.9241 46.1512C81.9241 65.9595 65.8702 82.0167 46.066 82.0167C26.2618 82.0167 10.208 65.9595 10.208 46.1512C10.208 26.3428 26.2618 10.2856 46.066 10.2856C65.8702 10.2856 81.9241 26.3428 81.9241 46.1512Z" fill="white"/>
<path d="M46.0656 84.0644C25.1516 84.0644 8.16016 67.0503 8.16016 46.1511C8.16016 25.2328 25.1516 8.23779 46.0656 8.23779C66.9796 8.23779 83.971 25.2328 83.971 46.1511C83.971 67.0503 66.9604 84.0644 46.0656 84.0644ZM46.0656 12.3334C27.4286 12.3334 12.2549 27.4911 12.2549 46.1511C12.2549 64.8111 27.4286 79.9688 46.0656 79.9688C64.7026 79.9688 79.8762 64.792 79.8762 46.1511C79.8762 27.5102 64.7026 12.3334 46.0656 12.3334Z" fill="#F68D38"/>
<path d="M29.0749 40.7923C29.3237 38.0746 27.812 35.3761 25.1715 34.2469C21.8804 32.8115 18.0343 34.3426 16.6184 37.6344C15.1833 40.9262 16.714 44.7731 20.0052 46.1893C21.5551 46.8592 23.2389 46.8783 24.7123 46.3616C23.3346 48.8113 22.4161 51.5098 21.9952 54.4189L25.3054 54.9165C26.1091 49.462 28.7305 45.0793 33.1697 41.7492C33.6098 41.4238 34.0499 41.1176 34.49 40.8305C33.9925 39.7014 33.8394 38.4382 34.0499 37.1942C32.2512 38.1511 30.5865 39.3569 29.0749 40.7923Z" fill="#F68D38"/>
<path d="M46.641 37.8068C47.1193 37.8451 47.5977 37.9025 48.0761 37.979L48.5736 34.6681C47.502 34.515 46.4114 34.4193 45.3398 34.4001C46.1052 35.3762 46.5453 36.5628 46.641 37.8068Z" fill="#F68D38"/>
<path d="M39.9244 27.3379C41.3594 24.0461 39.8287 20.1993 36.5376 18.783C33.2464 17.3476 29.4004 18.8787 27.9844 22.1705C26.5493 25.4624 28.0801 29.3092 31.3712 30.7254C31.5052 30.7829 31.62 30.8211 31.7539 30.8786C30.1466 31.6632 28.6159 32.5819 27.1999 33.6345C27.1234 33.6919 27.0277 33.7685 26.9512 33.8259C27.9079 34.4766 28.6924 35.3378 29.2664 36.2947C34.892 32.1226 42.1631 30.3235 49.0706 31.3379L49.5681 28.0269C46.1813 27.5293 42.7945 27.5867 39.446 28.2757C39.6182 27.9886 39.7904 27.6824 39.9244 27.3379Z" fill="#243E86"/>
<path d="M17.4798 45.998C16.4657 48.3521 15.7577 50.8401 15.375 53.4429L18.6853 53.9405C19.0106 51.7396 19.5846 49.6344 20.4265 47.6248C20.1204 47.5291 19.8333 47.4334 19.5272 47.2995C18.7618 46.955 18.073 46.5148 17.4798 45.998Z" fill="#243E86"/>
<path d="M44.8614 41.0792C44.9953 40.8687 45.1101 40.6391 45.2058 40.3903C46.373 37.6917 45.1293 34.553 42.4313 33.3856C39.7334 32.2181 36.5953 33.4621 35.4281 36.1607C34.3566 38.6487 35.3324 41.5194 37.6094 42.8591C36.7866 43.2993 35.983 43.7969 35.1793 44.3902C31.4672 47.1461 29.2859 50.8016 28.6162 55.3757L31.9265 55.8733C32.4622 52.2178 34.2226 49.2896 37.1885 47.0887C40.1543 44.8878 43.4646 44.0648 47.1193 44.6007L47.5976 41.2898C46.66 41.1558 45.7607 41.0792 44.8614 41.0792Z" fill="#B72D50"/>
<g opacity="0.35">
<path opacity="0.35" d="M62.0056 41.6151C64.7227 41.8448 67.4016 40.3137 68.5305 37.6726C69.9273 34.3617 68.3965 30.534 65.0863 29.1369C61.776 27.7398 57.9491 29.2708 56.5523 32.5818C55.8826 34.132 55.8826 35.8162 56.3992 37.2899C53.9309 35.931 51.252 35.0315 48.3245 34.6296L47.8652 37.9406C53.3186 38.7061 57.7386 41.2898 61.0872 45.7108C61.4125 46.151 61.7186 46.5912 62.0056 47.0313C63.1346 46.5337 64.3974 46.3615 65.6412 46.572C64.6653 44.773 63.4407 43.1079 62.0056 41.6151Z" fill="#F68D38"/>
<path opacity="0.35" d="M65.1052 59.1652C65.067 59.6437 65.0096 60.1221 64.9521 60.6006L68.2624 61.0599C68.4155 59.9882 68.492 58.8973 68.5112 57.8064C67.5353 58.5911 66.349 59.0695 65.1052 59.1652Z" fill="#F68D38"/>
<path opacity="0.35" d="M72.0902 43.8354C72.0328 43.9694 71.9945 44.0842 71.9371 44.2182C71.1335 42.6106 70.215 41.0986 69.1435 39.6824C69.0861 39.6058 69.0095 39.5101 68.9521 39.4336C68.3016 40.3905 67.4597 41.1943 66.5029 41.7494C67.6701 43.2996 69.1435 45.6345 70.2342 48.6966C71.2866 51.5865 71.6501 54.1702 71.7649 56.0458C72.8938 54.3233 74.2333 51.9119 75.2474 48.8689C76.4337 45.29 76.759 42.1321 76.7973 39.8738C74.8647 40.5436 73.6018 41.5771 73.0852 42.1895C72.6642 42.7254 72.1476 43.7015 72.0902 43.8354Z" fill="#243E86"/>
<path opacity="0.35" d="M56.7244 30.0556C54.3517 29.0604 51.8834 28.3714 49.262 28.0078L48.8027 31.3188C51.0032 31.625 53.108 32.1991 55.1171 33.003C55.2128 32.6967 55.3085 32.3905 55.4424 32.1034C55.7677 31.3379 56.2078 30.6489 56.7244 30.0556Z" fill="#243E86"/>
<path opacity="0.35" d="M61.8144 57.4045C62.0249 57.5385 62.2545 57.6533 62.5032 57.749C65.2203 58.8973 68.3392 57.6341 69.4873 54.9165C70.6354 52.1988 69.3725 49.0793 66.6554 47.9309C64.1488 46.8783 61.2977 47.8735 59.9583 50.1701C59.5182 49.3472 59.0016 48.5434 58.4084 47.7587C55.6339 44.065 51.941 41.9023 47.387 41.2708L46.9277 44.5817C50.5824 45.0984 53.5291 46.8209 55.7487 49.7682C57.9683 52.7156 58.8294 56.0265 58.3128 59.682L61.623 60.1413C61.7761 59.2035 61.8335 58.304 61.8144 57.4045Z" fill="#B72D50"/>
</g>
</svg>
