<svg width="93" height="93" viewBox="0 0 93 93" fill="none" xmlns="http://www.w3.org/2000/svg">
<path d="M90.3741 46.786C90.3741 70.977 70.7612 90.594 46.5752 90.594C22.3892 90.594 2.77637 70.977 2.77637 46.786C2.77637 22.595 22.3892 2.97803 46.5752 2.97803C70.7612 2.97803 90.3741 22.595 90.3741 46.786Z" fill="white"/>
<path d="M46.5751 92.6991C21.2602 92.6991 0.652344 72.0869 0.652344 46.7667C0.652344 21.4465 21.2602 0.853516 46.5751 0.853516C71.8901 0.853516 92.4979 21.4465 92.4979 46.7859C92.4979 72.1252 71.8901 92.6991 46.5751 92.6991ZM46.5751 5.10226C23.5946 5.10226 4.9002 23.8006 4.9002 46.7859C4.9002 69.7712 23.5946 88.4695 46.5751 88.4695C69.5556 88.4695 88.25 69.7712 88.25 46.7859C88.25 23.8006 69.5556 5.10226 46.5751 5.10226Z" fill="#3BB54A"/>
<path d="M82.4329 46.7859C82.4329 66.5942 66.379 82.6514 46.5748 82.6514C26.7706 82.6514 10.7168 66.5942 10.7168 46.7859C10.7168 26.9776 26.7706 10.9204 46.5748 10.9204C66.379 10.9204 82.4329 26.9776 82.4329 46.7859Z" fill="#0F9447"/>
<path d="M46.5753 84.6992C25.6613 84.6992 8.66992 67.6851 8.66992 46.7859C8.66992 25.8675 25.6613 8.87256 46.5753 8.87256C67.4893 8.87256 84.4808 25.8675 84.4808 46.7859C84.4808 67.6851 67.4702 84.6992 46.5753 84.6992ZM46.5753 12.9682C27.9384 12.9682 12.7647 28.1259 12.7647 46.7859C12.7647 65.4459 27.9384 80.6036 46.5753 80.6036C65.2123 80.6036 80.386 65.4268 80.386 46.7859C80.386 28.145 65.2123 12.9682 46.5753 12.9682Z" fill="#F68D38"/>
<path d="M43.8777 67.4937V62.6708C40.4718 62.5177 37.1806 61.5991 35.248 60.4891L36.7788 54.537C38.9027 55.7044 41.9069 56.7762 45.198 56.7762C48.0873 56.7762 50.0773 55.6662 50.0773 53.6183C50.0773 51.6854 48.4508 50.4605 44.7005 49.1974C39.2663 47.3601 35.5542 44.8338 35.5542 39.8961C35.5542 35.4368 38.7114 31.9153 44.1265 30.8627V26.0398H49.1014V30.4991C52.5074 30.6522 54.7844 31.3603 56.4682 32.1832L54.9948 37.9248C53.6746 37.3698 51.3402 36.2023 47.6855 36.2023C44.3943 36.2023 43.3228 37.6186 43.3228 39.054C43.3228 40.7381 45.1023 41.7908 49.4076 43.4175C55.4541 45.5419 57.8842 48.3361 57.8842 52.9102C57.8842 57.4269 54.6887 61.2929 48.8527 62.3072V67.4937H43.8777Z" fill="white"/>
</svg>
