<svg width="92" height="94" viewBox="0 0 92 94" fill="none" xmlns="http://www.w3.org/2000/svg">
<path d="M89.8643 46.608C89.8643 71.1548 70.2514 91.0602 46.0655 91.0602C21.8795 91.0602 2.2666 71.1548 2.2666 46.608C2.2666 22.0612 21.8795 2.15576 46.0655 2.15576C70.2514 2.15576 89.8643 22.0612 89.8643 46.608Z" fill="white"/>
<path d="M46.0654 93.1962C20.7504 93.1962 0.142578 72.281 0.142578 46.5884C0.142578 20.8958 20.7504 0 46.0654 0C71.3803 0 91.9881 20.8958 91.9881 46.6078C91.9881 72.3198 71.3803 93.1962 46.0654 93.1962ZM46.0654 4.31122C23.0848 4.31122 4.39044 23.2845 4.39044 46.6078C4.39044 69.9312 23.0848 88.9044 46.0654 88.9044C69.0459 88.9044 87.7403 69.9312 87.7403 46.6078C87.7403 23.2845 69.0459 4.31122 46.0654 4.31122Z" fill="#2D337F"/>
<path d="M81.9231 46.6078C81.9231 66.7074 65.8693 83.0007 46.0651 83.0007C26.2609 83.0007 10.207 66.7074 10.207 46.6078C10.207 26.5082 26.2609 10.2148 46.0651 10.2148C65.8693 10.2148 81.9231 26.5082 81.9231 46.6078Z" fill="white"/>
<path d="M46.0656 85.0787C25.1516 85.0787 8.16016 67.8144 8.16016 46.6078C8.16016 25.3819 25.1516 8.13696 46.0656 8.13696C66.9796 8.13696 83.971 25.3819 83.971 46.6078C83.971 67.8144 66.9604 85.0787 46.0656 85.0787ZM46.0656 12.2928C27.4286 12.2928 12.2549 27.6734 12.2549 46.6078C12.2549 65.5423 27.4286 80.9228 46.0656 80.9228C64.7026 80.9228 79.8762 65.5228 79.8762 46.6078C79.8762 27.6928 64.7026 12.2928 46.0656 12.2928Z" fill="#B72D50"/>
<path d="M71.2459 50.3366C73.5038 48.6471 75.5321 44.1805 76.5845 41.4423C75.8765 35.8105 73.676 30.6448 70.404 26.353C70.538 27.324 70.6145 28.3144 70.6145 29.3437C70.5954 33.0529 69.6769 36.5096 67.84 39.7333C66.0414 42.8211 63.6113 45.2874 60.5689 47.1129C60.5498 47.1129 60.5498 47.1323 60.5306 47.1323C54.3693 50.9386 46.218 50.8027 40.0376 47.1323C36.9952 45.3068 34.5651 42.8405 32.7473 39.7333C30.9104 36.529 29.992 33.0529 29.9728 29.3242C29.9728 29.2854 29.992 29.2271 29.992 29.1883C30.0111 25.5179 30.9104 22.0806 32.7282 18.9152C33.3405 18.1189 33.9528 17.3033 34.5651 16.5071C28.3081 19.0705 23.0844 23.6536 19.6594 29.4602C19.8698 32.3732 20.4439 36.296 21.8981 38.3157C21.8981 38.3157 18.9705 38.471 17.4589 34.0239C16.5978 36.2377 15.9855 38.5681 15.6411 40.9956C17.0188 43.1318 18.76 45.3845 20.5013 46.2973C20.5013 46.2973 18.3008 47.5595 15.335 45.0738C15.335 45.2097 15.335 45.3263 15.335 45.4622C15.335 47.6178 15.5454 49.7346 15.9664 51.7737C17.2867 53.7739 18.9131 55.7548 20.5204 56.5898C20.5204 56.5898 19.2575 57.3083 17.3632 56.5898C21.7833 68.3389 32.977 76.67 46.1032 76.67C62.4249 76.67 75.7808 63.7558 76.7949 47.443C73.9248 51.4435 71.2459 50.3366 71.2459 50.3366Z" fill="#2D337F"/>
<path d="M54.9629 65.4841C53.7575 63.3673 52.8199 61.1729 52.1502 58.9007C51.4231 56.7451 51.0021 54.6283 50.8107 51.8901C45.7975 61.3088 35.9624 67.8145 24.8452 67.8145C24.7687 67.8145 24.7113 67.8145 24.6348 67.8145C30.1838 73.2909 37.7419 76.67 46.0845 76.67C51.4613 76.67 56.5128 75.2717 60.8946 72.8054C58.5794 70.7275 56.6085 68.2806 54.9629 65.4841Z" fill="#B72D50"/>
<path d="M67.9934 57.6969C67.9934 66.1834 61.2198 73.058 52.858 73.058C44.4963 73.058 37.7227 66.1834 37.7227 57.6969C37.7227 49.2103 44.4963 42.3357 52.858 42.3357C61.2198 42.3357 67.9934 49.2298 67.9934 57.6969Z" fill="#FAFDFD"/>
<path d="M52.8191 42.9377C48.9348 43.0737 45.3567 44.1612 42.4482 46.3751C46.1412 49.3657 49.1262 53.4439 51.0779 57.3668H52.8191H54.5604C56.5121 53.4439 59.4971 49.3657 63.19 46.3751C60.2625 44.1612 56.6843 43.0931 52.8191 42.9377Z" fill="#2D337F"/>
<path d="M61.3926 56.8615C61.3926 57.6577 60.7612 58.318 59.9575 58.318C59.173 58.318 58.5225 57.6772 58.5225 56.8615C58.5225 56.0653 59.1539 55.405 59.9575 55.405C60.7612 55.4244 61.3926 56.0653 61.3926 56.8615Z" fill="#2D337F"/>
<path d="M47.9209 56.8615C47.9209 57.6577 47.2895 58.318 46.4859 58.318C45.7014 58.318 45.0508 57.6772 45.0508 56.8615C45.0508 56.0653 45.6822 55.405 46.4859 55.405C47.2704 55.4244 47.9209 56.0653 47.9209 56.8615Z" fill="#2D337F"/>
<path d="M51.2122 56.5703C50.9251 57.2888 50.7529 58.2016 50.7529 59.2114C50.7529 61.5612 52.8003 63.4644 52.8003 63.4644C52.8003 63.4644 54.8477 61.5612 54.8477 59.2114C54.8477 58.2016 54.6755 57.2888 54.3885 56.5703H51.2122Z" fill="#2D337F"/>
</svg>
