<svg width="94" height="94" viewBox="0 0 94 94" fill="none" xmlns="http://www.w3.org/2000/svg">
<path d="M91.84 46.8267C91.84 71.3735 71.9387 91.2789 47.3971 91.2789C22.8554 91.2789 2.9541 71.3735 2.9541 46.8267C2.9541 22.2799 22.8554 2.37451 47.3971 2.37451C71.9387 2.37451 91.84 22.2799 91.84 46.8267Z" fill="white"/>
<path d="M47.3969 93.415C21.7097 93.415 0.798828 72.4997 0.798828 46.8072C0.798828 21.1146 21.7097 0.21875 47.3969 0.21875C73.0842 0.21875 93.9951 21.1146 93.9951 46.8266C93.9951 72.5386 73.0842 93.415 47.3969 93.415ZM47.3969 4.52997C24.0785 4.52997 5.10915 23.5032 5.10915 46.8266C5.10915 70.1499 24.0785 89.1232 47.3969 89.1232C70.7154 89.1232 89.6847 70.1499 89.6847 46.8266C89.6847 23.5032 70.7154 4.52997 47.3969 4.52997Z" fill="#27489E"/>
<path d="M83.7824 46.8268C83.7824 66.9264 67.4925 83.2197 47.3971 83.2197C27.3016 83.2197 11.0117 66.9264 11.0117 46.8268C11.0117 26.7272 27.3016 10.4338 47.3971 10.4338C67.4925 10.4338 83.7824 26.7272 83.7824 46.8268Z" fill="white"/>
<path d="M47.3974 85.2977C26.1759 85.2977 8.93457 68.0334 8.93457 46.8268C8.93457 25.6008 26.1759 8.35596 47.3974 8.35596C68.619 8.35596 85.8603 25.6008 85.8603 46.8268C85.8603 68.0334 68.5996 85.2977 47.3974 85.2977ZM47.3974 12.5118C28.4864 12.5118 13.0896 27.8924 13.0896 46.8268C13.0896 65.7613 28.4864 81.1418 47.3974 81.1418C66.3085 81.1418 81.7053 65.7418 81.7053 46.8268C81.7053 27.9118 66.3085 12.5118 47.3974 12.5118Z" fill="#2E3895"/>
<path d="M73.9387 56.6143L35.8059 73.3543C34.4856 73.9369 32.9518 73.3349 32.3693 72.0143L21.1081 46.3606C20.5256 45.0401 21.1275 43.5059 22.4478 42.9233L60.5806 26.1833C61.9008 25.6007 63.4347 26.2027 64.0172 27.5233L75.2784 53.177C75.8609 54.4976 75.259 56.0317 73.9387 56.6143Z" fill="#E35354"/>
<path d="M58.0766 27.3097L41.709 34.4951L55.0671 64.9067L71.4347 57.7213C74.1335 56.5367 75.3567 53.3907 74.1723 50.6913L65.1051 30.0479C63.9402 27.3485 60.7754 26.1251 58.0766 27.3097Z" fill="#CA3232"/>
<path d="M58.9302 27.0186C58.639 27.0962 58.3671 27.1739 58.0759 27.3099L24.9524 41.8554C24.6806 41.9719 24.4088 42.1273 24.1758 42.2826C24.3311 42.6128 24.5059 42.9235 24.7388 43.2148L28.0978 47.6619C31.2043 51.7595 36.6408 53.1772 41.3394 51.0993L53.8044 45.6228C58.5031 43.5643 61.1436 38.5928 60.2311 33.5437L59.2409 28.0478C59.1826 27.6983 59.0661 27.3487 58.9302 27.0186Z" fill="#CA3232"/>
<path d="M72.9293 47.6813C72.3663 47.7978 71.842 47.9532 71.3178 48.1862C67.4346 49.8952 65.6678 54.42 67.3764 58.304C67.5511 58.6924 67.7453 59.0614 67.9977 59.4304L68.1919 59.7217L72.6769 57.7408C75.0068 56.7116 76.0553 53.9928 75.0457 51.6818L73.2594 47.623L72.9293 47.6813Z" fill="#B12024"/>
<path d="M31.2427 65.7806C30.7378 66.0136 30.233 66.2855 29.7865 66.6156L29.5146 66.8098L31.3009 70.8686C32.33 73.199 35.0482 74.2477 37.3587 73.2378L41.8437 71.257L41.7661 70.9075C41.669 70.4802 41.5137 70.0724 41.3583 69.684C39.6497 65.8583 35.1064 64.0911 31.2427 65.7806Z" fill="#CA3232"/>
<path d="M51.415 26.9214L48.8133 28.0671L47.8425 25.8727C47.4736 25.0182 46.464 24.6298 45.6097 24.9988L32.0962 30.9413C31.2419 31.3103 30.8536 32.3201 31.2225 33.1746L32.1933 35.369L29.5916 36.5148L28.6208 34.3203C27.6112 32.0288 28.6596 29.3488 30.9507 28.339L44.4642 22.3965C46.7552 21.3867 49.4346 22.4354 50.4443 24.7269L51.415 26.9214Z" fill="#F4B91F"/>
<path d="M53.8042 45.6423C58.5029 43.5837 61.1434 38.6122 60.2309 33.5631L59.2407 28.0672C59.1824 27.6983 59.0659 27.3487 58.93 27.0186C58.7941 27.0574 58.6582 27.0962 58.5223 27.1351C58.3864 27.1933 58.231 27.2322 58.0951 27.2904L41.7275 34.4758L47.7853 48.264L53.8042 45.6423Z" fill="#B12024"/>
<path d="M53.0856 44.011L40.6206 49.4874C36.6986 51.2158 32.097 50.0117 29.5147 46.5938L26.1558 42.1466C24.9714 40.5736 25.5539 38.3015 27.3595 37.5053L53.2409 26.1446C55.0466 25.3484 57.1241 26.4553 57.4736 28.3973L58.4638 33.8932C59.2404 38.0879 57.027 42.2826 53.0856 44.011Z" fill="#E35354"/>
<path d="M54.0221 43.4723L40.0137 49.624L42.0196 54.1937L56.028 48.0419L54.0221 43.4723Z" fill="#CA3232"/>
<path d="M53.3024 41.8426L39.2939 47.9944L41.2999 52.5641L55.3083 46.4123L53.3024 41.8426Z" fill="#F4B91F"/>
</svg>
