<svg width="93" height="94" viewBox="0 0 93 94" fill="none" xmlns="http://www.w3.org/2000/svg">
<path d="M90.6954 46.8267C90.6954 71.3735 71.0825 91.2789 46.8965 91.2789C22.7105 91.2789 3.09766 71.3735 3.09766 46.8267C3.09766 22.2799 22.7105 2.37451 46.8965 2.37451C71.0825 2.37451 90.6954 22.2799 90.6954 46.8267Z" fill="white"/>
<path d="M46.8964 93.415C21.5815 93.415 0.973633 72.4997 0.973633 46.8072C0.973633 21.1146 21.5815 0.21875 46.8964 0.21875C72.2113 0.21875 92.8192 21.1146 92.8192 46.8266C92.8192 72.5386 72.2113 93.415 46.8964 93.415ZM46.8964 4.52997C23.9159 4.52997 5.22149 23.5032 5.22149 46.8266C5.22149 70.1499 23.9159 89.1232 46.8964 89.1232C69.8769 89.1232 88.5713 70.1499 88.5713 46.8266C88.5713 23.5032 69.8769 4.52997 46.8964 4.52997Z" fill="#A12045"/>
<path d="M82.7542 46.8265C82.7542 66.9262 66.7003 83.2195 46.8961 83.2195C27.0919 83.2195 11.0381 66.9262 11.0381 46.8265C11.0381 26.7269 27.0919 10.4336 46.8961 10.4336C66.7003 10.4336 82.7542 26.7269 82.7542 46.8265Z" fill="#B72D50"/>
<path d="M46.8966 85.2975C25.9826 85.2975 8.99121 68.0331 8.99121 46.8266C8.99121 25.6006 25.9826 8.35571 46.8966 8.35571C67.8106 8.35571 84.8021 25.6006 84.8021 46.8266C84.8021 68.0331 67.7915 85.2975 46.8966 85.2975ZM46.8966 12.5116C28.2596 12.5116 13.086 27.8922 13.086 46.8266C13.086 65.761 28.2596 81.1416 46.8966 81.1416C65.5336 81.1416 80.7073 65.7416 80.7073 46.8266C80.7073 27.9116 65.5336 12.5116 46.8966 12.5116Z" fill="#A12045"/>
<path d="M48.3506 83.8025C49.0203 83.4529 49.4795 82.7149 49.4795 81.8605V77.8405C49.4795 77.1803 49.9388 76.6365 50.5511 76.5782C57.4586 75.8014 61.4003 72.5583 63.7539 65.7225C64.6915 63.0037 66.05 57.8963 67.4086 52.0703C67.5999 51.2547 67.3129 50.4196 66.7388 49.9341C67.5999 46.1472 69.7812 36.0683 69.7812 32.1843C69.7812 25.2125 64.9019 24.0473 61.0368 23.8532C60.4053 22.8433 59.4103 22.2413 58.1666 22.1248C57.9179 22.1054 57.6882 22.0859 57.4778 22.0859C54.8563 22.0859 54.8563 24.0862 54.8563 25.4067C54.8563 26.7273 54.8563 28.7081 57.4778 28.7081C57.6882 28.7081 57.9179 28.6887 58.1666 28.6693C59.3721 28.5528 60.3671 27.9508 60.9985 26.9992C65.8778 27.2905 66.8537 29.1354 66.8537 32.1843C66.8537 34.67 65.7247 41.1563 63.9069 49.1767C63.1798 49.3127 62.5675 49.9147 62.3953 50.7109C61.0942 56.3427 59.7739 61.2171 58.9128 63.7805C57.1907 68.8103 54.952 71.1989 46.9155 71.1989C38.879 71.1989 36.6403 68.8103 34.9182 63.7805C34.038 61.2365 32.7369 56.3427 31.4357 50.7109C31.2444 49.9147 30.6512 49.3127 29.9241 49.1767C28.1063 41.1369 26.9774 34.6506 26.9774 32.1843C26.9774 29.1354 27.9532 27.2905 32.8325 26.9992C33.464 27.9702 34.459 28.5528 35.6644 28.6693C35.9132 28.6887 36.1428 28.7081 36.3533 28.7081C38.9747 28.7081 38.9747 26.7079 38.9747 25.3873C38.9747 24.0668 38.9747 22.0859 36.3533 22.0859C36.1428 22.0859 35.9132 22.1054 35.6644 22.1248C34.4207 22.2413 33.4257 22.8627 32.7943 23.8532C28.9291 24.0473 24.0498 25.232 24.0498 32.1843C24.0498 36.0683 26.2311 46.1472 27.0922 49.9341C26.499 50.4196 26.2311 51.2547 26.4225 52.0703C27.781 57.8963 29.1396 62.9843 30.0772 65.7225C32.4307 72.5583 36.3724 75.8209 43.28 76.5782C43.8923 76.6559 44.3515 77.1997 44.3515 77.8405V81.8605C44.3515 82.7149 44.8107 83.4529 45.4804 83.8025V86.696C46.0545 86.7543 46.6094 86.7737 47.1834 86.7737C47.5852 86.7737 47.9871 86.7543 48.3889 86.7349V83.8025H48.3506Z" fill="white"/>
<path d="M25.6371 59.3529L25.8859 60.421L26.1538 59.3529L26.9957 56.0321C26.9 55.6437 26.8043 55.2359 26.7087 54.8475L25.905 58.1488L22.0207 41.9138L21.8868 41.3118L21.772 41.9138C21.5423 43.0596 21.2745 44.2248 20.93 45.3511C20.5856 46.4775 20.2029 47.5844 19.6098 48.5942C19.3227 49.0797 18.9592 49.5652 18.4617 49.7789C18.2129 49.8954 17.9451 49.8565 17.658 49.8565L16.8353 49.876L13.5059 49.9342L16.8161 49.9731L17.6389 49.9925H18.0599C18.1364 49.9925 18.2129 49.9731 18.2703 49.9731C18.3469 49.9536 18.4043 49.9342 18.4808 49.9148C19.0166 49.6818 19.3993 49.1963 19.7054 48.7108C20.3177 47.7009 20.7387 46.5746 21.1023 45.4676C21.4084 44.5355 21.6572 43.5645 21.8676 42.6129L25.6371 59.3529Z" fill="white"/>
<path d="M48.3313 30.6889L52.2156 59.7023L52.4835 61.722L53.0192 59.7606L55.2006 51.7207C55.2962 51.41 55.411 51.1187 55.5641 50.8857C55.7172 50.6526 55.9085 50.4973 56.1573 50.4196C56.6548 50.2448 57.3436 50.3225 57.9751 50.3031L61.8594 50.2836H62.2038C62.3377 50.0118 62.5291 49.7593 62.7587 49.5845H61.8594L57.9751 49.5651H56.9992C56.6548 49.5651 56.3104 49.5845 55.9277 49.701C55.545 49.8176 55.1814 50.1089 54.9709 50.439C54.7413 50.7691 54.6074 51.1381 54.5117 51.4877L52.7896 57.605L48.7714 26.6884L48.2739 22.8044L47.8338 26.6884L45.7481 45.4092L44.0451 61.0617C43.6625 59.1391 43.2606 57.236 42.8014 55.3328C42.4378 53.8763 42.0934 52.4393 41.5768 50.9828C41.5003 50.808 41.4429 50.6138 41.3472 50.439C41.2515 50.2448 41.175 50.07 41.0219 49.8564L40.9454 49.7787C40.9071 49.7399 40.8688 49.7205 40.8497 49.6816C40.8114 49.6428 40.754 49.6234 40.6966 49.5845C40.6392 49.5651 40.5244 49.5457 40.467 49.5457H40.1991H39.6825H37.616C37.1185 49.5457 36.6592 49.1379 36.3722 48.5747C36.2191 48.2834 36.1043 47.9727 36.0278 47.6425L35.779 46.555L34.7649 42.205L32.7175 33.5242L32.3348 31.9318L31.9521 33.5048L28.8906 46.0501C28.9863 46.5356 29.1011 47.0017 29.2159 47.5066L32.3348 35.3109L33.9613 42.438L34.9563 46.7881L35.205 47.8756C35.3007 48.264 35.4346 48.6524 35.626 49.0213C35.8173 49.3903 36.0661 49.7399 36.4105 50.0118C36.7549 50.2836 37.1759 50.4778 37.6351 50.4778H39.7207H40.2374H40.3905C40.4479 50.5555 40.5244 50.6915 40.5818 50.8274C40.6583 50.9828 40.7157 51.1381 40.7731 51.3129C41.2515 52.6529 41.5959 54.1094 41.9403 55.5464C42.5527 58.4789 43.1458 61.3918 43.6816 64.3048L44.2556 67.412L44.6 64.266L46.6857 45.5452L48.3313 30.6889ZM40.4287 50.5361H40.4479C40.4479 50.5361 40.4479 50.5361 40.4287 50.5361Z" fill="white"/>
<path d="M68.4408 50.2448C68.479 50.2448 68.5364 50.2448 68.5938 50.2254C68.6512 50.206 68.7086 50.206 68.7661 50.1865C69.187 50.0118 69.4358 49.701 69.6462 49.4097C70.0481 48.8077 70.3351 48.1474 70.5838 47.5066C70.8326 46.8463 71.0622 46.186 71.2727 45.5258C71.5406 44.6519 71.7702 43.778 71.9806 42.9041L73.4731 57.5661L73.5497 58.2847L73.7027 57.5855C73.9324 56.5951 74.1811 55.6047 74.4681 54.6337C74.7551 53.6627 75.0613 52.6917 75.444 51.7596C75.6353 51.2935 75.8458 50.8274 76.152 50.439C76.305 50.2448 76.4773 50.07 76.726 50.0894H77.434L80.285 50.0506L77.434 50.0118H76.726C76.6686 50.0118 76.6112 50.0118 76.5347 50.0312C76.4773 50.0506 76.4198 50.0894 76.3624 50.1089C76.2668 50.1865 76.1711 50.2642 76.0946 50.3613C75.7693 50.7497 75.5588 51.2158 75.3483 51.6819C74.9465 52.614 74.6212 53.585 74.3151 54.556C74.0854 55.3134 73.875 56.0708 73.6836 56.8476L72.3442 41.3505L72.2103 39.7969L71.8658 41.3116C71.5597 42.6516 71.1961 43.9916 70.7943 45.3121C70.5838 45.9724 70.3733 46.6133 70.1055 47.2541C69.8567 47.8756 69.5697 48.5164 69.2061 49.0213C69.0339 49.2738 68.8043 49.5068 68.613 49.5845C68.5938 49.6039 68.5747 49.5845 68.5556 49.6039C68.5364 49.6039 68.5173 49.6234 68.4599 49.6039H68.2111H67.7328H66.5082C66.489 49.7205 66.4508 49.837 66.4316 49.9341C66.5464 50.0312 66.6421 50.1477 66.7378 50.2642H67.7328H68.2111L68.4408 50.2448Z" fill="white"/>
</svg>
