<?xml version="1.0" encoding="UTF-8"?>
<svg width="147px" height="40px" viewBox="0 0 147 40" version="1.1" xmlns="http://www.w3.org/2000/svg" xmlns:xlink="http://www.w3.org/1999/xlink">
    <!-- Generator: Sketch 51.1 (57501) - http://www.bohemiancoding.com/sketch -->
    <title>Logo</title>
    <desc>Created with Sketch.</desc>
    <defs></defs>
    <g id="Logo" stroke="none" stroke-width="1" fill="none" fill-rule="evenodd">
        <g id="Logo-color" transform="translate(4.000000, 4.000000)" fill-rule="nonzero">
            <path d="M26.8414566,4e-05 C29.8093539,4e-05 32.2152102,2.40164 32.2152102,5.36363999 C32.2152102,8.32603999 29.8093539,10.72764 26.8414566,10.72764 C23.8735594,10.72764 21.4677032,8.32603999 21.4677032,5.36363999 C21.4677032,2.40164 23.8735594,4e-05 26.8414566,4e-05 Z M26.8414566,14.34244 C28.6756539,14.34244 30.1626083,15.82664 30.1626083,17.65744 C30.1626083,19.48824 28.6756539,20.97244 26.8414566,20.97244 C25.0070589,20.97244 23.5201047,19.48824 23.5201047,17.65744 C23.5201047,15.82664 25.0070589,14.34244 26.8414566,14.34244 Z M14.5214772,14.34244 C16.3556745,14.34244 17.8426287,15.82664 17.8426287,17.65744 C17.8426287,19.48824 16.3556745,20.97244 14.5214772,20.97244 C12.6872798,20.97244 11.2001252,19.48824 11.2001252,17.65744 C11.2001252,15.82664 12.6872798,14.34244 14.5214772,14.34244 Z M14.5214772,2.04868 C16.3556745,2.04868 17.8426287,3.53307999 17.8426287,5.36368 C17.8426287,7.19448 16.3556745,8.67867999 14.5214772,8.67867999 C12.6872798,8.67867999 11.2001252,7.19448 11.2001252,5.36368 C11.2001252,3.53307999 12.6872798,2.04868 14.5214772,2.04868 Z M2.25305318,27.9022 C3.38675306,27.9022 4.30565508,28.8196001 4.30565508,29.9512 C4.30565508,31.0825999 3.38675306,32 2.25305318,32 C1.1193533,32 0.200250911,31.0825999 0.200250911,29.9512 C0.200250911,28.8196001 1.1193533,27.9022 2.25305318,27.9022 Z M14.5214772,27.9022 C15.655177,27.9022 16.574079,28.8196001 16.574079,29.9512 C16.574079,31.0825999 15.655177,32 14.5214772,32 C13.3877773,32 12.4686749,31.0825999 12.4686749,29.9512 C12.4686749,28.8196001 13.3877773,27.9022 14.5214772,27.9022 Z M26.8414566,27.9022 C27.9751565,27.9022 28.8940586,28.8196001 28.8940586,29.9512 C28.8940586,31.0825999 27.9751565,32 26.8414566,32 C25.7077568,32 24.7886544,31.0825999 24.7886544,29.9512 C24.7886544,28.8196001 25.7077568,27.9022 26.8414566,27.9022 Z M2.25305318,15.60864 C3.38675306,15.60864 4.30565508,16.52604 4.30565508,17.65744 C4.30565508,18.78884 3.38675306,19.70624 2.25305318,19.70624 C1.1193533,19.70624 0.200250911,18.78884 0.200250911,17.65744 C0.200250911,16.52604 1.1193533,15.60864 2.25305318,15.60864 Z M2.25305318,3.31489999 C3.38675306,3.31489999 4.30565508,4.23230001 4.30565508,5.36369999 C4.30565508,6.49529999 3.38675306,7.41249999 2.25305318,7.41249999 C1.1193533,7.41249999 0.200250911,6.49529999 0.200250911,5.36369999 C0.200250911,4.23230001 1.1193533,3.31489999 2.25305318,3.31489999 Z" id="Combined-Shape" fill="#1CA84A"></path>
            <g id="Group-4" transform="translate(49.365773, 5.097345)" fill="#303640">
                <path d="M8.79770178,12.7355915 L4.17413785,12.7355915 L4.17413785,18.6513915 L8.51838442,18.6513915 C9.59397667,18.6513915 10.457977,18.4035915 11.1095839,17.9079915 C11.7611909,17.4123915 12.0869943,16.7107915 12.0869943,15.8017915 C12.0869943,14.8107915 11.7868384,14.0517915 11.1871275,13.5251915 C10.587016,12.9987915 9.79074112,12.7355915 8.79770178,12.7355915 Z M7.46343038,4.24859152 L4.17413785,4.24859152 L4.17413785,9.4831915 L7.15305551,9.4831915 C8.27032495,9.4831915 9.1439431,9.27179152 9.77531253,8.84819152 C10.4058805,8.4251915 10.7216654,7.7591915 10.7216654,6.8503915 C10.7216654,5.85939152 10.4317284,5.1779915 9.85285617,4.80619152 C9.27338285,4.43459152 8.47670722,4.24859152 7.46343038,4.24859152 Z M8.05312265,0.903591504 C10.1009156,0.903591504 11.7659998,1.3525915 13.0489761,2.2509915 C14.3313514,3.1491915 14.9729397,4.6619915 14.9729397,6.78859152 C14.9729397,7.5735915 14.7914035,8.28059152 14.4297336,8.91019152 C14.067663,9.54019152 13.5967908,10.0821915 13.0179186,10.5363915 C13.9694811,11.0317915 14.7505278,11.7031915 15.3608583,12.5495915 C15.970788,13.3965915 16.2761536,14.4699915 16.2761536,15.7707915 C16.2761536,17.7121915 15.5982981,19.2299915 14.2435888,20.3239915 C12.8886792,21.4187915 11.0833353,21.9655915 8.82875929,21.9655915 L0.171123332,21.9655915 L0.171123332,0.903591504 L8.05312265,0.903591504 Z" id="Fill-22"></path>
                <path d="M29.5934402,20.2771915 C28.910776,20.9173915 28.0728238,21.4285915 27.0797844,21.8103915 C26.0869455,22.1921915 25.1870787,22.3833915 24.3801842,22.3833915 C22.3321908,22.3833915 20.8784982,21.7795915 20.0203086,20.5715915 C19.161518,19.3635915 18.7325234,17.9029915 18.7325234,16.1887915 L18.7325234,6.94339149 L22.7976529,6.94339149 L22.7976529,16.0027915 C22.7976529,16.9529915 23.0250742,17.6807915 23.480117,18.1865915 C23.9351599,18.6925915 24.5973865,18.9453915 25.4661957,18.9453915 C26.0039918,18.9453915 26.5728455,18.8113915 27.172957,18.5427915 C27.7728682,18.2743915 28.3210836,17.9645915 28.8176032,17.6135915 L28.8176032,6.94339149 L32.8518757,6.94339149 L32.8518757,21.7639915 L29.9334702,21.7639915 L29.5934402,20.2771915 Z" id="Fill-24"></path>
                <path d="M36.7303996,21.9657115 L40.7644718,21.9657115 L40.7644718,6.9435115 L36.7303996,6.9435115 L36.7303996,21.9657115 Z M38.7475358,0.284111504 C39.3885232,0.284111504 39.9315288,0.500911504 40.3765533,0.934511504 C40.8211766,1.3681115 41.043789,1.9053115 41.043789,2.5451115 C41.043789,3.18531152 40.8211766,3.72211152 40.3765533,4.15571152 C39.9315288,4.58931152 39.3885232,4.80611152 38.7475358,4.80611152 C38.1267862,4.80611152 37.5992088,4.58931152 37.1648042,4.15571152 C36.7303996,3.72211152 36.5131972,3.18531152 36.5131972,2.5451115 C36.5131972,1.9053115 36.7303996,1.3681115 37.1648042,0.934511504 C37.5992088,0.500911504 38.1267862,0.284111504 38.7475358,0.284111504 Z" id="Fill-26"></path>
                <polygon id="Fill-28" points="44.6911449 21.9657115 48.6941592 21.9657115 48.6941592 0.0981115044 44.6911449 0.0981115044"></polygon>
                <path d="M59.2188334,9.79301151 C57.8118275,9.79301151 56.8344169,10.2886115 56.2864018,11.2796115 C55.7379861,12.2708115 55.4640787,13.2930115 55.4640787,14.3460115 C55.4640787,15.5230115 55.7123386,16.5762115 56.2090587,17.5054115 C56.7051776,18.4346115 57.7086362,18.8992115 59.2188334,18.8992115 C59.6945146,18.8992115 60.1962439,18.7908115 60.7238211,18.5740115 C61.2513982,18.3572115 61.7425079,18.1046115 62.1977511,17.8150115 L62.1977511,10.8770115 C61.7425079,10.5672115 61.2513982,10.3094115 60.7238211,10.1028115 C60.1962439,9.89661151 59.6945146,9.79301151 59.2188334,9.79301151 Z M66.2626804,0.0980115044 L66.2626804,21.9656115 L64.1527722,21.9656115 L63.0357031,20.5098115 C62.3530388,21.0882115 61.5511534,21.5374115 60.6306486,21.8572115 C59.7097428,22.1770115 58.8776013,22.3372115 58.1326216,22.3372115 C55.9397599,22.3372115 54.2540376,21.5734115 53.074653,20.0452115 C51.8954689,18.5174115 51.3059769,16.6178115 51.3059769,14.3460115 C51.3059769,12.0748115 51.9313354,10.1752115 53.1832543,8.64701151 C54.4345719,7.11901151 56.1467432,6.35501151 58.3189666,6.35501151 C58.8776013,6.35501151 59.5081693,6.45301151 60.2118728,6.6492115 C60.9147747,6.8456115 61.5772018,7.11901151 62.1977511,7.4700115 L62.1977511,0.0980115044 L66.2626804,0.0980115044 Z" id="Fill-29"></path>
                <path d="M70.0964011,21.9657115 L74.1302728,21.9657115 L74.1302728,6.9435115 L70.0964011,6.9435115 L70.0964011,21.9657115 Z M72.1131368,0.284111504 C72.7543244,0.284111504 73.29733,0.500911504 73.7423542,0.934511504 C74.1869779,1.3681115 74.4095903,1.9053115 74.4095903,2.5451115 C74.4095903,3.18531152 74.1869779,3.72211152 73.7423542,4.15571152 C73.29733,4.58931152 72.7543244,4.80611152 72.1131368,4.80611152 C71.4925872,4.80611152 70.96501,4.58931152 70.5306054,4.15571152 C70.0964011,3.72211152 69.8791988,3.18531152 69.8791988,2.5451115 C69.8791988,1.9053115 70.0964011,1.3681115 70.5306054,0.934511504 C70.96501,0.500911504 71.4925872,0.284111504 72.1131368,0.284111504 Z" id="Fill-30"></path>
                <path d="M88.0597537,21.6558915 C87.7287406,21.9244915 87.2580686,22.1460915 86.6479385,22.3218915 C86.0374076,22.4968915 85.494402,22.5850915 85.0189214,22.5850915 C83.1568722,22.5850915 81.6931611,22.1150915 80.6277879,21.1756915 C79.5622141,20.2362915 79.029828,18.8992915 79.029828,17.1646915 L79.029828,10.0716915 L76.4067694,10.0716915 L76.4067694,6.97429151 L79.029828,6.97429151 L79.029828,2.7000915 L83.0328427,2.7000915 L83.0328427,6.97429151 L86.3986768,6.97429151 L86.3986768,10.0716915 L83.0328427,10.0716915 L83.0328427,16.4522915 C83.0328427,17.2372915 83.2189874,17.8824915 83.5914774,18.3880915 C83.9637668,18.8940915 84.5115817,19.1468915 85.2361237,19.1468915 C85.504621,19.1468915 85.7737192,19.1160915 86.043018,19.0538915 C86.311315,18.9922915 86.5908328,18.8888915 86.8807699,18.7442915 L88.0597537,21.6558915 Z" id="Fill-31"></path>
            </g>
        </g>
    </g>
</svg>