<svg width="18" height="15" viewBox="0 0 18 15" fill="none" xmlns="http://www.w3.org/2000/svg">
<path fill-rule="evenodd" clip-rule="evenodd" d="M5.661 15C12.4533 15 16.1685 9.22843 16.1685 4.22387C16.1685 4.05957 16.1685 3.8962 16.1577 3.73375C16.8804 3.19841 17.5041 2.53384 18 1.77328C17.3268 2.07972 16.6113 2.28094 15.8796 2.36954C16.65 1.89604 17.2269 1.1521 17.5032 0.274315C16.7778 0.715513 15.9849 1.02657 15.1578 1.19363C13.7592 -0.331179 11.4201 -0.40502 9.9324 1.02934C8.9739 1.95419 8.5662 3.33317 8.8641 4.64845C5.895 4.49523 3.1284 3.05719 1.2528 0.691515C0.2727 2.42216 0.774 4.63553 2.3967 5.74683C1.809 5.7293 1.2339 5.56685 0.72 5.27333V5.32133C0.7209 7.12396 1.9602 8.67647 3.6828 9.03367C3.1392 9.18597 2.5686 9.20812 2.016 9.09828C2.4993 10.6416 3.8862 11.6984 5.4657 11.7289C4.158 12.7829 2.5425 13.3552 0.8793 13.3534C0.5859 13.3524 0.2925 13.3349 0 13.2989C1.6893 14.4102 3.654 15 5.661 14.9972" fill="white"/>
</svg>
