<svg width="225" height="197" viewBox="0 0 225 197" fill="none" xmlns="http://www.w3.org/2000/svg">
<g clip-path="url(#clip0_4701_1969)">
<path d="M153.854 47.0376C155.898 47.0376 157.558 45.3138 157.558 43.1899V11.543C157.558 5.17895 152.572 0 146.445 0H11.6126C5.48585 0 0.5 5.17895 0.5 11.543V185.457C0.5 191.821 5.48585 197 11.6126 197H146.445C152.572 197 157.558 191.821 157.558 185.457V167.762C157.558 165.638 155.898 163.914 153.854 163.914C151.809 163.914 150.149 165.638 150.149 167.762V185.457C150.149 187.577 148.486 189.305 146.445 189.305H11.6126C9.57157 189.305 7.90839 187.577 7.90839 185.457V11.543C7.90839 9.42291 9.57157 7.69531 11.6126 7.69531H146.445C148.486 7.69531 150.149 9.42291 150.149 11.543V43.1899C150.149 45.3138 151.809 47.0376 153.854 47.0376Z" fill="#1F2C4C"/>
<path d="M79.0298 20.7773C60.2384 20.7773 44.9512 36.6566 44.9512 56.1758C44.9512 66.3028 49.0665 75.4448 55.6489 81.9051C55.7711 82.0436 55.9045 82.1705 56.0452 82.2898C62.1127 88.0536 70.1804 91.5742 79.0298 91.5742C87.8791 91.5742 95.9468 88.0536 102.011 82.2898C102.155 82.1705 102.285 82.0397 102.407 81.9051C108.993 75.4487 113.108 66.3028 113.108 56.1758C113.108 36.6566 97.8211 20.7773 79.0298 20.7773ZM79.0298 83.8789C72.9808 83.8789 67.3986 81.7742 62.9202 78.2344C66.1762 72.2397 72.2511 68.4883 79.0298 68.4883C85.8084 68.4883 91.8833 72.2397 95.1393 78.2344C90.6609 81.7742 85.0787 83.8789 79.0298 83.8789ZM73.103 54.6367V52.1357C73.103 48.7421 75.7627 45.9795 79.0298 45.9795C82.2969 45.9795 84.9565 48.7421 84.9565 52.1357V54.6367C84.9565 58.0303 82.2969 60.793 79.0298 60.793C75.7627 60.793 73.103 58.0303 73.103 54.6367ZM100.492 72.5976C97.7582 68.3882 93.9725 65.1177 89.5793 63.0939C91.324 60.7506 92.3649 57.8187 92.3649 54.6329V52.1319C92.3649 44.4943 86.3826 38.2803 79.0298 38.2803C71.6769 38.2803 65.6947 44.4943 65.6947 52.1319V54.6329C65.6947 57.8149 66.7355 60.7506 68.4802 63.0939C64.0833 65.1139 60.2976 68.3882 57.5677 72.5976C54.2969 67.9996 52.3596 62.3205 52.3596 56.1758C52.3596 40.9006 64.3241 28.4727 79.0298 28.4727C93.7354 28.4727 105.7 40.9006 105.7 56.1758C105.7 62.3205 103.763 67.9996 100.492 72.5976Z" fill="#1F2C4C"/>
<path d="M99.0311 168.527H79.0284C76.9837 168.527 75.3242 170.251 75.3242 172.375C75.3242 174.499 76.9837 176.223 79.0284 176.223H99.0311C101.076 176.223 102.735 174.499 102.735 172.375C102.735 170.251 101.076 168.527 99.0311 168.527Z" fill="#1F2C4C"/>
<path d="M99.0303 146.98H46.4308C44.386 146.98 42.7266 148.704 42.7266 150.828C42.7266 152.952 44.386 154.676 46.4308 154.676H99.0303C101.075 154.676 102.734 152.952 102.734 150.828C102.734 148.704 101.075 146.98 99.0303 146.98Z" fill="#1F2C4C"/>
<path d="M99.0303 125.434H46.4308C44.386 125.434 42.7266 127.157 42.7266 129.281C42.7266 131.405 44.386 133.129 46.4308 133.129H99.0303C101.075 133.129 102.734 131.405 102.734 129.281C102.734 127.157 101.075 125.434 99.0303 125.434Z" fill="#1F2C4C"/>
<path d="M33.2311 105.014C32.5421 104.298 31.5864 103.887 30.6085 103.887C29.6343 103.887 28.6786 104.298 27.9896 105.014C27.3006 105.73 26.9043 106.722 26.9043 107.734C26.9043 108.746 27.3006 109.739 27.9896 110.455C28.6823 111.17 29.6343 111.582 30.6085 111.582C31.5864 111.582 32.5384 111.17 33.2311 110.455C33.92 109.739 34.3164 108.746 34.3164 107.734C34.3164 106.722 33.92 105.73 33.2311 105.014Z" fill="#1F2C4C"/>
<path d="M33.2311 126.561C32.5384 125.845 31.5864 125.434 30.6085 125.434C29.6343 125.434 28.6823 125.845 27.9896 126.561C27.3006 127.277 26.9043 128.269 26.9043 129.281C26.9043 130.293 27.3006 131.286 27.9896 132.002C28.6823 132.717 29.6343 133.129 30.6085 133.129C31.5864 133.129 32.5384 132.717 33.2311 132.002C33.92 131.286 34.3164 130.293 34.3164 129.281C34.3164 128.269 33.92 127.277 33.2311 126.561Z" fill="#1F2C4C"/>
<path d="M33.2311 148.108C32.5384 147.392 31.5864 146.98 30.6085 146.98C29.6343 146.98 28.6823 147.392 27.9896 148.108C27.3006 148.823 26.9043 149.816 26.9043 150.828C26.9043 151.84 27.3006 152.833 27.9896 153.548C28.6786 154.264 29.6343 154.676 30.6085 154.676C31.5864 154.676 32.5421 154.264 33.2311 153.548C33.92 152.833 34.3164 151.84 34.3164 150.828C34.3164 149.816 33.92 148.823 33.2311 148.108Z" fill="#1F2C4C"/>
<path d="M99.0303 103.887H46.4308C44.386 103.887 42.7266 105.61 42.7266 107.734C42.7266 109.858 44.386 111.582 46.4308 111.582H99.0303C101.075 111.582 102.734 109.858 102.734 107.734C102.734 105.61 101.075 103.887 99.0303 103.887Z" fill="#1F2C4C"/>
<path d="M116.268 106.014C114.545 107.969 113.493 110.566 113.493 113.417C113.493 117.38 115.523 120.855 118.56 122.786C117.627 124.422 117.09 126.33 117.09 128.365C117.09 132.329 119.12 135.803 122.157 137.734C121.224 139.37 120.687 141.278 120.687 143.314C120.687 149.366 125.428 154.291 131.255 154.291H141.919C144.501 154.291 146.964 154.314 149.342 154.337C151.494 154.36 153.591 154.379 155.636 154.379C167.623 154.379 178.057 153.675 190.074 148.254C191.811 151.855 195.397 154.337 199.53 154.337H221.119C222.982 154.337 224.493 152.767 224.493 150.832V91.0393C224.493 89.104 222.982 87.5341 221.119 87.5341H192.341C190.477 87.5341 188.966 89.104 188.966 91.0393V92.8901C177.857 87.2802 161.251 78.0535 159.825 60.1504C159.525 56.395 156.336 53.3823 152.691 53.3823C152.654 53.3823 152.621 53.3823 152.584 53.3823C148.82 53.4439 145.294 55.0099 142.653 57.7956C140.008 60.5813 138.552 64.2712 138.552 68.1843V69.3616C138.552 76.6376 140.13 81.9011 143.097 87.4841H127.532H123.935C118.109 87.4841 113.367 92.4091 113.367 98.4615C113.363 101.39 114.471 104.044 116.268 106.014ZM195.715 143.364V94.5446H217.755V147.334H210.11V135.888C210.11 133.952 208.598 132.382 206.735 132.382C204.872 132.382 203.361 133.952 203.361 135.888V147.334H199.538C197.43 147.334 195.715 145.553 195.715 143.364ZM134.503 105.945C134.503 104.01 132.992 102.44 131.129 102.44H127.532H123.935C121.828 102.44 120.113 100.658 120.113 98.4692C120.113 96.2798 121.828 94.4984 123.935 94.4984H127.532H149.087C149.09 94.4984 149.094 94.4984 149.098 94.4984H156.317C158.181 94.4984 159.692 92.9285 159.692 90.9932C159.692 89.0578 158.181 87.488 156.317 87.488H150.954C147.127 81.2586 145.301 76.6491 145.301 69.3655V68.192C145.301 63.9557 148.616 60.4582 152.691 60.3928H152.695C152.876 60.3928 153.095 60.6121 153.106 60.7313C153.906 70.7429 158.595 79.6041 167.048 87.0609C173.953 93.1517 181.984 97.1725 187.847 100.112C188.214 100.297 188.573 100.478 188.925 100.655V141.12C175.498 147.596 164.452 147.488 149.413 147.338C147.016 147.315 144.538 147.292 141.923 147.292H131.258C129.151 147.292 127.436 145.511 127.436 143.321C127.436 141.132 129.151 139.351 131.258 139.351C133.122 139.351 134.633 137.781 134.633 135.845C134.633 133.91 133.122 132.34 131.258 132.34H127.662C125.554 132.34 123.839 130.559 123.839 128.369C123.839 126.18 125.554 124.399 127.662 124.399H131.133C132.996 124.399 134.507 122.829 134.507 120.893C134.507 118.958 132.996 117.388 131.133 117.388H127.662H127.532H124.061C121.954 117.388 120.238 115.607 120.238 113.417C120.238 111.228 121.954 109.447 124.061 109.447H127.532H131.129C132.992 109.447 134.503 107.877 134.503 105.945Z" fill="#1F2C4C"/>
</g>
<defs>
<clipPath id="clip0_4701_1969">
<rect width="224" height="197" fill="white" transform="translate(0.5)"/>
</clipPath>
</defs>
</svg>
