<svg width="236" height="197" viewBox="0 0 236 197" fill="none" xmlns="http://www.w3.org/2000/svg">
<path d="M153.169 47.0376C155.205 47.0376 156.857 45.3138 156.857 43.1899V11.543C156.857 5.17895 151.893 0 145.794 0H11.563C5.46359 0 0.5 5.17895 0.5 11.543V185.457C0.5 191.821 5.46359 197 11.563 197H145.794C151.893 197 156.857 191.821 156.857 185.457V167.762C156.857 165.638 155.205 163.914 153.169 163.914C151.133 163.914 149.481 165.638 149.481 167.762V185.457C149.481 187.577 147.826 189.305 145.794 189.305H11.563C9.53107 189.305 7.87532 187.577 7.87532 185.457V11.543C7.87532 9.42291 9.53107 7.69531 11.563 7.69531H145.794C147.826 7.69531 149.481 9.42291 149.481 11.543V43.1899C149.481 45.3138 151.133 47.0376 153.169 47.0376Z" fill="#1F2C4C"/>
<path d="M43.5 21C30.8175 21 20.5 31.7661 20.5 45C20.5 51.8661 23.2775 58.0643 27.72 62.4443C27.8025 62.5383 27.8925 62.6243 27.9875 62.7052C32.0825 66.613 37.5275 69 43.5 69C49.4725 69 54.9175 66.613 59.01 62.7052C59.1075 62.6243 59.195 62.5357 59.2775 62.4443C63.7225 58.067 66.5 51.8661 66.5 45C66.5 31.7661 56.1825 21 43.5 21ZM43.5 63.7826C39.4175 63.7826 35.65 62.3557 32.6275 59.9557C34.825 55.8913 38.925 53.3478 43.5 53.3478C48.075 53.3478 52.175 55.8913 54.3725 59.9557C51.35 62.3557 47.5825 63.7826 43.5 63.7826ZM39.5 43.9565V42.2609C39.5 39.96 41.295 38.087 43.5 38.087C45.705 38.087 47.5 39.96 47.5 42.2609V43.9565C47.5 46.2574 45.705 48.1304 43.5 48.1304C41.295 48.1304 39.5 46.2574 39.5 43.9565ZM57.985 56.1339C56.14 53.28 53.585 51.0626 50.62 49.6904C51.7975 48.1017 52.5 46.1139 52.5 43.9539V42.2583C52.5 37.08 48.4625 32.867 43.5 32.867C38.5375 32.867 34.5 37.08 34.5 42.2583V43.9539C34.5 46.1113 35.2025 48.1017 36.38 49.6904C33.4125 51.06 30.8575 53.28 29.015 56.1339C26.8075 53.0165 25.5 49.1661 25.5 45C25.5 34.6435 33.575 26.2174 43.5 26.2174C53.425 26.2174 61.5 34.6435 61.5 45C61.5 49.1661 60.1925 53.0165 57.985 56.1339Z" fill="#1F2C4C"/>
<path d="M97.8514 169H78.1486C76.1346 169 74.5 170.568 74.5 172.5C74.5 174.432 76.1346 176 78.1486 176H97.8514C99.8654 176 101.5 174.432 101.5 172.5C101.5 170.568 99.8654 169 97.8514 169Z" fill="#1F2C4C"/>
<path d="M97.858 147H46.142C44.1316 147 42.5 148.792 42.5 151C42.5 153.208 44.1316 155 46.142 155H97.858C99.8684 155 101.5 153.208 101.5 151C101.5 148.792 99.8684 147 97.858 147Z" fill="#1F2C4C"/>
<path d="M97.858 125H46.142C44.1316 125 42.5 126.792 42.5 129C42.5 131.208 44.1316 133 46.142 133H97.858C99.8684 133 101.5 131.208 101.5 129C101.5 126.792 99.8684 125 97.858 125Z" fill="#1F2C4C"/>
<path d="M33.0837 105.014C32.3978 104.298 31.4464 103.887 30.4728 103.887C29.503 103.887 28.5515 104.298 27.8656 105.014C27.1797 105.73 26.7852 106.722 26.7852 107.734C26.7852 108.746 27.1797 109.739 27.8656 110.455C28.5552 111.17 29.503 111.582 30.4728 111.582C31.4464 111.582 32.3941 111.17 33.0837 110.455C33.7696 109.739 34.1642 108.746 34.1642 107.734C34.1642 106.722 33.7696 105.73 33.0837 105.014Z" fill="#1F2C4C"/>
<path d="M33.0837 126.561C32.3941 125.845 31.4464 125.434 30.4728 125.434C29.503 125.434 28.5552 125.845 27.8656 126.561C27.1797 127.277 26.7852 128.269 26.7852 129.281C26.7852 130.293 27.1797 131.286 27.8656 132.002C28.5552 132.717 29.503 133.129 30.4728 133.129C31.4464 133.129 32.3941 132.717 33.0837 132.002C33.7696 131.286 34.1642 130.293 34.1642 129.281C34.1642 128.269 33.7696 127.277 33.0837 126.561Z" fill="#1F2C4C"/>
<path d="M33.0837 148.108C32.3941 147.392 31.4464 146.98 30.4728 146.98C29.503 146.98 28.5552 147.392 27.8656 148.108C27.1797 148.823 26.7852 149.816 26.7852 150.828C26.7852 151.84 27.1797 152.833 27.8656 153.548C28.5515 154.264 29.503 154.676 30.4728 154.676C31.4464 154.676 32.3978 154.264 33.0837 153.548C33.7696 152.833 34.1642 151.84 34.1642 150.828C34.1642 149.816 33.7696 148.823 33.0837 148.108Z" fill="#1F2C4C"/>
<path d="M74.4036 103.887H44.6354C43.4782 103.887 42.5391 105.61 42.5391 107.734C42.5391 109.858 43.4782 111.582 44.6354 111.582H74.4036C75.5608 111.582 76.5 109.858 76.5 107.734C76.5 105.61 75.5608 103.887 74.4036 103.887Z" fill="#1F2C4C"/>
<path d="M232.883 66.1667H225.033V62.2417C225.033 57.1836 220.933 53.0833 215.875 53.0833C214.514 53.0909 213.173 53.4049 211.95 54.0018V50.4667C211.95 44.6861 207.264 40 201.483 40C195.703 40 191.017 44.6861 191.017 50.4667V66.1667H180.55V63.55C180.569 59.2335 177.085 55.7186 172.769 55.6993C170.808 55.6905 168.915 56.4193 167.467 57.741C164.509 55.0197 159.958 55.0197 157 57.741C154.042 55.0197 149.491 55.0197 146.533 57.741C143.344 54.8319 138.401 55.0589 135.492 58.248C134.17 59.6966 133.441 61.5891 133.45 63.55V66.1667H122.983V50.4667C122.983 44.6861 118.297 40 112.517 40C106.736 40 102.05 44.6861 102.05 50.4667V54.0018C100.827 53.4049 99.4857 53.0909 98.125 53.0833C93.067 53.0833 88.9667 57.1836 88.9667 62.2417V66.1667H81.1167C79.6716 66.1667 78.5 67.3383 78.5 68.7833V84.4833C78.5 85.9284 79.6716 87.1 81.1167 87.1H88.9667V91.025C88.9667 96.083 93.067 100.183 98.125 100.183C99.4857 100.176 100.827 99.8618 102.05 99.2649V102.8C102.05 108.581 106.736 113.267 112.517 113.267C118.297 113.267 122.983 108.581 122.983 102.8V87.1H128.217V95.8475C128.208 99.3189 129.588 102.65 132.05 105.097L138.683 111.733V155.133H143.917V110.65C143.917 109.956 143.641 109.291 143.15 108.8L135.75 101.397C134.282 99.923 133.455 97.9284 133.45 95.8475V79.25H148.776C149.767 79.2366 150.705 79.6916 151.309 80.4772C151.327 80.5034 151.348 80.5295 151.366 80.5583C151.479 80.7369 151.566 80.9296 151.628 81.1314C151.677 81.2926 151.711 81.4581 151.727 81.6259C151.746 81.7901 151.746 81.9563 151.727 82.1205C151.722 82.2085 151.71 82.2958 151.693 82.3821C151.634 82.6579 151.532 82.9225 151.392 83.1671C150.936 83.9773 150.08 84.4797 149.15 84.4833H141.3C139.855 84.4833 138.683 85.6549 138.683 87.1V92.3333C138.683 93.4601 139.404 94.4604 140.473 94.8165L146.23 96.7398C150.903 98.2915 154.383 105.364 154.383 110.65H159.617C159.617 103.452 155.137 94.1859 147.897 91.7734L143.917 90.4467V89.7167H149.15C151.352 89.6954 153.443 88.7452 154.907 87.1H177.933V96.6953C177.93 98.3932 177.38 100.045 176.363 101.405L170.607 109.08C170.267 109.533 170.083 110.084 170.083 110.65V155.133H175.317V111.521L180.55 104.545C182.244 102.278 183.161 99.5252 183.167 96.6953V87.1H191.017V102.8C191.017 108.581 195.703 113.267 201.483 113.267C207.264 113.267 211.95 108.581 211.95 102.8V99.2649C213.173 99.8618 214.514 100.176 215.875 100.183C220.933 100.183 225.033 96.083 225.033 91.025V87.1H232.883C234.328 87.1 235.5 85.9284 235.5 84.4833V68.7833C235.5 67.3383 234.328 66.1667 232.883 66.1667ZM88.9667 81.8667H83.7333V71.4H88.9667V81.8667ZM102.05 91.025C102.05 93.1926 100.293 94.95 98.125 94.95C95.9574 94.95 94.2 93.1926 94.2 91.025V62.2417C94.2 60.0741 95.9574 58.3167 98.125 58.3167C100.293 58.3167 102.05 60.0741 102.05 62.2417V91.025ZM117.75 102.8C117.75 105.69 115.407 108.033 112.517 108.033C109.626 108.033 107.283 105.69 107.283 102.8V50.4667C107.283 47.5762 109.626 45.2333 112.517 45.2333C115.407 45.2333 117.75 47.5762 117.75 50.4667V102.8ZM130.833 74.0167C129.388 74.0167 128.217 75.1883 128.217 76.6333V81.8667H122.983V71.4H133.45C133.453 71.8945 133.503 72.3881 133.599 72.8732C133.628 73.0276 133.678 73.1689 133.714 73.318C133.774 73.5509 133.819 73.7916 133.897 74.0167H130.833ZM143.917 71.4C143.917 72.8451 142.745 74.0167 141.3 74.0167C139.855 74.0167 138.683 72.8451 138.683 71.4V63.55C138.683 62.1049 139.855 60.9333 141.3 60.9333C142.745 60.9333 143.917 62.1049 143.917 63.55V71.4ZM154.383 71.4C154.383 72.8451 153.212 74.0167 151.767 74.0167C150.322 74.0167 149.15 72.8451 149.15 71.4V63.55C149.15 62.1049 150.322 60.9333 151.767 60.9333C153.212 60.9333 154.383 62.1049 154.383 63.55V71.4ZM170.083 63.55C170.083 62.1049 171.255 60.9333 172.7 60.9333C174.145 60.9333 175.317 62.1049 175.317 63.55V71.4C175.317 72.8451 174.145 74.0167 172.7 74.0167C171.255 74.0167 170.083 72.8451 170.083 71.4V63.55ZM159.617 63.55C159.617 62.1049 160.788 60.9333 162.233 60.9333C163.678 60.9333 164.85 62.1049 164.85 63.55V71.4C164.85 72.8451 163.678 74.0167 162.233 74.0167C160.788 74.0167 159.617 72.8451 159.617 71.4V63.55ZM191.017 81.8667H157C157 81.8405 157 81.8196 157 81.7934C156.998 81.273 156.943 80.7539 156.838 80.2443C156.822 80.1737 156.788 80.1083 156.772 80.035C156.725 79.844 156.657 79.666 156.597 79.4803C156.486 79.145 156.353 78.8182 156.197 78.5016C156.121 78.3446 156.084 78.1667 155.998 78.0149C156.028 77.9947 156.056 77.9727 156.084 77.9495C156.205 77.871 156.309 77.7768 156.424 77.6878C156.621 77.5413 156.827 77.4053 157.01 77.2404C157.162 77.3765 157.338 77.4837 157.5 77.6067C157.662 77.7297 157.822 77.8684 157.997 77.9783C158.244 78.1307 158.499 78.2697 158.761 78.3943C158.939 78.4807 159.106 78.5827 159.284 78.656C159.59 78.7731 159.903 78.8703 160.221 78.9465C160.386 78.991 160.54 79.0537 160.71 79.0878C161.717 79.2935 162.755 79.2935 163.761 79.0878C163.932 79.0537 164.086 78.991 164.251 78.9465C164.569 78.8703 164.882 78.7731 165.188 78.656C165.373 78.5801 165.541 78.4781 165.711 78.3943C165.974 78.2697 166.23 78.1307 166.478 77.9783C166.65 77.8632 166.807 77.7323 166.972 77.6067C167.137 77.4811 167.31 77.3765 167.461 77.2404C167.613 77.3765 167.789 77.4837 167.951 77.6067C168.113 77.7297 168.273 77.8684 168.448 77.9783C168.695 78.1307 168.95 78.2697 169.212 78.3943C169.39 78.4807 169.557 78.5827 169.735 78.656C170.041 78.7731 170.354 78.8703 170.672 78.9465C170.837 78.991 170.991 79.0537 171.161 79.0878C175.399 79.949 179.532 77.2123 180.393 72.9752C180.498 72.4568 180.551 71.9292 180.55 71.4H191.017V81.8667ZM206.717 102.8C206.717 105.69 204.374 108.033 201.483 108.033C198.593 108.033 196.25 105.69 196.25 102.8V50.4667C196.25 47.5762 198.593 45.2333 201.483 45.2333C204.374 45.2333 206.717 47.5762 206.717 50.4667V102.8ZM219.8 91.025C219.8 93.1926 218.043 94.95 215.875 94.95C213.707 94.95 211.95 93.1926 211.95 91.025V62.2417C211.95 60.0741 213.707 58.3167 215.875 58.3167C218.043 58.3167 219.8 60.0741 219.8 62.2417V91.025ZM230.267 81.8667H225.033V71.4H230.267V81.8667Z" fill="#1F2C4C"/>
</svg>
