<svg width="219" height="231" viewBox="0 0 219 231" fill="none" xmlns="http://www.w3.org/2000/svg">
<path d="M193.949 193.807H200.985V201.226H193.949V193.807Z" fill="#1F2C4C"/>
<path d="M179.879 193.807H186.914V201.226H179.879V193.807Z" fill="#1F2C4C"/>
<path d="M165.809 193.807H172.844V201.226H165.809V193.807Z" fill="#1F2C4C"/>
<path d="M177.388 91.049C174.398 82.5575 167.138 76.5738 158.773 75.3533V51.7412L214.619 30.7074L159.427 8.32316H151.737V75.4498C143.235 76.9559 136.154 83.318 133.495 92.2324L115.794 151.628C114.686 147.725 112.407 144.249 109.195 141.831L92.3559 129.147L98.2761 101.065H108.393C119.108 101.065 128.75 94.792 133.551 84.6869L146.932 56.5416C147.776 54.772 148.22 52.7874 148.22 50.8064C148.22 43.7432 142.774 38.0006 135.961 38.0006C131.335 38.0006 127.17 40.7124 125.102 45.0786L113.785 68.9467C111.988 72.7417 108.372 75.0974 104.348 75.0974H102.103C106.676 70.3786 109.526 63.8125 109.526 56.549C109.526 42.2296 98.4802 30.5812 84.902 30.5812C84.4905 30.5812 84.093 30.6257 83.6849 30.648C80.7723 21.8449 72.8858 15.7425 63.7962 15.7425C63.0399 15.7425 62.2801 15.7945 61.4956 15.8983C57.4996 6.80961 48.8849 0.903809 39.1726 0.903809C25.5945 0.903809 14.5491 12.5522 14.5491 26.8716C14.5491 26.9977 14.5772 27.1201 14.5772 27.2425C6.54646 28.9564 0.478516 36.4536 0.478516 45.4199C0.478516 55.6475 8.3686 63.9683 18.0668 63.9683H61.3162C62.5263 68.2419 64.753 72.0554 67.7043 75.0974H65.8681C52.5291 75.0974 39.9043 82.539 32.9147 94.5175L16.2939 123C15.1506 124.948 14.5491 127.192 14.5491 129.489C14.5491 131.254 14.9149 132.931 15.5516 134.452H0.478516V186.388H45.033L39.5983 210.059C39.3169 211.294 39.1726 212.559 39.1726 213.821V214.904C39.1726 223.726 45.9793 230.904 54.3407 230.904C61.471 230.904 67.7148 225.562 69.1852 218.202L80.6703 160.668L88.4197 166.114V201.226C88.4197 209.41 94.7303 216.065 102.49 216.065H218.573V207.978L177.388 91.049ZM158.773 16.0059L194.385 30.4514L158.773 43.8656V16.0059ZM140.206 94.4582C142.338 87.3133 148.536 82.5167 155.635 82.5167C162.361 82.5167 168.453 86.9832 170.796 93.6346L184.283 131.922C183.104 135.383 180.663 141.872 178.109 141.872C174.947 141.872 172.097 132.631 170.015 125.887C166.814 115.507 163.504 104.775 155.23 104.775C146.96 104.775 143.65 115.507 140.453 125.887C138.374 132.631 135.528 141.872 132.369 141.872C130.983 141.872 129.414 139.872 127.796 136.103L140.206 94.4582ZM18.0668 56.549C12.2486 56.549 7.51381 51.5557 7.51381 45.4199C7.51381 39.2841 12.2486 34.2909 18.0668 34.2909C23.8849 34.2909 28.6197 39.2841 28.6197 45.4199H35.655C35.655 36.4759 29.6187 28.9861 21.6125 27.2499C21.6125 27.1238 21.5844 26.9977 21.5844 26.8716C21.5844 16.644 29.4745 8.32316 39.1726 8.32316C46.8728 8.32316 53.6126 13.5241 55.9377 21.2662L56.9508 24.642L60.1941 23.7295C61.5765 23.3436 62.7198 23.1619 63.7962 23.1619C69.5053 23.1619 74.4828 26.7862 76.6708 32.1059C67.1344 35.6895 60.2785 45.279 60.2785 56.549H18.0668ZM67.3138 56.549C67.3138 46.3214 75.2039 38.0006 84.902 38.0006C94.6002 38.0006 102.49 46.3214 102.49 56.549C102.49 66.7766 94.6002 75.0974 84.902 75.0974C75.2039 75.0974 67.3138 66.7766 67.3138 56.549ZM53.405 134.452H38.5465L55.9518 105.606C56.8066 104.189 57.9674 103.053 59.3112 102.274L53.405 134.452ZM54.587 141.872L54.4463 142.172C50.1934 151.138 41.6455 156.71 32.1373 156.71C22.6291 156.71 14.0813 151.138 9.83194 142.172L9.68772 141.872H26.291H27.6207H54.587ZM7.51381 151.821C13.5008 159.518 22.4005 164.13 32.1373 164.13C41.8742 164.13 50.7738 159.518 56.7609 151.821V178.968H7.51381V151.821ZM95.455 201.226V166.114C95.455 163.629 94.2836 161.321 92.3208 159.941L82.4502 153.001H75.0139L62.3047 216.673C61.5132 220.621 58.1644 223.484 54.3407 223.484C49.8592 223.484 46.2079 219.634 46.2079 214.908V213.824C46.2079 213.146 46.2853 212.467 46.4366 211.806L52.2724 186.388H63.7962V134.452H60.5705L68.0595 93.6457H63.7962C58.182 93.6457 53.0286 96.6283 50.0175 101.622L31.5956 132.152C30.7232 133.595 29.2388 134.452 27.6207 134.452H26.291C23.6985 134.452 21.5844 132.223 21.5844 129.489C21.5844 128.569 21.8236 127.671 22.2809 126.888L38.9018 98.4053C44.6215 88.6043 54.9528 82.5167 65.8645 82.5167H104.348C111.052 82.5167 117.081 78.5882 120.079 72.2632L131.395 48.3951C132.264 46.5625 134.015 45.4199 136.077 45.4199C138.891 45.4199 141.184 47.8349 141.184 50.8064C141.184 51.6411 140.998 52.4757 140.643 53.2177L127.262 81.363C123.663 88.9382 116.431 93.6457 108.396 93.6457H92.6338L84.4799 132.334L105.107 147.87C107.872 149.955 109.526 153.342 109.526 156.929V201.226C109.526 205.318 106.37 208.646 102.49 208.646C98.6103 208.646 95.455 205.318 95.455 201.226ZM114.605 208.646C115.815 206.453 116.561 203.942 116.561 201.226V173.804L125.024 145.407C126.829 147.566 129.203 149.291 132.369 149.291C140.639 149.291 143.949 138.559 147.147 128.179C149.226 121.435 152.072 112.194 155.23 112.194C158.393 112.194 161.242 121.435 163.324 128.179C166.526 138.559 169.832 149.291 178.109 149.291C182.605 149.291 185.662 145.897 187.804 141.923L211.302 208.646H114.605Z" fill="#1F2C4C"/>
</svg>
