<?xml version="1.0" encoding="utf-8"?>
<!-- Generator: Adobe Illustrator 19.1.0, SVG Export Plug-In . SVG Version: 6.00 Build 0)  -->
<svg version="1.1" id="Layer_1" xmlns="http://www.w3.org/2000/svg" xmlns:xlink="http://www.w3.org/1999/xlink" x="0px" y="0px"
	 viewBox="0 0 220 30" style="enable-background:new 0 0 220 30;" xml:space="preserve">
<style type="text/css">
	.Drop_x0020_Shadow{fill:none;}
	.Outer_x0020_Glow_x0020_5_x0020_pt{fill:none;}
	.Blue_x0020_Neon{fill:none;stroke:#8AACDA;stroke-width:7;stroke-linecap:round;stroke-linejoin:round;}
	.Chrome_x0020_Highlight{fill:url(#SVGID_1_);stroke:#FFFFFF;stroke-width:0.3629;stroke-miterlimit:1;}
	.Jive_GS{fill:#FFDD00;}
	.Alyssa_GS{fill:#A6D0E4;}
	.st0{fill-rule:evenodd;clip-rule:evenodd;fill:#7A8A6B;}
	.st1{fill-rule:evenodd;clip-rule:evenodd;fill:#99B085;}
	.st2{fill-rule:evenodd;clip-rule:evenodd;fill:#85C226;}
	.st3{fill-rule:evenodd;clip-rule:evenodd;fill:#BAD900;}
	.st4{fill:#1F1A17;}
</style>
<linearGradient id="SVGID_1_" gradientUnits="userSpaceOnUse" x1="0" y1="0" x2="4.489659e-11" y2="-1">
	<stop  offset="0" style="stop-color:#656565"/>
	<stop  offset="0.618" style="stop-color:#1B1B1B"/>
	<stop  offset="0.6292" style="stop-color:#545454"/>
	<stop  offset="0.9831" style="stop-color:#3E3E3E"/>
</linearGradient>
<g>
	<g>
		<path class="st0" d="M10.3,24.9h1.4h1.4h0.6c0.8,0,1.4,0.6,1.4,1.4v1.1v0.9v1.4h-1.4h-1.4h-0.6c-0.8,0-1.4-0.6-1.4-1.4v-0.6v-1.3
			V24.9z"/>
		<path class="st1" d="M32.9,13.2h-4.9h-4.8h-2.1c-2.7,0-4.9,2.2-4.9,4.9v3.8v3.1v4.9h4.9h4.9h2c2.7,0,4.9-2.2,4.9-4.9v-2.2V18V13.2
			z"/>
		<path class="st1" d="M0.6,9.2h4.3h4.2h1.8c2.3,0,4.3,1.9,4.3,4.3v3.3v2.7v4.3h-4.3H6.6H4.8c-2.3,0-4.3-1.9-4.3-4.3v-2v-4.1V9.2z"
			/>
		<path class="st2" d="M28,0.2h-3.4h-3.4h-1.5c-1.9,0-3.4,1.5-3.4,3.4v2.7v2.2V12h3.4h3.4h1.4c1.9,0,3.4-1.5,3.4-3.4V7V3.7V0.2z"/>
		<path class="st3" d="M7.5,0.4h2.2H12h0.9c1.2,0,2.2,1,2.2,2.2v1.7v1.4V8h-2.2h-2.2H9.7C8.5,8,7.5,7,7.5,5.8v-1V2.6V0.4z"/>
	</g>
	<path class="st4" d="M212.3,21.7V8.3h2.2v11.5h4.9v2H212.3z M208.8,21.7l-1.5-3.5h-5.3l-1.6,3.5H198l6.5-14l6.5,14H208.8z
		 M202.7,16.4h3.8l-1.4-3.1c-0.1-0.2-0.2-0.4-0.2-0.7c-0.1-0.3-0.2-0.5-0.3-0.9c-0.1,0.3-0.2,0.6-0.2,0.8c-0.1,0.3-0.2,0.5-0.3,0.7
		L202.7,16.4z M184.7,21.7v-14l8.6,8.2c0.2,0.2,0.5,0.5,0.7,0.7c0.2,0.3,0.5,0.6,0.8,0.9V8.3h2v14l-8.7-8.4
		c-0.2-0.2-0.5-0.5-0.7-0.7c-0.2-0.3-0.4-0.5-0.6-0.8v9.4H184.7z M182.2,15c0,1-0.2,1.9-0.5,2.7c-0.4,0.9-0.9,1.6-1.6,2.3
		c-0.7,0.7-1.5,1.2-2.3,1.5c-0.9,0.4-1.8,0.5-2.7,0.5c-1,0-1.9-0.2-2.8-0.5c-0.9-0.4-1.7-0.9-2.3-1.5c-0.7-0.7-1.2-1.4-1.6-2.3
		c-0.4-0.8-0.5-1.8-0.5-2.7c0-1,0.2-1.9,0.5-2.7c0.4-0.9,0.9-1.6,1.6-2.3c0.7-0.7,1.5-1.2,2.3-1.5C173.1,8.1,174,8,175,8
		c1,0,1.9,0.2,2.8,0.5c0.9,0.3,1.6,0.9,2.3,1.5c0.7,0.7,1.2,1.5,1.6,2.3C182,13.2,182.2,14.1,182.2,15z M179.9,15
		c0-0.7-0.1-1.3-0.4-1.9c-0.2-0.6-0.6-1.2-1.1-1.6c-0.5-0.5-1-0.8-1.6-1.1c-0.6-0.3-1.2-0.4-1.9-0.4c-0.7,0-1.3,0.1-1.9,0.4
		c-0.6,0.3-1.1,0.6-1.6,1.1c-0.5,0.5-0.8,1-1.1,1.6c-0.2,0.6-0.4,1.3-0.4,2c0,0.7,0.1,1.3,0.4,1.9c0.2,0.6,0.6,1.1,1.1,1.6
		c0.5,0.5,1,0.8,1.6,1.1c0.6,0.3,1.2,0.4,1.9,0.4c0.7,0,1.3-0.1,1.9-0.4c0.6-0.3,1.1-0.6,1.6-1.1c0.5-0.5,0.8-1,1.1-1.6
		C179.8,16.4,179.9,15.7,179.9,15z M163.1,21.7V8.3h2.2v13.5H163.1z M157.8,10.1v11.6h-2.2V10.1H152V8.3h9.3v1.9H157.8z M150.9,21.7
		l-1.5-3.5H144l-1.6,3.5h-2.3l6.5-14l6.5,14H150.9z M144.8,16.4h3.8l-1.4-3.1c-0.1-0.2-0.2-0.4-0.2-0.7c-0.1-0.3-0.2-0.5-0.3-0.9
		c-0.1,0.3-0.2,0.6-0.2,0.8c-0.1,0.3-0.2,0.5-0.3,0.7L144.8,16.4z M126.8,21.7v-14l8.6,8.2c0.2,0.2,0.5,0.5,0.7,0.7
		c0.2,0.3,0.5,0.6,0.8,0.9V8.3h2v14l-8.7-8.4c-0.2-0.2-0.5-0.5-0.7-0.7c-0.2-0.3-0.4-0.5-0.6-0.8v9.4H126.8z M118.3,15.7v6h-2.1V8.3
		h3.1c0.9,0,1.6,0.1,2.1,0.2c0.5,0.1,0.9,0.3,1.3,0.6c0.4,0.3,0.7,0.7,1,1.3c0.2,0.5,0.3,1.1,0.3,1.7c0,1.1-0.3,1.9-0.8,2.5
		c-0.5,0.6-1.3,1-2.3,1.1l4.6,6.1h-2.5l-4.5-6H118.3z M118.5,14h0.4c1.2,0,1.9-0.1,2.3-0.4c0.4-0.3,0.6-0.7,0.6-1.4
		c0-0.7-0.2-1.3-0.6-1.6c-0.4-0.3-1.2-0.5-2.3-0.5h-0.4V14z M106.2,21.7V8.3h7.5v1.9h-5.3v3.4h5.3v1.9h-5.3v4.4h5.3v2H106.2z
		 M101,10.1v11.6h-2.2V10.1h-3.6V8.3h9.3v1.9H101z M81.5,21.7v-14l8.6,8.2c0.2,0.2,0.5,0.5,0.7,0.7c0.2,0.3,0.5,0.6,0.8,0.9V8.3h2
		v14l-8.7-8.4c-0.2-0.2-0.5-0.5-0.7-0.7c-0.2-0.3-0.4-0.5-0.6-0.8v9.4H81.5z M76.2,21.7V8.3h2.2v13.5H76.2z M60.1,21.7V8.3h8.3v3
		h-4.7v2.3h4.4v2.9h-4.4v5.3H60.1z M49.4,21.7V8.3h8.3v3H53v2.3h4.4v2.9H53v2.3h4.7v3H49.4z M39,17.4c0.5,0.6,1.1,1.1,1.6,1.4
		c0.5,0.3,1.1,0.5,1.6,0.5c0.5,0,0.9-0.1,1.2-0.4c0.3-0.3,0.5-0.6,0.5-1c0-0.4-0.1-0.8-0.4-1c-0.3-0.2-0.9-0.5-1.9-0.8
		c-1.3-0.4-2.3-0.8-2.8-1.4c-0.5-0.6-0.8-1.4-0.8-2.3c0-1.3,0.4-2.3,1.3-3.2c0.9-0.8,2-1.2,3.4-1.2c0.7,0,1.4,0.1,2.1,0.3
		c0.7,0.2,1.3,0.5,1.9,0.9l-1.1,2.6c-0.4-0.4-0.8-0.6-1.3-0.8c-0.4-0.2-0.9-0.3-1.3-0.3c-0.4,0-0.8,0.1-1.1,0.3
		c-0.3,0.2-0.4,0.5-0.4,0.8c0,0.3,0.1,0.6,0.4,0.8c0.2,0.2,0.7,0.4,1.4,0.6c0,0,0.1,0,0.2,0c1.5,0.4,2.5,0.8,3,1.3
		c0.3,0.3,0.6,0.7,0.7,1.2c0.2,0.5,0.2,1,0.2,1.5c0,1.4-0.5,2.6-1.4,3.4c-0.9,0.9-2.2,1.3-3.8,1.3c-0.9,0-1.8-0.2-2.6-0.5
		c-0.8-0.3-1.5-0.8-2.2-1.5L39,17.4z"/>
</g>
</svg>
