<svg width="193" height="198" viewBox="0 0 193 198" fill="none" xmlns="http://www.w3.org/2000/svg">
<path d="M100.299 168.93H80.0307C77.9581 168.93 76.2773 170.652 76.2773 172.777C76.2773 174.902 77.9581 176.625 80.0307 176.625H100.299C102.371 176.625 104.052 174.902 104.052 172.777C104.052 170.652 102.371 168.93 100.299 168.93Z" fill="#1F2C4C"/>
<path d="M100.301 147.383H47.0033C44.9307 147.383 43.25 149.106 43.25 151.231C43.25 153.356 44.9307 155.079 47.0033 155.079H100.301C102.373 155.079 104.054 153.356 104.054 151.231C104.054 149.106 102.373 147.383 100.301 147.383Z" fill="#1F2C4C"/>
<path d="M100.301 125.836H47.0033C44.9307 125.836 43.25 127.559 43.25 129.684C43.25 131.809 44.9307 133.532 47.0033 133.532H100.301C102.373 133.532 104.054 131.809 104.054 129.684C104.054 127.559 102.373 125.836 100.301 125.836Z" fill="#1F2C4C"/>
<path d="M33.6251 105.417C32.9274 104.702 31.959 104.29 30.9682 104.29C29.9807 104.29 29.0123 104.702 28.3146 105.417C27.6164 106.133 27.2148 107.126 27.2148 108.138C27.2148 109.15 27.6161 110.142 28.3146 110.858C29.0164 111.574 29.9807 111.985 30.9682 111.985C31.959 111.985 32.9236 111.574 33.6251 110.858C34.3233 110.142 34.7252 109.15 34.7252 108.138C34.7252 107.126 34.3236 106.133 33.6251 105.417Z" fill="#1F2C4C"/>
<path d="M33.6251 126.964C32.9236 126.248 31.959 125.836 30.9682 125.836C29.9807 125.836 29.0164 126.248 28.3146 126.964C27.6164 127.679 27.2148 128.672 27.2148 129.684C27.2148 130.696 27.6161 131.689 28.3146 132.404C29.0164 133.12 29.9807 133.532 30.9682 133.532C31.959 133.532 32.9236 133.12 33.6251 132.404C34.3233 131.689 34.7252 130.696 34.7252 129.684C34.7252 128.672 34.3236 127.679 33.6251 126.964Z" fill="#1F2C4C"/>
<path d="M33.6251 148.511C32.9236 147.795 31.959 147.383 30.9682 147.383C29.9807 147.383 29.0164 147.795 28.3146 148.511C27.6164 149.226 27.2148 150.219 27.2148 151.231C27.2148 152.243 27.6161 153.236 28.3146 153.951C29.0123 154.667 29.9807 155.079 30.9682 155.079C31.959 155.079 32.9274 154.667 33.6251 153.951C34.3233 153.236 34.7252 152.243 34.7252 151.231C34.7252 150.219 34.3236 149.226 33.6251 148.511Z" fill="#1F2C4C"/>
<path d="M100.301 104.29H47.0033C44.9307 104.29 43.25 106.013 43.25 108.138C43.25 110.263 44.9307 111.985 47.0033 111.985H100.301C102.373 111.985 104.054 110.263 104.054 108.138C104.054 106.013 102.373 104.29 100.301 104.29Z" fill="#1F2C4C"/>
<path d="M184.746 50.5459C181.1 48.3878 176.852 47.8145 172.784 48.9315C168.717 50.0488 165.317 52.7229 163.212 56.4609L115.98 140.325C115.721 140.785 115.558 141.295 115.5 141.822L112.176 172.351C112.01 173.87 112.738 175.345 114.029 176.11C114.612 176.455 115.259 176.625 115.905 176.625C116.69 176.625 117.473 176.373 118.131 175.876L142.259 157.66C142.676 157.345 143.025 156.945 143.284 156.485L190.516 72.6213C194.862 64.9045 192.274 55.0015 184.746 50.5459ZM120.587 164.464L122.324 148.523L133.187 154.952L120.587 164.464ZM138.66 149.305L124.358 140.841L162.261 73.5417L176.563 82.0065L138.66 149.305ZM184.015 68.7733L180.316 75.3424L166.014 66.8776L169.713 60.3085C170.816 58.3505 172.597 56.9499 174.727 56.3647C176.858 55.7791 179.083 56.08 180.993 57.2104C182.903 58.3409 184.269 60.1662 184.84 62.3501C185.411 64.534 185.118 66.8152 184.015 68.7733Z" fill="#1F2C4C"/>
<path d="M155.849 57.6373C157.921 57.6373 159.602 55.9147 159.602 53.7896V11.9467C159.602 5.58195 154.551 0.403809 148.342 0.403809H11.7209C5.51216 0.403809 0.460938 5.58195 0.460938 11.9467V185.859C0.460938 192.224 5.51216 197.402 11.7209 197.402H148.342C154.551 197.402 159.602 192.224 159.602 185.859V157.513C159.602 155.388 157.921 153.666 155.849 153.666C153.776 153.666 152.095 155.388 152.095 157.513V185.859C152.095 187.981 150.411 189.707 148.342 189.707H11.7209C9.65133 189.707 7.96758 187.981 7.96758 185.859V11.9467C7.96758 9.82511 9.65133 8.09906 11.7209 8.09906H148.342C150.411 8.09906 152.095 9.82511 152.095 11.9467V53.7896C152.095 55.9147 153.776 57.6373 155.849 57.6373Z" fill="#1F2C4C"/>
<path d="M80.0306 21.1812C60.9903 21.1812 45.5 37.0607 45.5 56.5793C45.5 66.7051 49.6699 75.8502 56.3403 82.308C56.4653 82.445 56.5982 82.5747 56.7435 82.6928C62.888 88.4562 71.0654 91.9771 80.0302 91.9771C88.995 91.9771 97.1724 88.4558 103.317 82.6928C103.462 82.5747 103.595 82.4446 103.72 82.308C110.391 75.8502 114.561 66.7051 114.561 56.5793C114.561 37.0607 99.0708 21.1812 80.0306 21.1812ZM80.0306 84.2822C73.9018 84.2822 68.2455 82.1768 63.707 78.6385C67.0058 72.642 73.1616 68.8917 80.0306 68.8917C86.8995 68.8917 93.0554 72.642 96.3542 78.6385C91.8153 82.1768 86.1594 84.2822 80.0306 84.2822ZM74.0253 55.0403V52.5393C74.0253 49.1449 76.7194 46.3831 80.0306 46.3831C83.3418 46.3831 86.0359 49.1449 86.0359 52.5393V55.0403C86.0359 58.4347 83.3418 61.1965 80.0306 61.1965C76.7194 61.1965 74.0253 58.4347 74.0253 55.0403ZM101.777 73.0022C99.0092 68.7936 95.173 65.5204 90.7189 63.4997C92.4867 61.1576 93.5425 58.2238 93.5425 55.0403V52.5393C93.5425 44.9014 87.4813 38.6879 80.0306 38.6879C72.5799 38.6879 66.5186 44.9014 66.5186 52.5393V55.0403C66.5186 58.2238 67.5744 61.1576 69.3422 63.4997C64.8882 65.5204 61.0519 68.7936 58.2838 73.0022C54.97 68.4031 53.0066 62.7228 53.0066 56.5793C53.0066 41.3039 65.1295 28.8764 80.0306 28.8764C94.9316 28.8764 107.054 41.3039 107.054 56.5793C107.054 62.7228 105.091 68.4031 101.777 73.0022Z" fill="#1F2C4C"/>
</svg>
