<svg width="167" height="154" viewBox="0 0 167 154" fill="none" xmlns="http://www.w3.org/2000/svg">
<g clip-path="url(#clip0_5317_17840)">
<path d="M0.791016 129.173C0.791016 97.1048 0.791016 65.0361 0.791016 32.9674C0.865586 32.8929 0.979062 32.8346 1.00824 32.7472C3.01191 26.8258 6.20547 24.513 12.4078 24.5065C17.699 24.5032 22.9903 24.5065 28.2815 24.5065C29.131 24.5065 29.9772 24.5065 30.9985 24.5065C30.9985 23.4213 30.9952 22.5208 30.9985 21.6171C31.0439 13.7716 36.3838 8.44946 44.2688 8.41383C49.0737 8.39439 53.8818 8.4527 58.6835 8.37172C59.5848 8.35552 60.5802 8.03808 61.3583 7.56838C76.3632 -1.45944 91.3259 -1.45296 106.308 7.62993C107.041 8.07371 107.991 8.362 108.843 8.37172C113.703 8.44298 118.563 8.38144 123.42 8.41059C131.182 8.45594 136.515 13.804 136.574 21.5652C136.58 22.5111 136.574 23.457 136.574 24.5C137.427 24.5 138.013 24.5 138.597 24.5C144.592 24.5065 150.583 24.4611 156.578 24.5324C161.114 24.5875 164.875 27.4639 166.285 31.7689C166.451 32.2742 166.619 32.7796 166.788 33.2849V55.3118C165.971 56.3808 165.063 57.3105 163.549 56.7792C162.057 56.2545 161.863 55.0236 161.869 53.6274C161.899 47.638 161.892 41.6454 161.879 35.6528C161.869 31.6231 159.674 29.414 155.69 29.4107C149.854 29.4042 144.021 29.4107 138.185 29.4107H136.671V85.6572C137.349 85.6572 137.929 85.6572 138.509 85.6572C142.238 85.6572 145.963 85.6637 149.692 85.6572C150.976 85.654 152.068 85.9682 152.525 87.319C153.109 89.0488 151.903 90.5615 149.844 90.5842C146.009 90.6263 142.173 90.5971 138.338 90.5971C137.77 90.5971 137.206 90.5971 136.697 90.5971V96.35C137.076 96.376 137.339 96.4116 137.602 96.4116C141.761 96.4181 145.921 96.3954 150.081 96.4343C151.695 96.4505 152.7 97.4935 152.662 98.9285C152.626 100.286 151.624 101.248 150.107 101.303C148.865 101.345 147.623 101.316 146.378 101.316C143.155 101.316 139.929 101.316 136.687 101.316V107.513C137.381 107.513 137.968 107.513 138.555 107.513C142.283 107.513 146.009 107.493 149.737 107.522C151.585 107.535 152.684 108.533 152.652 110.052C152.619 111.539 151.611 112.414 149.792 112.43C146.712 112.456 143.635 112.439 140.555 112.439C139.275 112.439 137.994 112.439 136.678 112.439V132.798H138.36C144.034 132.798 149.705 132.798 155.379 132.798C159.849 132.798 161.886 130.748 161.886 126.248C161.886 114.428 161.886 102.608 161.886 90.7882C161.886 82.1524 161.879 73.5165 161.892 64.8806C161.892 62.9986 162.849 61.69 164.295 61.9329C165.186 62.0819 165.964 62.9014 166.791 63.423V129.18C166.72 129.258 166.616 129.326 166.584 129.416C164.674 135.322 161.393 137.735 155.242 137.741C149.624 137.745 144.005 137.741 138.386 137.748C137.819 137.748 137.248 137.803 136.577 137.835C136.577 138.872 136.58 139.73 136.577 140.589C136.532 148.47 131.227 153.779 123.336 153.808C117.448 153.827 111.557 153.811 105.669 153.811C85.1398 153.811 64.6102 153.827 44.0807 153.802C36.4 153.792 31.0633 148.421 31.0017 140.751C30.9952 139.798 31.0017 138.846 31.0017 137.741C30.2041 137.741 29.6205 137.741 29.0337 137.741C23.2529 137.741 17.4721 137.764 11.6912 137.735C6.28328 137.706 2.59367 134.891 1.08605 129.731C1.0277 129.536 0.891523 129.361 0.794258 129.18L0.791016 129.173ZM30.9985 132.724C30.9985 131.658 30.9887 130.796 30.9985 129.935C31.0244 127.917 31.8998 126.793 33.4496 126.77C35.0285 126.747 35.9234 127.826 35.9363 129.867C35.959 133.375 35.9331 136.883 35.9461 140.391C35.9688 145.852 39.0294 148.888 44.5054 148.888C70.6537 148.888 96.8052 148.888 122.953 148.888C128.624 148.888 131.617 145.885 131.623 140.174C131.633 131.376 131.623 122.575 131.623 113.777C131.623 83.1695 131.626 52.565 131.62 21.9572C131.62 16.3597 128.618 13.3699 123.012 13.344C120.418 13.331 117.824 13.344 115.231 13.344C114.683 13.344 114.138 13.344 113.324 13.344C129.82 31.1113 127.304 56.6173 112.381 71.0385C97.6481 85.275 74.6902 86.6549 58.7581 74.1352C50.4354 67.5951 45.1733 59.1277 43.4582 48.6649C41.273 35.3159 45.0501 23.6416 54.0991 13.5513C49.8972 13.5513 45.8607 13.3764 41.8501 13.6226C39.7394 13.7521 37.927 15.145 37.0776 17.1145C36.3967 18.6952 35.9817 20.5189 35.9785 22.2358C35.9169 54.0291 35.9331 85.8224 35.9266 117.619C35.9266 118.374 36.0693 119.216 35.7807 119.857C35.4597 120.567 34.8145 121.406 34.1402 121.603C33.4561 121.801 32.344 121.513 31.8252 121.017C31.2903 120.508 31.0666 119.498 31.0244 118.688C30.9174 116.663 30.9888 114.626 30.9888 112.436C30.1944 112.436 29.6108 112.436 29.0272 112.436C25.2987 112.436 21.5702 112.449 17.8449 112.43C15.945 112.42 14.8816 111.497 14.901 109.968C14.9205 108.471 16.0325 107.551 17.9065 107.516C19.0932 107.493 20.283 107.513 21.4729 107.513C24.5919 107.513 27.7077 107.513 30.8947 107.513V101.316C30.269 101.316 29.7405 101.316 29.212 101.316C25.3765 101.316 21.541 101.329 17.7055 101.309C15.9709 101.3 14.8945 100.325 14.901 98.854C14.9075 97.3834 15.958 96.4667 17.725 96.4245C18.6425 96.4019 19.5633 96.4181 20.4808 96.4181C23.924 96.4181 27.3672 96.4181 30.8753 96.4181V90.6004C26.3881 90.6004 22.0176 90.6263 17.6504 90.5874C15.9353 90.5712 14.8718 89.5152 14.9107 88.0478C14.9464 86.6323 15.945 85.7026 17.6245 85.6799C20.9185 85.6378 24.2158 85.6637 27.5099 85.6637C28.6284 85.6637 29.747 85.6637 30.8688 85.6637V29.414C24.3747 29.414 18.007 29.4042 11.6394 29.4172C7.97246 29.4269 5.69645 31.6976 5.69645 35.4131C5.68672 65.9107 5.68348 96.4116 5.69645 126.909C5.69645 130.531 7.95949 132.776 11.5616 132.788C17.5596 132.811 23.5544 132.795 29.5525 132.792C29.9707 132.792 30.3922 132.753 30.992 132.72L30.9985 132.724ZM57.0365 65.6645C59.413 63.0504 61.4977 60.242 64.098 58.0393C66.7241 55.8139 69.8561 54.1878 72.6703 52.3576C61.7441 44.7519 61.5626 30.7777 68.7148 22.6569C76.1395 14.2283 88.8229 13.3893 97.0094 20.791C101.218 24.5972 103.552 29.3459 103.698 35.0244C103.889 42.4844 100.602 48.247 94.8825 52.3155C97.7713 54.1975 100.874 55.8107 103.465 58.0231C106.084 60.2647 108.198 63.099 110.523 65.6645C121.692 54.3725 124.276 32.433 110.105 17.3056C95.8746 2.11347 72.3428 1.92883 57.9184 16.8262C43.4517 31.7657 45.5851 54 57.0397 65.6613L57.0365 65.6645ZM60.9887 69.5354C75.3613 81.5563 95.7677 79.3277 106.425 69.5128C102.56 61.2008 93.3328 55.4803 83.6095 55.6682C73.4517 55.8625 66.0271 60.702 60.9887 69.5354ZM98.7732 35.737C98.7991 27.4315 92.0813 20.6777 83.7975 20.6712C75.5721 20.668 68.8705 27.3149 68.8024 35.5524C68.7343 43.8481 75.4002 50.6376 83.6937 50.7153C91.9321 50.7931 98.7472 44.023 98.7732 35.737Z" fill="#1F2C4C"/>
<path d="M83.7908 106.254C95.0218 106.254 106.253 106.254 117.484 106.261C118.126 106.261 118.794 106.261 119.406 106.423C120.603 106.734 121.196 107.589 121.157 108.82C121.118 110.051 120.463 110.848 119.251 111.094C118.677 111.21 118.07 111.21 117.48 111.21C95.0185 111.217 72.5567 111.217 50.0948 111.21C49.5047 111.21 48.8984 111.21 48.3246 111.094C47.112 110.848 46.4603 110.048 46.4246 108.817C46.3857 107.589 46.9823 106.731 48.1787 106.423C48.7947 106.264 49.4593 106.261 50.1013 106.261C61.3322 106.251 72.5632 106.254 83.7941 106.254H83.7908Z" fill="#1F2C4C"/>
<path d="M83.7714 100.425C72.5956 100.425 61.4166 100.425 50.2407 100.425C49.7025 100.425 49.1578 100.444 48.6229 100.386C47.2385 100.234 46.4701 99.4272 46.4247 98.0473C46.3793 96.6479 47.1801 95.8413 48.4964 95.566C49.0152 95.4591 49.5728 95.5142 50.111 95.5142C72.5729 95.5142 95.0348 95.5142 117.497 95.5142C118.035 95.5142 118.593 95.4591 119.111 95.5725C120.424 95.864 121.215 96.6803 121.151 98.0797C121.086 99.4596 120.304 100.253 118.92 100.389C118.385 100.441 117.84 100.425 117.302 100.425C106.126 100.425 94.9473 100.425 83.7714 100.425Z" fill="#1F2C4C"/>
<path d="M57.5196 122.359C54.8253 122.359 52.1278 122.372 49.4336 122.356C47.5304 122.343 46.4508 121.465 46.4086 119.959C46.3632 118.359 47.4234 117.448 49.4433 117.442C54.9421 117.426 60.4376 117.426 65.9363 117.442C67.9562 117.448 69.0099 118.362 68.9613 119.968C68.9159 121.478 67.8427 122.343 65.9266 122.356C63.1253 122.375 60.3209 122.359 57.5196 122.359Z" fill="#1F2C4C"/>
</g>
<defs>
<clipPath id="clip0_5317_17840">
<rect width="166" height="153" fill="white" transform="translate(0.791016 0.807617)"/>
</clipPath>
</defs>
</svg>
