<svg width="159" height="161" viewBox="0 0 159 161" fill="none" xmlns="http://www.w3.org/2000/svg">
<g clip-path="url(#clip0_5317_17818)">
<path d="M151.711 160.808H148.625C145.795 160.058 143.848 158.187 142.112 155.887C138.52 151.133 134.8 146.479 131.126 141.787C130.859 141.45 130.55 141.146 130.262 140.825C130.39 142.679 130.76 144.396 131.118 146.116C131.92 149.979 130.134 153.504 126.678 154.879C123.148 156.287 119.33 154.941 117.42 151.458C113.684 144.633 109.973 137.8 106.369 130.904C104.11 126.579 104.32 122.191 106.669 117.921C107.266 116.837 107.916 115.783 108.611 114.6C108.105 114.45 107.731 114.312 107.34 114.225C102.834 113.179 98.3205 112.175 93.8274 111.091C90.4658 110.283 88.3344 107.1 88.7912 103.716C89.2396 100.391 92.0664 97.9081 95.4444 97.9956C97.082 98.0373 98.7155 98.2956 100.353 98.4706C103.443 98.7956 106.537 99.129 109.936 99.4915C108.352 96.8415 106.932 94.4623 105.468 92.0123C105.093 92.1831 104.813 92.2873 104.55 92.429C101.839 93.8831 99.1434 93.8165 96.4402 92.3748C95.0782 91.6498 93.6381 91.054 92.3174 90.2665C90.7291 89.3206 89.289 89.3831 87.6802 90.279C85.7505 91.354 83.759 92.3623 81.6976 93.1331C78.8215 94.2123 76.3116 92.854 73.7935 91.5831C68.1113 88.7248 69.7365 88.6706 64.2477 91.5498C60.6968 93.4123 57.294 94.3831 53.5744 91.929C52.0685 94.4581 50.6407 96.8498 49.069 99.4831C54.0023 98.954 58.5407 98.379 63.0915 98.0081C66.7041 97.7123 69.6748 100.137 70.1973 103.529C70.7405 107.05 68.6174 110.208 65.0541 111.112C63.2602 111.566 61.4497 111.946 59.6476 112.366C56.6069 113.071 53.5703 113.779 50.5379 114.483C50.579 114.741 50.5667 114.854 50.6119 114.937C51.0234 115.658 51.4348 116.379 51.871 117.087C54.8623 121.954 54.9322 126.866 52.1714 131.862C50.4391 134.991 48.7727 138.162 47.0775 141.312C45.2342 144.737 43.4402 148.191 41.5187 151.571C39.9716 154.296 37.5193 155.629 34.4375 155.366C31.3516 155.104 29.0104 153.416 28.1628 150.4C27.6978 148.746 27.9899 146.833 28.1381 145.054C28.2533 143.675 28.6647 142.325 28.9486 140.958C28.3808 141.171 28.1093 141.471 27.8624 141.787C24.221 146.437 20.522 151.041 16.967 155.758C15.2018 158.1 13.2474 160.033 10.3672 160.8H7.28125C3.84557 159.696 1.58667 157.4 0.492188 153.925V150.8C1.50438 148.954 2.38078 147.012 3.56167 145.287C6.2526 141.354 9.15339 137.566 11.8402 133.633C12.4656 132.721 12.8689 131.458 12.8935 130.346C13.0005 125.141 12.9758 119.937 12.9141 114.733C12.9018 113.508 12.6014 112.279 12.3628 111.066C11.6633 107.512 10.5112 103.991 10.2972 100.412C9.91458 94.0248 11.6715 88.104 16.0206 83.2873C17.7241 81.3998 19.8966 79.9456 21.8386 78.3081C16.4732 73.1331 14.9673 67.979 17.292 62.2748C19.3411 57.2456 24.3938 53.7081 29.6481 54.054C37.4699 54.5665 41.5969 59.2123 42.7448 66.9623C49.645 65.7498 56.4629 64.5248 63.2931 63.3873C64.2682 63.2248 64.8196 62.8206 65.3092 61.9956C68.8683 55.9706 72.4974 49.9873 76.0277 43.9456C76.5173 43.104 76.8136 42.0123 76.8177 41.0373C76.8712 28.9081 76.8712 16.7831 76.8301 4.65397C76.8259 3.02897 77.1675 1.70397 78.5705 0.799805H114.676C116.001 1.68314 116.433 2.9373 116.375 4.52064C116.289 6.80814 116.355 9.10397 116.355 11.3915C116.355 13.1498 116.355 14.904 116.355 16.779C117.116 16.779 117.676 16.779 118.239 16.779C121.839 16.779 125.44 16.7581 129.036 16.7831C133.673 16.8206 136.051 20.754 134.01 24.9956C133.36 26.3498 132.587 27.6581 132.048 29.054C131.805 29.6831 131.784 30.5665 132.031 31.1873C132.665 32.7748 133.558 34.2498 134.249 35.8165C135.833 39.3831 133.673 43.0623 129.822 43.4331C129.464 43.4665 129.102 43.4748 128.744 43.4748C117.894 43.4748 107.043 43.4831 96.1933 43.4748C93.4982 43.4748 92.7 42.6498 92.6918 39.9248C92.6835 37.3206 92.6918 34.7165 92.6918 32.1123C92.6918 30.6165 92.6918 29.1248 92.6918 27.5623H82.1584C82.1584 32.5706 82.1461 37.4581 82.179 42.3456C82.179 42.7248 82.4382 43.129 82.6481 43.479C86.3553 49.7206 90.0543 55.9665 93.8192 62.1706C94.136 62.6956 94.8643 63.1623 95.4691 63.279C100.012 64.1456 104.571 64.9248 109.125 65.7123C111.524 66.129 113.927 66.5081 116.326 66.904C117.474 59.6123 121.527 55.0748 127.46 54.2206C133.422 53.3623 138.952 56.304 141.445 61.6623C143.651 66.3956 143.441 73.3998 136.919 78.4998C137.191 78.6706 137.434 78.8456 137.693 78.9915C142.174 81.4665 145.235 85.1998 147.033 89.9956C149.391 96.279 149.288 102.604 147.309 108.966C146.803 110.591 146.177 112.266 146.132 113.929C145.984 119.446 146.021 124.966 146.124 130.487C146.144 131.55 146.548 132.754 147.148 133.629C149.786 137.475 152.629 141.179 155.258 145.029C156.497 146.841 157.427 148.871 158.5 150.8V153.612C157.571 157.3 155.266 159.654 151.711 160.8V160.808ZM51.3196 85.404C51.2415 85.3373 51.1633 85.2748 51.0851 85.2081C49.0937 86.1665 47.1228 87.1706 45.1066 88.0623C43.7323 88.6706 42.3252 88.079 41.7285 86.7998C41.1196 85.4998 41.5722 84.0915 42.8601 83.3165C43.2551 83.079 43.683 82.8915 44.0985 82.6873C51.8216 78.9123 59.5447 75.1456 67.2636 71.3665C68.1853 70.9165 69.3045 70.4956 68.8354 69.1165C68.4157 67.8706 67.4118 68.0831 66.3873 68.2623C58.5983 69.6456 50.8053 71.0081 43 72.3206C42.0413 72.4831 41.4652 72.8206 40.9961 73.704C39.2886 76.9331 36.5977 78.9665 33.1784 80.1206C30.4217 81.054 27.6731 82.0373 24.9781 83.1331C22.0691 84.3165 19.8842 86.4165 18.2878 89.1331C15.6709 93.579 14.7821 98.4665 15.8684 103.421C17.041 108.783 18.9584 113.975 20.378 119.291C21.1639 122.237 23.0031 123.679 25.8339 123.946C28.5413 124.196 31.2693 124.258 33.9849 124.441C36.9392 124.641 37.7333 125.783 37.0832 128.758C35.7459 134.85 34.4334 140.946 33.0797 147.029C32.7917 148.316 33.0221 149.35 34.2688 149.875C35.6143 150.441 36.5442 149.775 37.1819 148.587C40.774 141.921 44.3742 135.262 47.9416 128.579C48.9579 126.675 49.4105 124.562 48.5752 122.55C47.67 120.362 46.4027 118.321 45.2013 116.266C45.049 116.008 44.3125 115.937 43.8969 116.025C40.379 116.771 36.8939 117.683 33.3595 118.325C29.0762 119.1 25.1756 116.55 24.0153 112.308C22.7973 107.85 21.6453 103.371 20.5672 98.8748C19.2794 93.4915 22.3818 88.4165 27.5168 87.3456C32.8164 86.2415 37.5646 89.5831 38.5439 95.129C38.8566 96.8956 39.087 98.679 39.412 100.812C40.6999 100.371 42.2593 100.337 42.7407 99.5915C45.7361 94.9498 48.4929 90.1456 51.3279 85.3956L51.3196 85.404ZM119.679 100.425C119.967 98.4915 120.206 96.5831 120.543 94.6998C121.469 89.5748 126.37 86.2956 131.472 87.3498C136.446 88.3748 139.713 93.3748 138.541 98.404C137.446 103.108 136.249 107.791 134.953 112.446C133.796 116.608 129.925 119.029 125.658 118.333C123.481 117.979 121.346 117.383 119.186 116.921C117.486 116.558 115.47 115.521 114.166 116.1C112.849 116.687 112.203 118.879 111.314 120.396C109.718 123.125 109.648 125.921 111.146 128.712C114.697 135.341 118.264 141.962 121.827 148.587C122.457 149.762 123.317 150.504 124.703 149.904C126.028 149.329 126.205 148.266 125.909 146.925C124.662 141.346 123.489 135.75 122.259 130.166C121.156 125.166 121.658 124.537 126.691 124.329C129.25 124.221 131.817 124.041 134.348 123.662C136.504 123.337 137.845 121.921 138.483 119.746C139.754 115.408 141.215 111.129 142.408 106.775C142.993 104.641 143.383 102.396 143.466 100.187C143.643 95.3623 142.392 90.9081 139.318 87.1081C136.368 83.4623 132.163 81.7581 127.937 80.6498C123.522 79.4915 120.091 77.504 117.815 73.4873C117.536 72.9956 116.894 72.5248 116.342 72.4123C113.676 71.8665 110.985 71.4415 108.303 70.9748C102.937 70.0415 97.5758 69.0748 92.198 68.2248C91.622 68.1331 90.6715 68.5706 90.3588 69.0623C89.8363 69.8831 90.3712 70.6373 91.2188 71.0623C91.4492 71.179 91.6796 71.2915 91.9141 71.404C99.452 75.0831 106.994 78.7623 114.532 82.4456C115.227 82.7831 115.939 83.0956 116.581 83.5248C117.721 84.2831 118.066 85.6206 117.519 86.8123C116.968 88.0123 115.738 88.629 114.441 88.254C113.808 88.0706 113.219 87.7206 112.615 87.4331C111.018 86.6706 109.426 85.904 107.677 85.0623C107.768 85.4165 107.772 85.5206 107.817 85.5956C110.306 89.7873 112.919 93.9081 115.244 98.1915C116.256 100.062 117.569 100.608 119.679 100.433V100.425ZM70.6335 63.3873C76.2005 67.2331 74.925 74.129 69.2222 76.3623C66.5025 77.429 63.935 78.8956 61.3057 80.1956C60.8984 80.3956 60.3964 80.5956 60.1742 80.9498C58.8617 83.0373 57.6232 85.1748 56.3518 87.304C57.6191 88.2956 58.8041 88.3123 60.0631 87.6623C61.7542 86.7873 63.4659 85.954 65.1652 85.0915C67.6833 83.8206 70.1973 83.8123 72.7155 85.0748C74.3695 85.904 76.0401 86.7123 77.6736 87.5915C78.9203 88.2623 80.0929 88.2456 81.3355 87.5748C82.9649 86.6956 84.6354 85.8873 86.2936 85.0581C88.7624 83.8248 91.2352 83.829 93.704 85.0498C95.502 85.9415 97.296 86.8415 99.09 87.7373C100.365 88.3706 101.526 88.2581 102.616 87.2456C101.518 85.404 100.514 83.5831 99.3656 81.8623C98.876 81.1331 98.1724 80.4373 97.4071 80.0373C94.5845 78.554 91.6878 77.2081 88.8282 75.7956C86.5857 74.6873 85.2238 72.8998 84.9564 70.3581C84.6395 67.3581 85.9768 65.1498 88.4085 63.4706C85.4707 58.5456 82.5576 53.6748 79.5004 48.5456C76.4474 53.654 73.5384 58.5206 70.6335 63.3831V63.3873ZM110.948 22.0456V6.24981H82.2778V22.0498H110.948V22.0456ZM95.2716 103.258C95.033 103.479 94.1319 103.946 94.1319 104.404C94.1319 104.941 94.9095 105.487 95.3909 105.991C95.5103 106.116 95.7818 106.083 95.9834 106.129C100.337 107.129 104.69 108.133 109.039 109.133C114.544 110.4 120.041 111.679 125.551 112.933C127.946 113.479 129.398 112.812 129.958 110.758C131.171 106.3 132.315 101.825 133.418 97.3373C133.792 95.8081 133.311 94.4331 132.101 93.4081C130.949 92.4331 129.616 92.1706 128.201 92.7165C126.806 93.2581 125.925 94.2998 125.695 95.8206C125.32 98.2873 124.991 100.758 124.613 103.225C124.259 105.546 123.35 106.3 121.07 106.075C117.848 105.758 114.639 105.366 111.421 105.012C106.212 104.441 101.007 103.875 95.2675 103.25L95.2716 103.258ZM25.5047 96.8123C25.5459 96.9998 25.6282 97.4581 25.7434 97.9081C26.7473 101.833 27.7472 105.758 28.7635 109.679C29.6152 112.966 30.6809 113.583 34.0096 112.808C37.8115 111.921 41.6175 111.062 45.4193 110.187C51.3772 108.821 57.3311 107.454 63.289 106.087C64.1777 105.883 65.12 105.616 64.9554 104.45C64.7743 103.175 63.7416 103.246 62.787 103.354C61.5608 103.487 60.3388 103.637 59.1127 103.771C52.0644 104.546 45.0202 105.337 37.9678 106.083C35.6678 106.325 34.7379 105.55 34.3922 103.275C34.0055 100.704 33.7216 98.1165 33.236 95.5665C32.8493 93.529 30.9319 92.229 29.0268 92.479C26.9572 92.7498 25.4636 94.4665 25.5047 96.8165V96.8123ZM129.497 22.1956H116.503C116.449 22.5956 116.326 22.9581 116.371 23.2956C116.639 25.3331 115.713 26.6998 114.203 27.9581C110.668 30.8956 107.245 33.9665 103.756 36.9623C103.423 37.2498 102.97 37.3873 102.571 37.5956C102.707 37.7373 102.842 37.879 102.978 38.0206H129.472C128.629 36.3165 127.921 34.7706 127.114 33.279C125.979 31.1873 125.958 29.1498 127.094 27.0456C127.925 25.5123 128.649 23.9206 129.501 22.1956H129.497ZM140.816 126.087C137.092 129.304 132.871 129.496 128.419 129.704C131.167 133.216 133.718 136.471 136.265 139.729C139.964 144.462 143.663 149.191 147.354 153.933C148.214 155.041 149.35 155.883 150.654 155.337C151.625 154.933 152.724 153.966 153.016 153.012C153.287 152.129 152.826 150.746 152.246 149.9C149.136 145.379 145.897 140.941 142.672 136.5C141.437 134.8 140.804 132.937 140.82 130.837C140.832 129.391 140.82 127.95 140.82 126.083L140.816 126.087ZM18.2055 126.187C18.2055 127.537 18.1479 128.471 18.2178 129.391C18.4441 132.508 17.469 135.15 15.5845 137.629C12.515 141.666 9.5813 145.816 6.70932 150.004C6.15385 150.812 5.70948 152.15 5.98927 152.975C6.31432 153.937 7.35943 154.929 8.32636 155.329C9.70474 155.904 10.8404 154.983 11.7332 153.837C17.7488 146.116 23.7848 138.408 29.8086 130.691C30.0143 130.429 30.1666 130.129 30.4628 129.666C26.0808 129.541 21.9292 129.266 18.2096 126.183L18.2055 126.187ZM37.3301 67.5665C37.4412 63.1165 33.9849 59.4581 29.5741 59.3665C25.3031 59.279 21.6946 62.7873 21.5506 67.1706C21.4066 71.5331 24.9493 75.2665 29.3395 75.3706C33.6146 75.4748 37.219 71.954 37.3301 67.5623V67.5665ZM129.604 59.3665C125.382 59.3873 121.794 63.1248 121.852 67.4498C121.909 71.7373 125.432 75.3331 129.612 75.3748C133.805 75.4123 137.446 71.6873 137.442 67.3665C137.438 63.0248 133.833 59.3498 129.6 59.3706L129.604 59.3665ZM98.0613 27.529V34.9081C100.925 32.4123 103.587 30.0915 106.529 27.529H98.0613Z" fill="#1F2C4C"/>
</g>
<defs>
<clipPath id="clip0_5317_17818">
<rect width="158" height="160" fill="white" transform="translate(0.500977 0.807617)"/>
</clipPath>
</defs>
</svg>
