<svg width="23" height="10" viewBox="0 0 23 10" fill="none" xmlns="http://www.w3.org/2000/svg">
<path opacity="0.4" fill-rule="evenodd" clip-rule="evenodd" d="M5.58997 9.96448C5.43361 10.0296 5.26422 10.0036 5.13392 9.89933L0.130346 5.33878C0.052166 5.2606 4.57764e-05 5.15636 4.57764e-05 5.03909C4.57764e-05 4.92182 0.052166 4.80455 0.130346 4.72637L5.13392 0.10067C5.26422 -0.00357074 5.43361 -0.029631 5.58997 0.0355197C5.7333 0.10067 5.83754 0.244002 5.83754 0.413393V3.33214L22.0991 3.33214C22.3337 3.33214 22.5161 3.51456 22.5161 3.74911V6.25089C22.5161 6.48544 22.3337 6.66786 22.0991 6.66786L5.83754 6.66786V9.58661C5.83754 9.756 5.74633 9.89933 5.58997 9.96448Z" fill="black"/>
</svg>
