<svg width="173" height="173" viewBox="0 0 173 173" fill="none" xmlns="http://www.w3.org/2000/svg">
<path d="M161.467 34.6C155.106 34.6 149.934 39.7727 149.934 46.1332C149.934 52.4937 155.106 57.6664 161.467 57.6664C167.827 57.6664 173 52.494 173 46.1332C173 39.7727 167.827 34.6 161.467 34.6ZM161.467 51.9C158.287 51.9 155.7 49.3138 155.7 46.1332C155.7 42.953 158.286 40.3664 161.467 40.3664C164.647 40.3664 167.234 42.9526 167.234 46.1332C167.233 49.3138 164.647 51.9 161.467 51.9Z" fill="#1F2C4C"/>
<path d="M11.5332 129.75C5.17277 129.75 0 134.923 0 141.283C0 147.644 5.17277 152.816 11.5332 152.816C17.894 152.816 23.0664 147.644 23.0664 141.283C23.0664 134.923 17.894 129.75 11.5332 129.75ZM11.5332 147.05C8.35299 147.05 5.76644 144.464 5.76644 141.283C5.76644 138.103 8.35266 135.516 11.5332 135.516C14.7134 135.516 17.3 138.103 17.3 141.283C17.3 144.464 14.7138 147.05 11.5332 147.05Z" fill="#1F2C4C"/>
<path d="M155.876 38.2444L131.001 26.2355C129.565 25.5404 127.844 26.1459 127.152 27.5793C126.46 29.0123 127.063 30.7365 128.496 31.4285L153.371 43.4375C153.774 43.6335 154.201 43.7257 154.622 43.7257C155.694 43.7257 156.724 43.126 157.219 42.0937C157.911 40.6607 157.309 38.9364 155.876 38.2444Z" fill="#1F2C4C"/>
<path d="M129.75 149.933C123.389 149.933 118.217 155.106 118.217 161.466C118.217 167.827 123.389 173 129.75 173C136.111 173 141.283 167.827 141.283 161.467C141.283 155.106 136.111 149.933 129.75 149.933ZM129.75 167.233C126.57 167.233 123.983 164.647 123.983 161.466C123.983 158.286 126.57 155.7 129.75 155.7C132.93 155.7 135.517 158.286 135.517 161.467C135.517 164.647 132.93 167.233 129.75 167.233Z" fill="#1F2C4C"/>
<path d="M124.159 153.578L99.2847 141.569C97.8487 140.874 96.1274 141.477 95.4354 142.913C94.7434 144.346 95.3459 146.07 96.7792 146.762L121.654 158.771C122.058 158.967 122.484 159.059 122.905 159.059C123.977 159.059 125.007 158.46 125.503 157.427C126.195 155.994 125.592 154.27 124.159 153.578Z" fill="#1F2C4C"/>
<path d="M86.5 77.85C80.1392 77.85 74.9668 83.0227 74.9668 89.3832C74.9668 95.744 80.1396 100.916 86.5 100.916C92.8608 100.916 98.0332 95.7436 98.0332 89.3832C98.0332 83.0227 92.8608 77.85 86.5 77.85ZM86.5 95.15C83.3198 95.15 80.7332 92.5638 80.7332 89.3832C80.7332 86.203 83.3195 83.6164 86.5 83.6164C89.6802 83.6164 92.2668 86.2026 92.2668 89.3832C92.2668 92.5638 89.6802 95.15 86.5 95.15Z" fill="#1F2C4C"/>
<path d="M81.4311 81.8175L62.3233 66.925C61.0661 65.9532 59.2556 66.1695 58.2751 67.4267C57.2976 68.684 57.5196 70.4945 58.7768 71.475L77.8846 86.3675C78.4123 86.7771 79.0351 86.9761 79.6551 86.9761C80.5144 86.9761 81.3621 86.5956 81.9328 85.8661C82.9103 84.6085 82.6883 82.7977 81.4311 81.8175Z" fill="#1F2C4C"/>
<path d="M138.4 74.9668C120.913 74.9668 106.684 89.196 106.684 106.684C106.684 124.171 120.913 138.4 138.4 138.4C155.888 138.4 170.117 124.171 170.117 106.684C170.117 89.196 155.888 74.9668 138.4 74.9668ZM138.4 132.633C124.09 132.633 112.45 120.993 112.45 106.683C112.45 92.3732 124.09 80.7332 138.4 80.7332C152.71 80.7332 164.35 92.3732 164.35 106.683C164.35 120.993 152.71 132.633 138.4 132.633Z" fill="#1F2C4C"/>
<path d="M138.4 86.5C132.04 86.5 126.867 91.6728 126.867 98.0332C126.867 104.394 132.04 109.566 138.4 109.566C144.761 109.566 149.934 104.394 149.934 98.0332C149.934 91.6728 144.761 86.5 138.4 86.5ZM138.4 103.8C135.22 103.8 132.634 101.214 132.634 98.0332C132.634 94.853 135.22 92.2664 138.4 92.2664C141.581 92.2664 144.167 94.8527 144.167 98.0332C144.167 101.214 141.581 103.8 138.4 103.8Z" fill="#1F2C4C"/>
<path d="M146.764 115.333H130.035C125.108 115.333 121.1 119.235 121.1 124.027V131.627C121.1 132.656 121.647 133.608 122.538 134.124C127.371 136.921 132.855 138.4 138.4 138.4C143.944 138.4 149.428 136.921 154.261 134.124C155.152 133.611 155.7 132.656 155.7 131.63V124.03C155.7 119.235 151.692 115.333 146.764 115.333ZM149.933 129.908C142.756 133.484 134.043 133.484 126.866 129.908V124.03C126.866 122.415 128.288 121.1 130.035 121.1H146.764C148.511 121.1 149.932 122.415 149.932 124.03V129.908H149.933Z" fill="#1F2C4C"/>
<path d="M69.1992 109.567C51.7117 109.567 37.4824 123.796 37.4824 141.284C37.4824 158.771 51.7117 173 69.1992 173C86.6867 173 100.916 158.771 100.916 141.283C100.916 123.796 86.6867 109.567 69.1992 109.567ZM69.1992 167.233C54.8892 167.233 43.2492 155.593 43.2492 141.283C43.2492 126.973 54.8892 115.333 69.1992 115.333C83.5092 115.333 95.1492 126.973 95.1492 141.283C95.1492 155.593 83.5092 167.233 69.1992 167.233Z" fill="#1F2C4C"/>
<path d="M69.1992 121.1C62.8384 121.1 57.666 126.273 57.666 132.633C57.666 138.994 62.8388 144.166 69.1992 144.166C75.5597 144.166 80.7325 138.994 80.7325 132.633C80.7325 126.273 75.56 121.1 69.1992 121.1ZM69.1992 138.4C66.019 138.4 63.4325 135.814 63.4325 132.633C63.4325 129.453 66.0187 126.866 69.1992 126.866C72.3795 126.866 74.966 129.453 74.966 132.633C74.966 135.814 72.3795 138.4 69.1992 138.4Z" fill="#1F2C4C"/>
<path d="M77.5649 149.933H60.8359C55.9084 149.933 51.9004 153.835 51.9004 158.626V166.227C51.9004 167.256 52.4481 168.208 53.3391 168.724C58.1716 171.521 63.6556 173 69.2004 173C74.7452 173 80.2291 171.521 85.0617 168.724C85.9527 168.211 86.5004 167.257 86.5004 166.23V158.63C86.5004 153.835 82.4927 149.933 77.5649 149.933ZM80.7336 164.508C73.5568 168.084 64.8436 168.084 57.6668 164.508V158.63C57.6668 157.015 59.0883 155.7 60.8356 155.7H77.5645C79.3118 155.7 80.7333 157.015 80.7333 158.63V164.508H80.7336Z" fill="#1F2C4C"/>
<path d="M31.7168 37.4832C14.2292 37.4832 0 51.7124 0 69.1999C0 86.6875 14.2292 100.917 31.7168 100.917C49.2043 100.917 63.4336 86.6875 63.4336 69.1999C63.4332 51.7124 49.204 37.4832 31.7168 37.4832ZM31.7168 95.1499C17.4068 95.1499 5.76678 83.5099 5.76678 69.1999C5.76678 54.8899 17.4068 43.2499 31.7168 43.2499C46.0268 43.2499 57.6668 54.8899 57.6668 69.1999C57.6668 83.5099 46.0268 95.1499 31.7168 95.1499Z" fill="#1F2C4C"/>
<path d="M31.7168 49.0168C25.356 49.0168 20.1836 54.1896 20.1836 60.5501C20.1836 66.9105 25.3564 72.0833 31.7168 72.0833C38.0776 72.0833 43.25 66.9105 43.25 60.5501C43.25 54.1896 38.0773 49.0168 31.7168 49.0168ZM31.7168 66.3168C28.5366 66.3168 25.95 63.7306 25.95 60.5501C25.95 57.3695 28.5362 54.7833 31.7168 54.7833C34.897 54.7833 37.4836 57.3695 37.4836 60.5501C37.4836 63.7306 34.897 66.3168 31.7168 66.3168Z" fill="#1F2C4C"/>
<path d="M40.0805 77.85H23.3515C18.4241 77.85 14.416 81.7513 14.416 86.5432V94.1437C14.416 95.173 14.9637 96.1245 15.8548 96.6407C20.6873 99.4375 26.1712 100.917 31.716 100.917C37.2608 100.917 42.7448 99.4375 47.5773 96.6407C48.4683 96.1275 49.016 95.173 49.016 94.1468V86.5463C49.016 81.7513 45.008 77.85 40.0805 77.85ZM43.2492 92.4252C36.0728 96.0005 27.3593 96.0005 20.1825 92.4252V86.5463C20.1825 84.9315 21.604 83.6168 23.3512 83.6168H40.0802C41.8274 83.6168 43.2489 84.9315 43.2489 86.5463V92.4252H43.2492Z" fill="#1F2C4C"/>
<path d="M100.916 0C83.4285 0 69.1992 14.2292 69.1992 31.7168C69.1992 49.2043 83.4285 63.4336 100.916 63.4336C118.404 63.4336 132.633 49.2043 132.633 31.7168C132.632 14.2292 118.403 0 100.916 0ZM100.916 57.6668C86.606 57.6668 74.966 46.0268 74.966 31.7168C74.966 17.4068 86.606 5.76678 100.916 5.76678C115.226 5.76678 126.866 17.4068 126.866 31.7168C126.866 46.0268 115.226 57.6668 100.916 57.6668Z" fill="#1F2C4C"/>
<path d="M100.916 11.5332C94.5552 11.5332 89.3828 16.706 89.3828 23.0664C89.3828 29.4269 94.5556 34.5996 100.916 34.5996C107.276 34.5996 112.449 29.4272 112.449 23.0668C112.449 16.7063 107.276 11.5332 100.916 11.5332ZM100.916 28.8332C97.7358 28.8332 95.1493 26.247 95.1493 23.0664C95.1493 19.8862 97.7355 17.2996 100.916 17.2996C104.097 17.2996 106.683 19.8859 106.683 23.0664C106.682 26.247 104.096 28.8332 100.916 28.8332Z" fill="#1F2C4C"/>
<path d="M109.282 40.3668H92.5527C87.6252 40.3668 83.6172 44.2681 83.6172 49.0601V56.6606C83.6172 57.6898 84.1649 58.6413 85.0559 59.1576C89.8884 61.9543 95.3724 63.4336 100.917 63.4336C106.462 63.4336 111.946 61.9543 116.778 59.1576C117.669 58.6443 118.217 57.6898 118.217 56.6636V49.0631C118.217 44.2678 114.209 40.3668 109.282 40.3668ZM112.45 54.9421C105.274 58.5173 96.5604 58.5173 89.3836 54.9421V49.0631C89.3836 47.4483 90.8051 46.1336 92.5524 46.1336H109.281C111.029 46.1336 112.45 47.4483 112.45 49.0631V54.9421H112.45Z" fill="#1F2C4C"/>
<path d="M74.2773 29.8395C73.2424 28.6342 71.4228 28.4899 70.2118 29.5252L50.2303 46.6235C49.0193 47.6585 48.8781 49.478 49.9131 50.689C50.4841 51.355 51.2913 51.6983 52.1043 51.6983C52.7676 51.6983 53.4335 51.4706 53.9786 51.0033L73.9601 33.905C75.1714 32.87 75.3126 31.0505 74.2773 29.8395Z" fill="#1F2C4C"/>
<path d="M137.824 76.1231L120.524 53.0563C119.569 51.7791 117.762 51.528 116.487 52.4795C115.213 53.4341 114.956 55.2418 115.91 56.5133L133.21 79.58C133.778 80.3356 134.643 80.7332 135.52 80.7332C136.12 80.7332 136.728 80.5457 137.247 80.1565C138.522 79.2023 138.779 77.3946 137.824 76.1231Z" fill="#1F2C4C"/>
<path d="M114.159 116.219C113.205 114.944 111.397 114.688 110.123 115.642L94.0165 127.72C92.742 128.675 92.4855 130.482 93.4397 131.754C94.0077 132.509 94.8727 132.907 95.7492 132.907C96.3517 132.907 96.9572 132.717 97.4765 132.33L113.583 120.252C114.857 119.298 115.114 117.49 114.159 116.219Z" fill="#1F2C4C"/>
<path d="M40.3676 138.4H20.184C18.5925 138.4 17.3008 139.689 17.3008 141.283C17.3008 142.878 18.5925 144.166 20.184 144.166H40.3672C41.9587 144.166 43.2504 142.878 43.2504 141.283C43.2504 139.689 41.959 138.4 40.3676 138.4Z" fill="#1F2C4C"/>
<path d="M31.7172 0C25.3564 0 20.1836 5.17277 20.1836 11.5332C20.1836 17.894 25.3564 23.0664 31.7168 23.0664C38.0776 23.0664 43.25 17.8937 43.25 11.5332C43.2504 5.17277 38.0776 0 31.7172 0ZM31.7172 17.3C28.5369 17.3 25.9504 14.7138 25.9504 11.5332C25.9504 8.35299 28.5366 5.76644 31.7172 5.76644C34.8974 5.76644 37.4839 8.35266 37.4839 11.5332C37.4836 14.7138 34.8974 17.3 31.7172 17.3Z" fill="#1F2C4C"/>
<path d="M31.7172 17.3C30.1257 17.3 28.834 18.5888 28.834 20.1833V40.3665C28.834 41.961 30.1257 43.2497 31.7172 43.2497C33.3087 43.2497 34.6004 41.961 34.6004 40.3665V20.1833C34.6004 18.5888 33.3087 17.3 31.7172 17.3Z" fill="#1F2C4C"/>
</svg>
