<svg width="149" height="177" viewBox="0 0 149 177" fill="none" xmlns="http://www.w3.org/2000/svg">
<path d="M141.058 53.3849C137.109 49.4393 132.086 46.962 126.648 46.2264V22.125C126.648 20.2157 125.101 18.668 123.191 18.668H90.75C88.8406 18.668 87.2929 20.2157 87.2929 22.125C87.2929 24.0343 88.8406 25.582 90.75 25.582H119.734V49.4528C119.734 50.37 120.099 51.2498 120.748 51.8983C121.396 52.5462 122.275 52.9099 123.191 52.9099C123.197 52.9099 123.203 52.9099 123.209 52.9099C128.104 52.9099 132.707 54.8154 136.171 58.2759C139.638 61.7398 141.547 66.3466 141.547 71.248V154.184C141.547 162.952 134.413 170.086 125.645 170.086H118.66C125.453 164.502 129.793 156.038 129.793 146.578C129.793 129.804 116.146 116.156 99.3711 116.156C82.5965 116.156 68.9492 129.804 68.9492 146.578C68.9492 156.038 73.2895 164.502 80.0826 170.086H23.3164C14.548 170.086 7.41406 162.952 7.41406 154.184V71.2449C7.41406 66.3442 9.32304 61.7377 12.7894 58.2738C16.253 54.8126 20.8557 52.9071 25.7519 52.9071C25.7557 52.9071 25.7605 52.9071 25.7643 52.9071L30.1845 52.9099C30.1852 52.9099 30.1859 52.9099 30.1866 52.9099C31.103 52.9099 31.9821 52.5458 32.6303 51.898C33.2792 51.2498 33.6436 50.37 33.6436 49.4528V25.582H42.5168C44.4261 25.582 45.9738 24.0343 45.9738 22.125C45.9738 20.2157 44.4261 18.668 42.5168 18.668H30.1866C28.2772 18.668 26.7295 20.2157 26.7295 22.125V45.9934L25.7688 45.9927C25.7629 45.9927 25.7574 45.9927 25.7515 45.9927C19.0096 45.9927 12.6712 48.6169 7.90185 53.3828C3.12873 58.1535 0.5 64.4968 0.5 71.2449V154.184C0.5 166.765 10.7352 177 23.3164 177H125.645C138.226 177 148.461 166.765 148.461 154.184V71.248C148.461 64.4989 145.832 58.1552 141.058 53.3849ZM99.3711 170.086C86.409 170.086 75.8633 159.54 75.8633 146.578C75.8633 133.616 86.409 123.07 99.3711 123.07C112.333 123.07 122.879 133.616 122.879 146.578C122.879 159.54 112.333 170.086 99.3711 170.086Z" fill="#1F2C4C"/>
<path d="M99.3715 143.606C96.6432 143.606 94.4238 141.735 94.4238 139.436C94.4238 137.136 96.6432 135.265 99.3715 135.265C102.1 135.265 104.319 137.136 104.319 139.436C104.319 141.345 105.867 142.893 107.776 142.893C109.686 142.893 111.233 141.345 111.233 139.436C111.233 134.447 107.688 130.219 102.829 128.832V128.343C102.829 126.434 101.281 124.886 99.3715 124.886C97.4622 124.886 95.9145 126.434 95.9145 128.343V128.832C91.0553 130.218 87.5098 134.447 87.5098 139.436C87.5098 145.548 92.8308 150.52 99.3715 150.52C102.1 150.52 104.319 152.391 104.319 154.69C104.319 156.99 102.1 158.861 99.3715 158.861C96.6432 158.861 94.4238 156.99 94.4238 154.69C94.4238 152.781 92.8761 151.233 90.9668 151.233C89.0575 151.233 87.5098 152.781 87.5098 154.69C87.5098 159.679 91.055 163.907 95.9145 165.293V165.491C95.9145 167.4 97.4622 168.948 99.3715 168.948C101.281 168.948 102.829 167.4 102.829 165.491V165.293C107.688 163.907 111.233 159.679 111.233 154.69C111.233 148.578 105.912 143.606 99.3715 143.606Z" fill="#1F2C4C"/>
<path d="M74.4375 42.3337C57.6629 42.3337 44.0156 55.9811 44.0156 72.7556C44.0156 89.5302 57.6629 103.177 74.4375 103.177C91.2121 103.177 104.859 89.5302 104.859 72.7556C104.859 55.9811 91.2121 42.3337 74.4375 42.3337ZM74.4375 96.2634C61.4754 96.2634 50.9297 85.7178 50.9297 72.7556C50.9297 59.7935 61.4754 49.2478 74.4375 49.2478C87.3996 49.2478 97.9453 59.7935 97.9453 72.7556C97.9453 85.7178 87.3996 96.2634 74.4375 96.2634Z" fill="#1F2C4C"/>
<path d="M74.436 69.784C71.7077 69.784 69.4883 67.9131 69.4883 65.6134C69.4883 63.3138 71.7077 61.4429 74.436 61.4429C77.1643 61.4429 79.3837 63.3138 79.3837 65.6134C79.3837 67.5228 80.9314 69.0705 82.8407 69.0705C84.75 69.0705 86.2977 67.5228 86.2977 65.6134C86.2977 60.625 82.7526 56.3967 77.893 55.0104V54.5209C77.893 52.6116 76.3453 51.0638 74.436 51.0638C72.5267 51.0638 70.979 52.6116 70.979 54.5209V55.0104C66.1197 56.3967 62.5742 60.625 62.5742 65.6134C62.5742 71.7255 67.8953 76.6981 74.436 76.6981C77.1643 76.6981 79.3837 78.569 79.3837 80.8686C79.3837 83.1683 77.1643 85.0392 74.436 85.0392C71.7077 85.0392 69.4883 83.1683 69.4883 80.8686C69.4883 78.9593 67.9406 77.4116 66.0312 77.4116C64.1219 77.4116 62.5742 78.9593 62.5742 80.8686C62.5742 85.8571 66.1194 90.0854 70.979 91.472V91.6694C70.979 93.5784 72.5267 95.1265 74.436 95.1265C76.3453 95.1265 77.893 93.5784 77.893 91.6694V91.472C82.7522 90.0858 86.2977 85.8575 86.2977 80.8686C86.2977 74.7566 80.9767 69.784 74.436 69.784Z" fill="#1F2C4C"/>
<path d="M74.4375 0C72.5282 0 70.9805 1.54771 70.9805 3.45703V25.9858C70.9805 27.8951 72.5282 29.4428 74.4375 29.4428C76.3468 29.4428 77.8945 27.8951 77.8945 25.9858V3.45703C77.8945 1.54771 76.3468 0 74.4375 0Z" fill="#1F2C4C"/>
<path d="M126.336 70.066C124.427 70.066 122.879 71.6138 122.879 73.5231V96.0519C122.879 97.9608 124.427 99.5089 126.336 99.5089C128.245 99.5089 129.793 97.9608 129.793 96.0519V73.5231C129.793 71.6138 128.245 70.066 126.336 70.066Z" fill="#1F2C4C"/>
<path d="M59.2266 13.8281C57.3172 13.8281 55.7695 15.3758 55.7695 17.2852V33.3894C55.7695 35.2987 57.3172 36.8464 59.2266 36.8464C61.1359 36.8464 62.6836 35.2987 62.6836 33.3894V17.2852C62.6836 15.3758 61.1359 13.8281 59.2266 13.8281Z" fill="#1F2C4C"/>
<path d="M128.782 106.653C128.139 106.009 127.247 105.64 126.338 105.64C125.429 105.64 124.537 106.009 123.894 106.653C123.251 107.296 122.881 108.188 122.881 109.097C122.881 110.01 123.247 110.898 123.894 111.541C124.537 112.187 125.429 112.554 126.338 112.554C127.247 112.554 128.139 112.187 128.782 111.541C129.425 110.898 129.795 110.009 129.795 109.097C129.795 108.188 129.425 107.296 128.782 106.653Z" fill="#1F2C4C"/>
<path d="M57.9814 143.61H48.6934C46.784 143.61 45.2363 145.158 45.2363 147.067C45.2363 148.976 46.784 150.524 48.6934 150.524H57.9814C59.8907 150.524 61.4384 148.976 61.4384 147.067C61.4384 145.158 59.8907 143.61 57.9814 143.61Z" fill="#1F2C4C"/>
<path d="M36.4344 144.621C35.7913 143.978 34.8994 143.609 33.9902 143.609C33.081 143.609 32.1891 143.978 31.5461 144.621C30.9031 145.264 30.5332 146.156 30.5332 147.066C30.5332 147.978 30.9031 148.867 31.5461 149.509C32.1891 150.156 33.081 150.523 33.9902 150.523C34.8994 150.523 35.7913 150.156 36.4344 149.509C37.0774 148.867 37.4473 147.978 37.4473 147.066C37.4473 146.156 37.0774 145.264 36.4344 144.621Z" fill="#1F2C4C"/>
<path d="M64.505 132.394L58.8351 126.724C57.4852 125.374 55.2962 125.374 53.9462 126.724C52.5962 128.074 52.5959 130.262 53.9462 131.613L59.6161 137.283C60.2912 137.958 61.1759 138.296 62.0605 138.296C62.9452 138.296 63.8299 137.958 64.505 137.283C65.855 135.933 65.8553 133.745 64.505 132.394Z" fill="#1F2C4C"/>
</svg>
