<svg width="177" height="177" viewBox="0 0 177 177" fill="none" xmlns="http://www.w3.org/2000/svg">
<path d="M177 88.8457C177 79.8235 173.03 71.0365 165.481 64.8612C169.883 44.8367 155.727 24.4848 134.713 21.7402C132.407 9.54486 121.679 0 109.242 0C100.77 0 93.2344 4.08552 88.5 10.3891C83.7656 4.08552 76.2303 0 67.7578 0C55.3211 0 44.5926 9.54486 42.2874 21.7402C21.2943 24.482 7.11146 44.8152 11.5188 64.8612C4.1391 70.8982 0 79.6058 0 88.8457C0 98.0037 4.22034 106.642 11.4563 112.622C7.21137 133.408 21.5598 153.244 42.2906 155.952C44.5795 167.924 55.1286 177 67.7578 177C76.2303 177 83.7656 172.914 88.5 166.611C93.2344 172.914 100.77 177 109.242 177C121.871 177 132.421 167.924 134.709 155.952C155.408 153.248 169.796 133.442 165.544 112.621C172.78 106.642 177 98.0034 177 88.8457ZM67.7578 166.629C53.9847 166.629 46.9845 149.845 56.7575 140.072C58.7827 138.047 58.7827 134.764 56.7575 132.739C54.7328 130.713 51.4493 130.713 49.4241 132.739C45.8751 136.288 43.4888 140.686 42.4399 145.474C22.0524 141.827 13.8019 116.505 28.6816 101.625C30.7067 99.5998 30.7067 96.3167 28.6816 94.2916C26.6568 92.2664 23.3733 92.2664 21.3482 94.2916C19.004 96.6358 17.0203 99.2445 15.4242 102.049C12.1954 98.3263 10.3711 93.6831 10.3711 88.8457C10.3711 78.2976 19.5779 68.1035 31.459 68.1035C34.3228 68.1035 36.6445 65.7818 36.6445 62.918C36.6445 60.0542 34.3228 57.7324 31.459 57.7324C27.9076 57.7324 24.4388 58.3277 21.1629 59.4623C19.973 45.1754 31.6128 31.8047 47.0156 31.8047C49.8794 31.8047 52.2012 29.4829 52.2012 26.6191C52.2012 17.8117 59.3251 10.3711 67.7578 10.3711C76.3357 10.3711 83.3145 17.3498 83.3145 25.9277V50.1276C79.3053 46.523 74.3424 43.9254 68.7894 42.798C65.9819 42.2283 63.2457 44.0419 62.676 46.8483C62.1063 49.6551 63.9198 52.392 66.7262 52.9617C76.3382 54.9129 83.3145 63.4618 83.3145 73.2891V112.354C79.3053 108.75 74.3424 106.152 68.7894 105.025C65.9819 104.455 63.2457 106.268 62.676 109.075C62.1063 111.882 63.9198 114.619 66.7262 115.188C76.3382 117.139 83.3145 125.688 83.3145 135.516V151.072C83.3145 159.65 76.3357 166.629 67.7578 166.629ZM161.575 102.05C159.979 99.2445 157.996 96.6358 155.651 94.2919C153.626 92.2668 150.343 92.2668 148.318 94.2919C146.293 96.317 146.293 99.6002 148.318 101.625C163.196 116.504 154.95 141.827 134.56 145.474C133.511 140.687 131.125 136.288 127.576 132.739C125.551 130.714 122.267 130.714 120.242 132.739C118.217 134.764 118.217 138.047 120.242 140.072C130.019 149.848 123.008 166.629 109.242 166.629C100.664 166.629 93.6855 159.65 93.6855 151.072V135.516C93.6855 125.688 100.662 117.139 110.274 115.188C113.081 114.619 114.894 111.882 114.324 109.075C113.754 106.268 111.017 104.455 108.211 105.025C102.658 106.152 97.6947 108.75 93.6855 112.354V73.2891C93.6855 63.4618 100.662 54.9129 110.274 52.9617C113.081 52.392 114.894 49.6551 114.324 46.8483C113.754 44.0415 111.017 42.228 108.211 42.798C102.658 43.925 97.6947 46.523 93.6855 50.1276V25.9277C93.6855 17.3498 100.664 10.3711 109.242 10.3711C117.675 10.3711 124.799 17.8117 124.799 26.6191C124.799 29.4829 127.121 31.8047 129.984 31.8047C145.346 31.8047 157.03 45.1336 155.837 59.4623C152.561 58.3277 149.092 57.7324 145.541 57.7324C142.677 57.7324 140.355 60.0542 140.355 62.918C140.355 65.7818 142.677 68.1035 145.541 68.1035C157.11 68.1035 166.629 77.9229 166.629 88.8457C166.629 93.6831 164.805 98.3263 161.575 102.05Z" fill="#1F2C4C"/>
</svg>
