<svg width="105" height="177" viewBox="0 0 105 177" fill="none" xmlns="http://www.w3.org/2000/svg">
<path d="M62.5633 52.7336C61.1767 53.0904 60.3418 54.504 60.6986 55.8909C60.8762 56.5806 60.9661 57.2959 60.9661 58.017C60.9661 62.6995 57.1565 66.5088 52.4743 66.5088C47.7921 66.5088 43.9824 62.6992 43.9824 58.017C43.9824 53.3348 47.7921 49.5251 52.4743 49.5251C53.1996 49.5251 53.9186 49.6161 54.6111 49.7955C55.997 50.154 57.4119 49.3215 57.7711 47.9356C58.13 46.5493 57.2972 45.1344 55.9112 44.7755C54.7943 44.4865 53.6379 44.3396 52.4743 44.3396C44.9324 44.3396 38.7969 50.4755 38.7969 58.017C38.7969 65.5585 44.9328 71.6944 52.4743 71.6944C60.0158 71.6944 66.1517 65.5585 66.1517 58.017C66.1517 56.8603 66.0065 55.7101 65.7202 54.5983C65.3638 53.2114 63.9502 52.3758 62.5633 52.7336Z" fill="#1F2C4C"/>
<path d="M94.0427 32.8975C100.057 32.8975 104.949 28.0051 104.949 21.9912V2.59277C104.949 1.16087 103.788 0 102.356 0H2.59277C1.16087 0 0 1.16087 0 2.59277V21.9912C0 28.0051 4.89274 32.8975 10.9066 32.8975C10.9664 32.8975 11.0255 32.894 11.085 32.893V99.7634H5.44448C2.44239 99.7634 0 102.206 0 105.208V110.589C0 113.591 2.44239 116.034 5.44448 116.034H5.54266V171.814H2.59312C1.16122 171.814 0.000345513 172.975 0.000345513 174.407C0.000345513 175.839 1.16122 177 2.59312 177H102.356C103.788 177 104.949 175.839 104.949 174.407C104.949 172.975 103.788 171.814 102.356 171.814H99.4069V116.034H99.5051C102.507 116.034 104.95 113.591 104.95 110.589V105.207C104.95 102.205 102.507 99.763 99.5051 99.763H93.8646V32.893C93.9237 32.894 93.9829 32.8975 94.0427 32.8975ZM99.7637 21.9912C99.7637 25.1458 97.1972 27.7119 94.0427 27.7119C90.8881 27.7119 88.322 25.1458 88.322 21.9912C88.322 20.5593 87.1611 19.3984 85.7292 19.3984C84.2973 19.3984 83.1364 20.5593 83.1364 21.9912C83.1364 25.1458 80.5703 27.7119 77.4157 27.7119C74.2612 27.7119 71.695 25.1458 71.695 21.9912V5.18555H83.1368V10.9073C83.1368 12.3392 84.2976 13.5001 85.7295 13.5001C87.1614 13.5001 88.3223 12.3392 88.3223 10.9073V5.18555H99.764V21.9912H99.7637ZM66.5091 21.9912C66.5091 25.1458 63.943 27.7119 60.7884 27.7119C57.6339 27.7119 55.0674 25.1458 55.0674 21.9912V5.18555H66.5091V21.9912ZM49.8819 21.9912C49.8819 25.1458 47.3157 27.7119 44.1612 27.7119C41.0066 27.7119 38.4405 25.1458 38.4405 21.9912V5.18555H49.8819V21.9912ZM33.2546 21.9912C33.2546 25.1458 30.6884 27.7119 27.5339 27.7119C24.3793 27.7119 21.8132 25.1458 21.8132 21.9912V5.18555H33.2549V21.9912H33.2546ZM10.9066 27.7119C7.75205 27.7119 5.18589 25.1458 5.18589 21.9912V5.18555H16.6276V21.9912C16.6276 25.1458 14.0611 27.7119 10.9066 27.7119ZM99.7637 105.207V110.589C99.7637 110.732 99.6475 110.848 99.5048 110.848H91.2708C89.8389 110.848 88.678 112.009 88.678 113.441C88.678 114.873 89.8389 116.034 91.2708 116.034H94.2214V171.814H10.7282V116.034H80.1879C81.6198 116.034 82.7807 114.873 82.7807 113.441C82.7807 112.009 81.6198 110.848 80.1879 110.848H5.44448C5.3017 110.848 5.18555 110.732 5.18555 110.589V105.207C5.18555 105.065 5.3017 104.949 5.44448 104.949H99.5048C99.6475 104.949 99.7637 105.065 99.7637 105.207ZM69.2803 99.7634H35.669V93.5984C35.669 91.1163 36.7496 88.7662 38.6344 87.1507L43.8936 82.6431C44.6081 82.0302 45.5668 81.7989 46.4584 82.025C50.4032 83.0261 54.5457 83.0261 58.4909 82.025C59.3804 81.7992 60.3404 82.0298 61.0553 82.6428L66.3145 87.1507C68.1993 88.7662 69.2799 91.1163 69.2799 93.5984V99.7634H69.2803ZM88.6787 99.7634H74.4658V93.5984C74.4658 89.6007 72.7249 85.8156 69.6896 83.2135L64.4304 78.7055C62.4364 76.9967 59.7396 76.3586 57.2159 76.9988C54.1039 77.788 50.8457 77.788 47.734 76.9988C45.2097 76.3586 42.5132 76.9967 40.5192 78.7059L35.26 83.2139C32.2244 85.8156 30.4838 89.6007 30.4838 93.5988V99.7637H16.2709V31.4815C17.3927 30.845 18.3907 30.016 19.2204 29.0391C21.2224 31.3971 24.2054 32.8975 27.5339 32.8975C30.8623 32.8975 33.8454 31.3971 35.8473 29.0391C37.8493 31.3971 40.8324 32.8975 44.1608 32.8975C47.4892 32.8975 50.4727 31.3971 52.4746 29.0391C54.4766 31.3971 57.4597 32.8975 60.7881 32.8975C64.1165 32.8975 67.0996 31.3971 69.1016 29.0391C71.1035 31.3971 74.0866 32.8975 77.415 32.8975C80.7435 32.8975 83.7265 31.3971 85.7285 29.0391C86.5582 30.0164 87.5562 30.845 88.678 31.4815V99.7634H88.6787Z" fill="#1F2C4C"/>
<path d="M80.1859 121.933H24.762C20.2762 121.933 16.627 125.582 16.627 130.068V135.61C16.627 140.096 20.2765 143.745 24.762 143.745H27.5342C28.9661 143.745 30.127 142.585 30.127 141.153C30.127 139.721 28.9661 138.56 27.5342 138.56H24.762C23.1355 138.56 21.8125 137.237 21.8125 135.61V130.068C21.8125 128.441 23.1359 127.118 24.762 127.118H80.1859C81.8124 127.118 83.1354 128.442 83.1354 130.068V135.61C83.1354 137.237 81.812 138.56 80.1859 138.56H38.6178C37.1859 138.56 36.025 139.721 36.025 141.153C36.025 142.585 37.1859 143.745 38.6178 143.745H80.1859C84.6717 143.745 88.3209 140.096 88.3209 135.61V130.068C88.3209 125.582 84.6717 121.933 80.1859 121.933Z" fill="#1F2C4C"/>
</svg>
