<svg width="142" height="154" viewBox="0 0 142 154" fill="none" xmlns="http://www.w3.org/2000/svg">
<path d="M117.604 48.125C104.341 48.125 93.541 37.3321 93.541 24.0625C93.541 10.7929 104.341 0 117.604 0C130.867 0 141.666 10.7929 141.666 24.0625C141.666 37.3321 130.867 48.125 117.604 48.125ZM117.604 9.625C109.647 9.625 103.166 16.0988 103.166 24.0625C103.166 32.0262 109.647 38.5 117.604 38.5C125.56 38.5 132.041 32.0262 132.041 24.0625C132.041 16.0988 125.56 9.625 117.604 9.625Z" fill="#1F2C4C"/>
<path d="M117.604 154C104.341 154 93.541 143.207 93.541 129.938C93.541 116.668 104.341 105.875 117.604 105.875C130.867 105.875 141.666 116.668 141.666 129.938C141.666 143.207 130.867 154 117.604 154ZM117.604 115.5C109.647 115.5 103.166 121.974 103.166 129.938C103.166 137.901 109.647 144.375 117.604 144.375C125.56 144.375 132.041 137.901 132.041 129.938C132.041 121.974 125.56 115.5 117.604 115.5Z" fill="#1F2C4C"/>
<path d="M24.5625 101.062C11.2988 101.062 0.5 90.2696 0.5 77C0.5 63.7304 11.2988 52.9375 24.5625 52.9375C37.8262 52.9375 48.625 63.7304 48.625 77C48.625 90.2696 37.8262 101.062 24.5625 101.062ZM24.5625 62.5625C16.6059 62.5625 10.125 69.0363 10.125 77C10.125 84.9637 16.6059 91.4375 24.5625 91.4375C32.5191 91.4375 39 84.9637 39 77C39 69.0363 32.5191 62.5625 24.5625 62.5625Z" fill="#1F2C4C"/>
<path d="M41.3166 72.3155C39.6412 72.3155 38.0116 71.4426 37.1327 69.8905C35.8168 67.5806 36.6193 64.6409 38.9292 63.3262L98.4698 29.3814C100.773 28.0537 103.718 28.862 105.027 31.179C106.343 33.4889 105.54 36.4274 103.231 37.7433L43.69 71.687C42.9392 72.1099 42.125 72.3155 41.3166 72.3155Z" fill="#1F2C4C"/>
<path d="M100.852 125.253C100.043 125.253 99.2279 125.047 98.4771 124.618L38.9365 90.6737C36.6266 89.3589 35.8253 86.4192 37.14 84.1093C38.4489 81.7936 41.3886 80.9911 43.6985 82.3129L103.238 116.257C105.548 117.572 106.35 120.511 105.036 122.821C104.15 124.38 102.52 125.253 100.852 125.253Z" fill="#1F2C4C"/>
</svg>
