<svg width="179" height="177" viewBox="0 0 179 177" fill="none" xmlns="http://www.w3.org/2000/svg">
<path d="M115.188 97.0645C96.2973 97.0645 80.9297 112.432 80.9297 131.323C80.9297 150.213 96.2973 165.581 115.188 165.581C134.078 165.581 149.446 150.213 149.446 131.323C149.446 112.432 134.078 97.0645 115.188 97.0645ZM115.188 159.871C99.4462 159.871 86.6394 147.064 86.6394 131.323C86.6394 115.581 99.4462 102.774 115.188 102.774C130.929 102.774 143.736 115.581 143.736 131.323C143.736 147.064 130.929 159.871 115.188 159.871Z" fill="#1F2C4C"/>
<path d="M115.188 148.452V154.161C117.429 154.161 119.647 153.836 121.779 153.196L120.135 147.729C118.536 148.209 116.872 148.452 115.188 148.452Z" fill="#1F2C4C"/>
<path d="M115.188 108.484V114.194C124.634 114.194 132.317 121.876 132.317 131.323C132.317 137.087 129.445 142.428 124.634 145.617L127.786 150.376C134.198 146.128 138.026 139.005 138.026 131.323C138.026 118.73 127.78 108.484 115.188 108.484Z" fill="#1F2C4C"/>
<path d="M100.914 57.0969C100.914 47.87 95.4039 39.9221 87.5103 36.3222C90.4536 33.7043 92.3492 29.9331 92.3492 25.6936C92.3492 17.8228 85.9458 11.4194 78.075 11.4194C70.2042 11.4194 63.8008 17.8228 63.8008 25.6936C63.8008 29.9331 65.6965 33.7043 68.6398 36.3222C60.7462 39.9221 55.2363 47.87 55.2363 57.0969V62.8065H100.914V57.0969ZM69.5105 25.6936C69.5105 20.9717 73.3531 17.1291 78.075 17.1291C82.7969 17.1291 86.6396 20.9717 86.6396 25.6936C86.6396 30.4155 82.7969 34.2581 78.075 34.2581C73.3531 34.2581 69.5105 30.4155 69.5105 25.6936ZM60.946 57.0969C60.946 47.6502 68.6284 39.9678 78.075 39.9678C87.5217 39.9678 95.2041 47.6502 95.2041 57.0969H60.946Z" fill="#1F2C4C"/>
<path d="M106.623 11.4194H123.752V17.1291H106.623V11.4194Z" fill="#1F2C4C"/>
<path d="M106.623 22.8386H123.752V28.5483H106.623V22.8386Z" fill="#1F2C4C"/>
<path d="M106.623 34.2581H123.752V39.9677H106.623V34.2581Z" fill="#1F2C4C"/>
<path d="M106.623 45.6775H123.752V51.3872H106.623V45.6775Z" fill="#1F2C4C"/>
<path d="M106.623 57.0967H123.752V62.8064H106.623V57.0967Z" fill="#1F2C4C"/>
<path d="M147.047 37.8701L148.234 32.2861L164.987 35.8489L163.799 41.433L147.047 37.8701Z" fill="#1F2C4C"/>
<path d="M144.672 49.0427L145.859 43.4587L162.612 47.0215L161.424 52.6056L144.672 49.0427Z" fill="#1F2C4C"/>
<path d="M142.293 60.2097L143.481 54.6257L160.23 58.1879L159.042 63.772L142.293 60.2097Z" fill="#1F2C4C"/>
<path d="M139.92 71.3818L141.108 65.7978L157.86 69.3606L156.672 74.9447L139.92 71.3818Z" fill="#1F2C4C"/>
<path d="M137.527 82.5403L138.715 76.9562L155.467 80.5191L154.28 86.1031L137.527 82.5403Z" fill="#1F2C4C"/>
<path d="M178.529 27.0268L135.172 17.8113V0H43.8174V17.8113L0.460938 27.0268L19.5969 117.048H15.269C7.3982 117.048 0.994792 123.452 0.994792 131.323C0.994792 139.193 7.3982 145.597 15.269 145.597H58.0916V139.887H70.3445C74.367 160.99 92.932 177 115.188 177C140.374 177 160.866 156.508 160.866 131.323C160.866 126.906 160.203 122.65 159.03 118.607L178.529 27.0268ZM171.751 31.4232L155.196 109.323C150.654 101.098 143.637 94.4523 135.172 90.3128V23.6495L171.751 31.4232ZM129.463 5.70968V87.9604C127.607 87.3466 125.703 86.8499 123.753 86.4788V68.5161H55.2367V111.339H74.1786C72.4286 114.916 71.1125 118.736 70.3445 122.758H58.0916V117.048H49.5271V5.70968H129.463ZM77.4531 105.629H60.9464V74.2258H118.043V85.7908C117.095 85.7308 116.153 85.6452 115.188 85.6452C99.5238 85.6452 85.6836 93.5759 77.4531 105.629ZM37.1114 117.048L32.6521 96.0682L43.8174 93.6958V117.048H37.1114ZM31.4788 66.4235C33.971 62.5866 37.8079 59.9488 42.2843 58.9981C42.7811 58.8925 43.3007 58.8354 43.8174 58.7783V76.1842L29.0921 79.316C28.1386 74.8396 28.9893 70.2604 31.4788 66.4235ZM34.6505 52.2207C32.732 50.9731 31.4131 49.0575 30.9392 46.8165C30.4624 44.5783 30.885 42.2916 32.1325 40.3731C33.3801 38.4547 35.2957 37.1357 37.5339 36.659C39.7036 36.1994 41.9275 36.6647 43.8174 37.8637V52.2036C42.9552 52.7631 42.0588 53.2113 41.0967 53.414C38.8557 53.8879 36.5689 53.4654 34.6505 52.2207ZM7.23833 31.4232L43.8174 23.6495V31.5317C41.4336 30.7209 38.8699 30.5354 36.3463 31.0749C32.6178 31.8686 29.4204 34.0639 27.345 37.2614C25.2695 40.4588 24.5615 44.2757 25.3551 48.0013C26.1459 51.7325 28.347 54.93 31.5444 57.0054C31.7785 57.1567 32.0269 57.2681 32.2667 57.4051C30.1027 59.0095 28.2043 60.9851 26.6941 63.3118C23.371 68.4276 22.2376 74.5313 23.5081 80.4979L24.69 86.0877L43.8174 82.0195V87.8577L25.8776 91.6717L31.2704 117.048H25.4351L7.23833 31.4232ZM52.3819 139.887H15.269C10.5471 139.887 6.70447 136.044 6.70447 131.323C6.70447 126.601 10.5471 122.758 15.269 122.758H52.3819V139.887ZM58.0916 134.177V128.468H69.6565C69.5966 129.416 69.5109 130.358 69.5109 131.323C69.5109 132.288 69.5966 133.23 69.6565 134.177H58.0916ZM115.188 171.29C93.149 171.29 75.2206 153.362 75.2206 131.323C75.2206 109.283 93.149 91.3548 115.188 91.3548C137.228 91.3548 155.156 109.283 155.156 131.323C155.156 153.362 137.228 171.29 115.188 171.29Z" fill="#1F2C4C"/>
</svg>
